<svg width="58" height="59" viewBox="0 0 58 59" fill="none" xmlns="http://www.w3.org/2000/svg">
<g id="Group 241">
<rect id="Rectangle 188" width="58" height="59" fill="white"/>
<g id="Group">
<path id="Vector" d="M27.936 46.9999C27.3133 46.9123 26.6887 46.8422 26.0698 46.7351C19.3148 45.567 13.8127 40.1312 12.3837 33.2256C10.6992 25.0797 14.6776 16.965 22.0365 13.5385C31.9486 8.92428 43.6379 15.1446 45.6745 26.1233C45.8051 26.8261 45.8599 27.5425 45.9527 28.2512C45.9603 28.3057 45.983 28.3602 46 28.4128V30.5992C45.9811 30.6868 45.9565 30.7744 45.9451 30.864C45.8297 31.6739 45.7558 32.4916 45.595 33.2918C44.2303 40.0748 38.5957 45.6215 31.9599 46.7293C31.3296 46.8344 30.6937 46.9104 30.0596 46.9999H27.9341H27.936ZM44.7451 26.7424C44.0146 21.6317 40.2405 15.8786 33.7712 13.7915C27.6162 11.8057 21.4989 14.0018 18.0694 17.5452C19.292 18.799 20.5128 20.0547 21.7336 21.3086C22.1595 21.7466 22.1538 21.9355 21.7393 22.393C19.5816 24.7799 18.6656 27.6048 19.0574 30.8289C19.7444 36.4652 24.7847 40.4525 30.2603 39.7438C35.8305 39.0235 39.7484 33.685 38.9061 27.9592C37.8462 20.7439 29.9858 16.9085 23.8837 20.6291C23.7607 20.705 23.6396 20.7848 23.5185 20.8647C23.1437 21.1119 22.8541 21.0905 22.68 20.8043C22.5115 20.5278 22.6081 20.2553 22.962 20.0139C23.0642 19.9438 23.1664 19.8776 23.2705 19.8114C24.8415 18.8301 26.5487 18.2889 28.3808 18.176C32.8154 17.9034 37.0721 20.4967 38.9459 24.6397C39.3112 25.4457 39.5591 26.3082 39.8657 27.159C40.4695 26.4873 41.2228 26.0317 42.1578 25.9402C43.1042 25.8468 43.9483 26.1155 44.7451 26.7385V26.7424ZM18.0902 41.5272C18.0902 41.5272 18.0996 41.5466 18.1148 41.5622C18.1621 41.6089 18.2113 41.6557 18.2605 41.7004C22.1746 45.2205 26.702 46.595 31.8312 45.7013C39.3453 44.393 45.0025 37.4504 45.0044 29.6043C45.0044 28.1052 43.9464 26.9643 42.5382 26.9487C41.1358 26.9312 40.0645 28.0565 40.0153 29.5537C39.9926 30.2215 39.9396 30.8971 39.8279 31.5551C38.5503 39.0273 30.3814 43.1217 23.8856 39.5374C23.0642 39.0838 22.3166 38.4919 21.5444 37.9721C20.4182 39.1305 19.2542 40.3259 18.0883 41.5252L18.0902 41.5272ZM20.8327 37.1272C18.9665 34.9486 17.9785 32.4157 17.9785 29.505C17.9785 26.5866 18.9646 24.042 20.8005 21.914C19.6157 20.6953 18.4555 19.5018 17.2971 18.3084C11.1856 24.9609 11.9256 35.1141 17.3388 40.7212C18.4952 39.5316 19.6517 38.342 20.8327 37.1272Z" fill="#A07B0A"/>
<path id="Vector_2" d="M33.3302 34.8786C33.3264 35.379 32.9611 35.5892 32.5333 35.3634C31.4526 34.793 30.3738 34.2186 29.3006 33.6287C29.0811 33.508 28.9145 33.5119 28.6949 33.6326C27.6729 34.1953 26.6395 34.7365 25.6098 35.2875C25.3714 35.416 25.131 35.5581 24.8679 35.3653C24.5878 35.1609 24.6616 34.865 24.7051 34.5846C24.8944 33.3951 25.0837 32.2055 25.2862 31.0199C25.324 30.8018 25.2673 30.6655 25.1177 30.5156C24.2679 29.6687 23.4294 28.8082 22.5853 27.9554C22.3979 27.7666 22.2124 27.5777 22.3052 27.2779C22.3979 26.982 22.6459 26.9314 22.9108 26.8924C24.0711 26.7211 25.2275 26.5322 26.3858 26.3609C26.6224 26.3259 26.7701 26.2383 26.8836 25.9988C27.3965 24.9027 27.936 23.8202 28.4621 22.7319C28.5738 22.5002 28.6931 22.2802 28.9826 22.2705C29.2893 22.2627 29.418 22.4885 29.5353 22.7319C30.0558 23.8105 30.5933 24.8813 31.0987 25.9676C31.2217 26.2305 31.3845 26.3239 31.6457 26.3629C32.8154 26.5342 33.9851 26.725 35.1547 26.9002C35.4027 26.9372 35.6109 27.019 35.6923 27.2818C35.7737 27.5466 35.6336 27.7354 35.4576 27.9126C34.5888 28.7887 33.7182 29.6648 32.8627 30.5545C32.768 30.6538 32.6999 30.8524 32.7207 30.9887C32.8968 32.1802 33.0936 33.3678 33.2848 34.5574C33.3037 34.68 33.3188 34.8046 33.3302 34.8825V34.8786ZM34.0475 27.7783C34.0343 27.7744 33.9832 27.751 33.9321 27.7432C32.9914 27.5991 32.0526 27.4492 31.1119 27.3168C30.7807 27.2701 30.5441 27.1436 30.3946 26.8087C30.0747 26.0981 29.7208 25.4011 29.3801 24.7002C29.2646 24.4627 29.1435 24.2271 29.0035 23.9448C28.9183 24.1083 28.8596 24.2135 28.8066 24.3225C28.3959 25.1655 27.9814 26.0066 27.5801 26.8554C27.4571 27.1163 27.2773 27.2584 27.001 27.2954C26.4975 27.3655 25.9959 27.4473 25.4925 27.5252C24.9644 27.6069 24.4364 27.6906 23.931 27.7705C24.5367 28.4188 25.0874 29.0963 25.7272 29.6668C26.2742 30.1554 26.4218 30.6538 26.2515 31.3684C26.0489 32.223 25.9581 33.105 25.8124 34.02C26.7587 33.5158 27.6691 33.0505 28.5587 32.5482C28.8804 32.3671 29.1473 32.3671 29.4539 32.556C29.7757 32.7545 30.1183 32.9161 30.4514 33.0953C31.0154 33.3951 31.5813 33.6949 32.187 34.0161C32.0166 32.9551 31.8709 31.9446 31.6854 30.942C31.6116 30.539 31.7025 30.2586 31.9864 29.9724C32.6867 29.2637 33.3548 28.52 34.0475 27.7763V27.7783Z" fill="#A07B0A"/>
<path id="Vector_3" d="M29.4899 15.6019C29.4899 15.8881 29.257 16.1218 28.9826 16.112C28.7195 16.1023 28.5094 15.8745 28.5094 15.6019C28.5094 15.3157 28.7403 15.0821 29.0167 15.0918C29.2798 15.1016 29.4917 15.3294 29.4899 15.6019Z" fill="#A07B0A"/>
<path id="Vector_4" d="M38.5541 20.1833C38.2777 20.1833 38.0525 19.9399 38.0601 19.6576C38.0695 19.3831 38.2834 19.1729 38.5541 19.1729C38.8417 19.1729 39.0499 19.3948 39.0405 19.6927C39.0329 19.9691 38.819 20.1833 38.5522 20.1833H38.5541Z" fill="#A07B0A"/>
<path id="Vector_5" d="M34.161 16.1573C34.4336 16.1534 34.6456 16.3559 34.6588 16.6362C34.6721 16.9322 34.4658 17.1599 34.18 17.1658C33.8998 17.1697 33.6708 16.938 33.6765 16.6557C33.6803 16.3851 33.8979 16.1631 34.1629 16.1592L34.161 16.1573Z" fill="#A07B0A"/>
<path id="Vector_6" d="M41.9742 24.1762C41.9799 24.4644 41.7547 24.6999 41.4784 24.6941C41.2134 24.6902 41.0014 24.4702 40.9957 24.1957C40.99 23.9017 41.2039 23.6798 41.4916 23.6836C41.766 23.6875 41.9686 23.8939 41.9742 24.1762Z" fill="#A07B0A"/>
<path id="Vector_7" d="M42.5194 27.9768C43.3503 27.9807 44.0127 28.6699 44.007 29.5227C43.9995 30.3735 43.3219 31.0529 42.491 31.0393C41.6733 31.0257 41.0222 30.3501 41.0204 29.511C41.0204 28.6582 41.6885 27.9729 42.5194 27.9768ZM43.0096 29.5032C43.0077 29.217 42.7749 28.9951 42.4929 29.0067C42.226 29.0184 42.0159 29.2404 42.0197 29.5129C42.0216 29.7972 42.2544 30.023 42.5364 30.0113C42.8033 29.9997 43.0134 29.7758 43.0115 29.5032H43.0096Z" fill="#A07B0A"/>
<path id="Vector_8" d="M39.0424 39.339C39.0424 39.6213 38.8436 39.8316 38.5711 39.8413C38.2872 39.8491 38.0601 39.6271 38.062 39.339C38.062 39.0548 38.2985 38.8211 38.573 38.8309C38.8399 38.8406 39.0443 39.0606 39.0443 39.339H39.0424Z" fill="#A07B0A"/>
<path id="Vector_9" d="M29.488 43.4018C29.4937 43.6899 29.2666 43.9255 28.9902 43.9216C28.7271 43.9177 28.5133 43.6958 28.5076 43.4212C28.5019 43.1331 28.7271 42.8975 29.0054 42.9014C29.2684 42.9053 29.4842 43.1273 29.488 43.4018Z" fill="#A07B0A"/>
<path id="Vector_10" d="M41.4879 35.33C41.2134 35.33 41.0052 35.1275 40.9957 34.8472C40.9863 34.559 41.2058 34.3196 41.4822 34.3196C41.7585 34.3196 41.9818 34.5552 41.9743 34.8433C41.9667 35.1256 41.7623 35.33 41.4879 35.33Z" fill="#A07B0A"/>
<path id="Vector_11" d="M34.659 42.3621C34.6552 42.6444 34.4527 42.8527 34.1782 42.8566C33.8981 42.8605 33.671 42.6288 33.6748 42.3446C33.6804 42.0603 33.9151 41.8384 34.1953 41.8501C34.4678 41.8637 34.6628 42.0778 34.659 42.3621Z" fill="#A07B0A"/>
</g>
</g>
</svg>
