<svg width="127" height="60" viewBox="0 0 127 60" fill="none" xmlns="http://www.w3.org/2000/svg">
<rect width="127" height="60" rx="10" fill="#F2C94C"/>
<path d="M75.7273 29H50.2727C49.9352 29 49.6115 29.1054 49.3728 29.2929C49.1341 29.4804 49 29.7348 49 30C49 30.2652 49.1341 30.5196 49.3728 30.7071C49.6115 30.8946 49.9352 31 50.2727 31H75.7273C76.0648 31 76.3885 30.8946 76.6272 30.7071C76.8659 30.5196 77 30.2652 77 30C77 29.7348 76.8659 29.4804 76.6272 29.2929C76.3885 29.1054 76.0648 29 75.7273 29Z" fill="white"/>
<path d="M76.024 30L69.2399 37.4619C69.0863 37.6308 69 37.86 69 38.099C69 38.3379 69.0863 38.5671 69.2399 38.7361C69.3935 38.9051 69.6018 39 69.819 39C70.0362 39 70.2445 38.9051 70.3981 38.7361L77.7597 30.6371C77.8359 30.5535 77.8963 30.4542 77.9375 30.3449C77.9788 30.2356 78 30.1184 78 30C78 29.8816 77.9788 29.7644 77.9375 29.6551C77.8963 29.5458 77.8359 29.4465 77.7597 29.3629L70.3981 21.2639C70.2445 21.0949 70.0362 21 69.819 21C69.6018 21 69.3935 21.0949 69.2399 21.2639C69.0863 21.4329 69 21.6621 69 21.901C69 22.14 69.0863 22.3692 69.2399 22.5381L76.024 30Z" fill="white"/>
</svg>
