<svg width="335" height="117" viewBox="0 0 335 117" fill="none" xmlns="http://www.w3.org/2000/svg">
<g clip-path="url(#clip0_1_135)">
<rect width="335" height="117" rx="5" fill="#FDE2D2"/>
<path d="M339.331 59.2407C253.535 20.6728 193.431 43.1708 174.103 59.2407L168 100H463.579L539 29C508.192 55.1502 425.128 97.8086 339.331 59.2407Z" fill="#FFDECC"/>
<path d="M189.726 66.4815C91.2088 18.679 22.1931 46.5638 0 66.4815V117H332.397L419 29C383.624 61.4115 288.244 114.284 189.726 66.4815Z" fill="#FFEADC"/>
<path d="M30.5254 32.4478C30.3483 32.6691 30.0799 32.9154 29.7202 33.1865C29.3605 33.4521 28.8791 33.6818 28.2759 33.8755C27.6782 34.0692 26.9339 34.166 26.043 34.166C25.0247 34.166 24.1255 33.9391 23.3452 33.4854C22.5705 33.0316 21.9645 32.3703 21.5273 31.5015C21.0902 30.6326 20.8716 29.5868 20.8716 28.3638V27.5503C20.8716 26.3218 21.0736 25.2759 21.4775 24.4126C21.8815 23.5438 22.4543 22.8825 23.1958 22.4287C23.9429 21.9749 24.8311 21.748 25.8604 21.748C26.8564 21.748 27.681 21.9141 28.334 22.2461C28.9925 22.5781 29.4989 23.0374 29.853 23.624C30.2072 24.2051 30.4285 24.8747 30.5171 25.6328H28.417C28.3561 25.2122 28.2316 24.8415 28.0435 24.5205C27.8553 24.194 27.5869 23.9367 27.2383 23.7485C26.8896 23.5604 26.4442 23.4663 25.9019 23.4663C25.2655 23.4663 24.7342 23.6268 24.3081 23.9478C23.882 24.2632 23.5638 24.7253 23.3535 25.334C23.1432 25.9372 23.0381 26.6704 23.0381 27.5337V28.3638C23.0381 29.2381 23.1598 29.9797 23.4033 30.5884C23.6523 31.1916 24.0065 31.6536 24.4658 31.9746C24.9251 32.29 25.4785 32.4478 26.126 32.4478C26.5908 32.4478 26.9727 32.409 27.2715 32.3315C27.5703 32.2541 27.8055 32.16 27.9771 32.0493C28.1541 31.9386 28.2897 31.8335 28.3838 31.7339V29.3931H25.9102V27.7827H30.5254V32.4478ZM36.585 34.166C35.694 34.166 34.9248 33.9751 34.2773 33.5933C33.6299 33.2059 33.1318 32.6857 32.7832 32.0327C32.4346 31.3742 32.2603 30.6382 32.2603 29.8247V29.4844C32.2603 28.5492 32.4373 27.7357 32.7915 27.0439C33.1457 26.3467 33.6299 25.8071 34.2441 25.4253C34.8639 25.0435 35.564 24.8525 36.3442 24.8525C37.2075 24.8525 37.9242 25.0407 38.4941 25.417C39.0641 25.7878 39.4902 26.3052 39.7725 26.9692C40.0547 27.6278 40.1958 28.3914 40.1958 29.2603V30.1484H33.248V28.6626H38.1621V28.5049C38.151 28.1562 38.0846 27.8298 37.9629 27.5254C37.8411 27.221 37.6475 26.9748 37.3818 26.7866C37.1217 26.5985 36.7731 26.5044 36.3359 26.5044C35.8988 26.5044 35.5308 26.6289 35.2319 26.8779C34.9331 27.1214 34.7062 27.4673 34.5513 27.9155C34.3963 28.3582 34.3188 28.8812 34.3188 29.4844V29.8247C34.3188 30.3338 34.4129 30.7904 34.6011 31.1943C34.7892 31.5983 35.0632 31.9193 35.4229 32.1572C35.7826 32.3896 36.2114 32.5059 36.7095 32.5059C37.1909 32.5059 37.617 32.4118 37.9878 32.2236C38.3641 32.0355 38.6878 31.7643 38.959 31.4102L40.0381 32.4893C39.7559 32.9154 39.3298 33.3027 38.7598 33.6514C38.1953 33.9945 37.4704 34.166 36.585 34.166ZM45.8984 26.5376H40.8018V25.0186H45.8984V26.5376ZM44.3047 22.8188V31.4683C44.3047 31.745 44.3434 31.9552 44.4209 32.0991C44.4984 32.2375 44.609 32.3315 44.7529 32.3813C44.8968 32.4312 45.0628 32.4561 45.251 32.4561C45.3893 32.4561 45.5221 32.4478 45.6494 32.4312C45.7767 32.4146 45.8791 32.3979 45.9565 32.3813V33.9668C45.7905 34.0221 45.5968 34.0692 45.3755 34.1079C45.1597 34.1466 44.9051 34.166 44.6118 34.166C44.1525 34.166 43.743 34.083 43.3833 33.917C43.0291 33.751 42.7497 33.4826 42.5449 33.1118C42.3457 32.7355 42.2461 32.2375 42.2461 31.6177V22.8188H44.3047ZM59.877 31.3022H51.1445L51.0781 30.0405L56.2661 21.9141H57.918L56.1582 24.9937L53.2114 29.6504H59.877V31.3022ZM58.3828 34H56.3242V21.9141H58.3828V34ZM69.1157 28.9365C69.1157 30.1872 68.9525 31.1971 68.626 31.9663C68.2995 32.73 67.8402 33.2889 67.248 33.6431C66.6559 33.9917 65.9587 34.166 65.1562 34.166C64.3649 34.166 63.6676 33.9917 63.0645 33.6431C62.4668 33.2889 62.002 32.73 61.6699 31.9663C61.3379 31.1971 61.1719 30.1872 61.1719 28.9365V26.936C61.1719 25.6799 61.3351 24.6727 61.6616 23.9146C61.9937 23.1564 62.4585 22.6058 63.0562 22.2627C63.6538 21.9196 64.3483 21.748 65.1396 21.748C65.9421 21.748 66.6393 21.9196 67.2314 22.2627C67.8291 22.6058 68.2912 23.1564 68.6177 23.9146C68.9497 24.6727 69.1157 25.6799 69.1157 26.936V28.9365ZM67.0571 26.6289C67.0571 25.8376 66.9824 25.2067 66.833 24.7363C66.6891 24.266 66.4733 23.9284 66.1855 23.7236C65.9033 23.5133 65.5547 23.4082 65.1396 23.4082C64.7357 23.4082 64.3898 23.5133 64.1021 23.7236C63.8198 23.9284 63.604 24.266 63.4546 24.7363C63.3052 25.2067 63.2305 25.8376 63.2305 26.6289V29.2271C63.2305 30.0184 63.3052 30.6548 63.4546 31.1362C63.6095 31.6177 63.8309 31.9691 64.1187 32.1904C64.4064 32.4062 64.7523 32.5142 65.1562 32.5142C65.5713 32.5142 65.9199 32.4062 66.2021 32.1904C66.4844 31.9691 66.6974 31.6177 66.8413 31.1362C66.9852 30.6548 67.0571 30.0184 67.0571 29.2271V26.6289ZM70.8091 24.2383C70.8091 23.779 70.9087 23.3612 71.1079 22.9849C71.3127 22.6086 71.606 22.307 71.9878 22.0801C72.3696 21.8532 72.8317 21.7397 73.374 21.7397C73.9274 21.7397 74.395 21.8532 74.7769 22.0801C75.1587 22.307 75.4492 22.6086 75.6484 22.9849C75.8477 23.3612 75.9473 23.779 75.9473 24.2383V24.8774C75.9473 25.3257 75.8477 25.738 75.6484 26.1143C75.4492 26.4906 75.1587 26.7922 74.7769 27.019C74.4006 27.2459 73.9385 27.3594 73.3906 27.3594C72.8428 27.3594 72.3752 27.2459 71.9878 27.019C71.606 26.7922 71.3127 26.4906 71.1079 26.1143C70.9087 25.738 70.8091 25.3257 70.8091 24.8774V24.2383ZM72.2368 24.8774C72.2368 25.0933 72.2783 25.298 72.3613 25.4917C72.4443 25.6799 72.5716 25.8348 72.7432 25.9565C72.9147 26.0728 73.1305 26.1309 73.3906 26.1309C73.6507 26.1309 73.8638 26.0728 74.0298 25.9565C74.1958 25.8348 74.3175 25.6799 74.395 25.4917C74.478 25.298 74.5195 25.0933 74.5195 24.8774V24.2383C74.5195 24.0169 74.478 23.8094 74.395 23.6157C74.312 23.422 74.1847 23.2671 74.0132 23.1509C73.8472 23.0291 73.6341 22.9683 73.374 22.9683C73.1195 22.9683 72.9064 23.0291 72.7349 23.1509C72.5688 23.2671 72.4443 23.422 72.3613 23.6157C72.2783 23.8094 72.2368 24.0169 72.2368 24.2383V24.8774ZM76.6279 31.0366C76.6279 30.5828 76.7275 30.1678 76.9268 29.7915C77.1315 29.4152 77.4248 29.1136 77.8066 28.8867C78.1885 28.6598 78.6506 28.5464 79.1929 28.5464C79.7518 28.5464 80.2194 28.6598 80.5957 28.8867C80.9775 29.1136 81.2681 29.4152 81.4673 29.7915C81.6665 30.1678 81.7661 30.5828 81.7661 31.0366V31.6841C81.7661 32.1379 81.6665 32.5529 81.4673 32.9292C81.2736 33.3055 80.9858 33.6071 80.604 33.834C80.2277 34.0609 79.7629 34.1743 79.2095 34.1743C78.6616 34.1743 78.194 34.0609 77.8066 33.834C77.4248 33.6071 77.1315 33.3055 76.9268 32.9292C76.7275 32.5529 76.6279 32.1379 76.6279 31.6841V31.0366ZM78.0474 31.6841C78.0474 31.8999 78.0916 32.1047 78.1802 32.2983C78.2743 32.492 78.4071 32.647 78.5786 32.7632C78.7557 32.8794 78.966 32.9375 79.2095 32.9375C79.4917 32.9375 79.7131 32.8794 79.8735 32.7632C80.0396 32.647 80.1585 32.4948 80.2305 32.3066C80.3079 32.113 80.3467 31.9054 80.3467 31.6841V31.0366C80.3467 30.7046 80.2498 30.4113 80.0562 30.1567C79.868 29.9022 79.5802 29.7749 79.1929 29.7749C78.811 29.7749 78.5233 29.9022 78.3296 30.1567C78.1414 30.4113 78.0474 30.7046 78.0474 31.0366V31.6841ZM73.8057 33.0869L72.7598 32.4893L78.6616 23.043L79.7075 23.6406L73.8057 33.0869ZM87.3774 29.4263C87.3774 28.5519 87.5435 27.7716 87.8755 27.0854C88.2075 26.3993 88.6834 25.8569 89.3032 25.4585C89.9285 25.0545 90.6784 24.8525 91.5527 24.8525C92.4382 24.8525 93.1935 25.0545 93.8188 25.4585C94.4442 25.8569 94.9201 26.3993 95.2466 27.0854C95.5786 27.7716 95.7446 28.5519 95.7446 29.4263V29.6006C95.7446 30.4694 95.5786 31.2497 95.2466 31.9414C94.9201 32.6276 94.4442 33.1699 93.8188 33.5684C93.1991 33.9668 92.4492 34.166 91.5693 34.166C90.6895 34.166 89.9368 33.9668 89.3115 33.5684C88.6862 33.1699 88.2075 32.6276 87.8755 31.9414C87.5435 31.2497 87.3774 30.4694 87.3774 29.6006V29.4263ZM89.436 29.6006C89.436 30.1318 89.5107 30.6188 89.6602 31.0615C89.8096 31.4987 90.0392 31.8501 90.3491 32.1157C90.6646 32.3813 91.0713 32.5142 91.5693 32.5142C92.0618 32.5142 92.4631 32.3813 92.7729 32.1157C93.0884 31.8501 93.318 31.4987 93.4619 31.0615C93.6113 30.6188 93.686 30.1318 93.686 29.6006V29.4263C93.686 28.9006 93.6113 28.4163 93.4619 27.9736C93.318 27.5309 93.0884 27.1768 92.7729 26.9111C92.4575 26.64 92.0508 26.5044 91.5527 26.5044C91.0602 26.5044 90.6562 26.64 90.3408 26.9111C90.0309 27.1768 89.8013 27.5309 89.6519 27.9736C89.508 28.4163 89.436 28.9006 89.436 29.4263V29.6006ZM99.4551 34H97.3965V25.0186H99.3306L99.4551 26.936V34ZM98.4258 29.1938C98.4313 28.325 98.5835 27.5669 98.8823 26.9194C99.1812 26.2664 99.599 25.7601 100.136 25.4004C100.673 25.0352 101.298 24.8525 102.012 24.8525C102.593 24.8525 103.096 24.9632 103.522 25.1846C103.949 25.4004 104.281 25.7546 104.519 26.2471C104.757 26.734 104.875 27.3898 104.875 28.2144V34H102.809V28.1978C102.809 27.7827 102.748 27.4535 102.626 27.21C102.51 26.9665 102.333 26.7949 102.095 26.6953C101.862 26.5902 101.577 26.5376 101.24 26.5376C100.897 26.5376 100.592 26.6068 100.327 26.7451C100.067 26.8779 99.8424 27.0661 99.6543 27.3096C99.4717 27.5531 99.3306 27.8353 99.231 28.1562C99.1369 28.4772 99.0898 28.8203 99.0898 29.1855L98.4258 29.1938ZM120.581 30.0488C120.514 30.8402 120.29 31.5485 119.908 32.1738C119.532 32.7936 119.003 33.2806 118.323 33.6348C117.642 33.9889 116.809 34.166 115.824 34.166C114.828 34.166 113.962 33.9336 113.226 33.4688C112.496 32.9984 111.931 32.3343 111.533 31.4766C111.14 30.6188 110.943 29.6061 110.943 28.4385V27.4839C110.943 26.3107 111.145 25.298 111.549 24.4458C111.953 23.5881 112.526 22.924 113.268 22.4536C114.015 21.9832 114.895 21.748 115.907 21.748C116.876 21.748 117.692 21.9279 118.356 22.2876C119.026 22.6418 119.543 23.1343 119.908 23.7651C120.279 24.3905 120.503 25.1099 120.581 25.9233H118.447C118.364 25.1541 118.135 24.5565 117.758 24.1304C117.388 23.7043 116.771 23.4912 115.907 23.4912C115.282 23.4912 114.762 23.6462 114.347 23.9561C113.937 24.2604 113.627 24.7087 113.417 25.3008C113.207 25.8874 113.102 26.6095 113.102 27.4673V28.4385C113.102 29.2575 113.196 29.9658 113.384 30.5635C113.572 31.1556 113.865 31.6149 114.264 31.9414C114.662 32.2624 115.182 32.4229 115.824 32.4229C116.411 32.4229 116.884 32.3315 117.244 32.1489C117.609 31.9663 117.886 31.7007 118.074 31.3521C118.262 30.9979 118.384 30.5635 118.439 30.0488H120.581ZM124.432 34H122.374V21.25H124.432V34ZM130.583 34.166C129.692 34.166 128.923 33.9751 128.275 33.5933C127.628 33.2059 127.13 32.6857 126.781 32.0327C126.433 31.3742 126.258 30.6382 126.258 29.8247V29.4844C126.258 28.5492 126.435 27.7357 126.79 27.0439C127.144 26.3467 127.628 25.8071 128.242 25.4253C128.862 25.0435 129.562 24.8525 130.342 24.8525C131.206 24.8525 131.922 25.0407 132.492 25.417C133.062 25.7878 133.488 26.3052 133.771 26.9692C134.053 27.6278 134.194 28.3914 134.194 29.2603V30.1484H127.246V28.6626H132.16V28.5049C132.149 28.1562 132.083 27.8298 131.961 27.5254C131.839 27.221 131.646 26.9748 131.38 26.7866C131.12 26.5985 130.771 26.5044 130.334 26.5044C129.897 26.5044 129.529 26.6289 129.23 26.8779C128.931 27.1214 128.704 27.4673 128.549 27.9155C128.394 28.3582 128.317 28.8812 128.317 29.4844V29.8247C128.317 30.3338 128.411 30.7904 128.599 31.1943C128.787 31.5983 129.061 31.9193 129.421 32.1572C129.781 32.3896 130.209 32.5059 130.708 32.5059C131.189 32.5059 131.615 32.4118 131.986 32.2236C132.362 32.0355 132.686 31.7643 132.957 31.4102L134.036 32.4893C133.754 32.9154 133.328 33.3027 132.758 33.6514C132.193 33.9945 131.468 34.166 130.583 34.166ZM140.776 27.9321C140.776 27.4673 140.646 27.0965 140.386 26.8198C140.132 26.5431 139.744 26.4048 139.224 26.4048C138.914 26.4048 138.643 26.4601 138.411 26.5708C138.178 26.6759 137.998 26.8198 137.871 27.0024C137.744 27.1851 137.68 27.3926 137.68 27.625H135.622C135.622 27.1436 135.774 26.6925 136.078 26.272C136.382 25.8459 136.811 25.5028 137.365 25.2427C137.924 24.9826 138.582 24.8525 139.34 24.8525C140.015 24.8525 140.616 24.966 141.142 25.1929C141.667 25.4198 142.08 25.7629 142.378 26.2222C142.683 26.6815 142.835 27.257 142.835 27.9487V31.9082C142.835 32.3288 142.865 32.6995 142.926 33.0205C142.987 33.3415 143.073 33.6209 143.184 33.8589V34H141.075C140.981 33.7842 140.906 33.5047 140.851 33.1616C140.801 32.8185 140.776 32.4837 140.776 32.1572V27.9321ZM141.092 29.7998H139.681C138.95 29.7998 138.4 29.9354 138.029 30.2065C137.664 30.4722 137.481 30.8346 137.481 31.2939C137.481 31.6481 137.603 31.9442 137.846 32.1821C138.09 32.4146 138.433 32.5308 138.875 32.5308C139.279 32.5308 139.631 32.4505 139.93 32.29C140.234 32.124 140.472 31.922 140.644 31.6841C140.815 31.4406 140.904 31.2137 140.909 31.0034L141.565 31.9248C141.499 32.1517 141.385 32.3952 141.225 32.6553C141.07 32.9098 140.862 33.1533 140.602 33.3857C140.347 33.6126 140.043 33.8008 139.689 33.9502C139.34 34.0941 138.934 34.166 138.469 34.166C137.882 34.166 137.359 34.0498 136.9 33.8174C136.441 33.585 136.078 33.2668 135.812 32.8628C135.552 32.4533 135.422 31.994 135.422 31.4849C135.422 30.533 135.779 29.8026 136.493 29.2935C137.207 28.7843 138.22 28.5298 139.531 28.5298H141.075L141.092 29.7998ZM146.952 34H144.894V25.0186H146.828L146.952 26.936V34ZM145.923 29.1938C145.928 28.325 146.081 27.5669 146.379 26.9194C146.678 26.2664 147.096 25.7601 147.633 25.4004C148.17 25.0352 148.795 24.8525 149.509 24.8525C150.09 24.8525 150.593 24.9632 151.02 25.1846C151.446 25.4004 151.778 25.7546 152.016 26.2471C152.254 26.734 152.373 27.3898 152.373 28.2144V34H150.306V28.1978C150.306 27.7827 150.245 27.4535 150.123 27.21C150.007 26.9665 149.83 26.7949 149.592 26.6953C149.359 26.5902 149.074 26.5376 148.737 26.5376C148.394 26.5376 148.089 26.6068 147.824 26.7451C147.564 26.8779 147.34 27.0661 147.151 27.3096C146.969 27.5531 146.828 27.8353 146.728 28.1562C146.634 28.4772 146.587 28.8203 146.587 29.1855L145.923 29.1938ZM156.589 34H154.531V25.0186H156.589V34ZM154.398 22.6694C154.398 22.354 154.5 22.0939 154.705 21.8892C154.91 21.6789 155.195 21.5737 155.56 21.5737C155.925 21.5737 156.213 21.6789 156.423 21.8892C156.634 22.0939 156.739 22.354 156.739 22.6694C156.739 22.9793 156.634 23.2394 156.423 23.4497C156.213 23.6545 155.925 23.7568 155.56 23.7568C155.195 23.7568 154.91 23.6545 154.705 23.4497C154.5 23.2394 154.398 22.9793 154.398 22.6694ZM160.798 34H158.739V25.0186H160.673L160.798 26.936V34ZM159.769 29.1938C159.774 28.325 159.926 27.5669 160.225 26.9194C160.524 26.2664 160.942 25.7601 161.479 25.4004C162.015 25.0352 162.641 24.8525 163.354 24.8525C163.936 24.8525 164.439 24.9632 164.865 25.1846C165.291 25.4004 165.623 25.7546 165.861 26.2471C166.099 26.734 166.218 27.3898 166.218 28.2144V34H164.151V28.1978C164.151 27.7827 164.09 27.4535 163.969 27.21C163.853 26.9665 163.675 26.7949 163.438 26.6953C163.205 26.5902 162.92 26.5376 162.583 26.5376C162.239 26.5376 161.935 26.6068 161.669 26.7451C161.409 26.8779 161.185 27.0661 160.997 27.3096C160.814 27.5531 160.673 27.8353 160.574 28.1562C160.48 28.4772 160.433 28.8203 160.433 29.1855L159.769 29.1938ZM175.855 25.0186V33.7427C175.855 34.5506 175.681 35.2368 175.333 35.8013C174.984 36.3713 174.5 36.8029 173.88 37.0962C173.266 37.3895 172.552 37.5361 171.738 37.5361C171.395 37.5361 171.013 37.4863 170.593 37.3867C170.178 37.2926 169.774 37.1377 169.381 36.9219C168.988 36.7061 168.659 36.4238 168.393 36.0752L169.356 34.8301C169.677 35.2008 170.028 35.4748 170.41 35.6519C170.798 35.8345 171.204 35.9258 171.63 35.9258C172.3 35.9258 172.826 35.7404 173.208 35.3696C173.595 34.9989 173.789 34.4676 173.789 33.7759V27.0605L173.979 25.0186H175.855ZM167.887 29.4346C167.887 28.527 168.031 27.7301 168.318 27.0439C168.612 26.3522 169.027 25.8154 169.563 25.4336C170.106 25.0462 170.748 24.8525 171.489 24.8525C172.076 24.8525 172.577 24.9604 172.992 25.1763C173.407 25.3866 173.75 25.6909 174.021 26.0894C174.298 26.4823 174.514 26.9526 174.668 27.5005C174.829 28.0428 174.948 28.6432 175.025 29.3018V29.7832C174.926 30.6354 174.74 31.3908 174.469 32.0493C174.198 32.7078 173.816 33.2253 173.324 33.6016C172.837 33.9779 172.22 34.166 171.473 34.166C170.742 34.166 170.109 33.9696 169.572 33.5767C169.035 33.1782 168.62 32.6359 168.327 31.9497C168.033 31.2635 167.887 30.4832 167.887 29.6089V29.4346ZM169.945 29.6089C169.945 30.1401 170.017 30.6243 170.161 31.0615C170.305 31.4932 170.526 31.839 170.825 32.0991C171.13 32.3537 171.52 32.481 171.996 32.481C172.46 32.481 172.84 32.3841 173.133 32.1904C173.426 31.9912 173.653 31.7228 173.813 31.3853C173.979 31.0477 174.093 30.6686 174.154 30.248V28.8452C174.121 28.5132 174.054 28.2061 173.955 27.9238C173.861 27.6416 173.725 27.3981 173.548 27.1934C173.376 26.9886 173.163 26.8281 172.909 26.7119C172.654 26.5957 172.355 26.5376 172.012 26.5376C171.536 26.5376 171.146 26.6676 170.842 26.9277C170.537 27.1823 170.311 27.5309 170.161 27.9736C170.017 28.4108 169.945 28.8978 169.945 29.4346V29.6089Z" fill="#464646"/>
<path d="M27.8774 53.0674C27.814 53.6471 27.6468 54.1698 27.376 54.6353C27.1051 55.0965 26.7222 55.4604 26.2271 55.7271C25.7319 55.9937 25.112 56.127 24.3672 56.127C23.6436 56.127 23.0109 55.9513 22.4692 55.6001C21.9276 55.2446 21.5065 54.7453 21.2061 54.1021C20.9056 53.4588 20.7554 52.7077 20.7554 51.8486V50.9155C20.7554 50.0522 20.9056 49.3011 21.2061 48.6621C21.5107 48.0189 21.9424 47.5195 22.501 47.1641C23.0596 46.8086 23.7197 46.6309 24.4814 46.6309C25.1797 46.6309 25.77 46.762 26.2524 47.0244C26.7349 47.2826 27.1094 47.6444 27.376 48.1099C27.6468 48.5754 27.814 49.1128 27.8774 49.7222H26.646C26.5529 49.0747 26.3455 48.5648 26.0239 48.1924C25.7065 47.8158 25.1924 47.6274 24.4814 47.6274C23.9355 47.6274 23.4785 47.765 23.1104 48.04C22.7422 48.3109 22.4629 48.6917 22.2725 49.1826C22.0863 49.6735 21.9932 50.2469 21.9932 50.9028V51.8486C21.9932 52.4538 22.0778 53.006 22.2471 53.5054C22.4163 54.0005 22.6745 54.3962 23.0215 54.6924C23.3727 54.9886 23.8213 55.1367 24.3672 55.1367C24.8877 55.1367 25.3003 55.0542 25.605 54.8892C25.9139 54.7241 26.1466 54.4871 26.3032 54.1782C26.464 53.8693 26.5783 53.499 26.646 53.0674H27.8774ZM36.6562 51.6772C36.6562 52.5998 36.5039 53.3932 36.1992 54.0576C35.8945 54.722 35.465 55.234 34.9106 55.5938C34.3563 55.9492 33.7025 56.127 32.9492 56.127C32.2214 56.127 31.576 55.9492 31.0132 55.5938C30.4504 55.234 30.0103 54.722 29.6929 54.0576C29.3755 53.3932 29.2168 52.5998 29.2168 51.6772V51.0869C29.2168 50.1644 29.3734 49.3709 29.6865 48.7065C30.0039 48.0379 30.4419 47.5259 31.0005 47.1704C31.5633 46.8107 32.2087 46.6309 32.9365 46.6309C33.6898 46.6309 34.3436 46.8107 34.8979 47.1704C35.4565 47.5259 35.8882 48.0379 36.1929 48.7065C36.5018 49.3709 36.6562 50.1644 36.6562 51.0869V51.6772ZM35.4375 51.0742C35.4375 50.3379 35.3381 49.7179 35.1392 49.2144C34.9403 48.7065 34.6546 48.3215 34.2822 48.0591C33.9098 47.7967 33.4613 47.6655 32.9365 47.6655C32.4329 47.6655 31.9928 47.7967 31.6162 48.0591C31.2438 48.3215 30.9539 48.7065 30.7466 49.2144C30.5435 49.7179 30.4419 50.3379 30.4419 51.0742V51.6772C30.4419 52.4178 30.5456 53.042 30.7529 53.5498C30.9603 54.0576 31.2523 54.4427 31.6289 54.7051C32.0055 54.9674 32.4456 55.0986 32.9492 55.0986C33.4782 55.0986 33.9268 54.9674 34.2949 54.7051C34.6673 54.4427 34.9508 54.0576 35.1455 53.5498C35.3402 53.042 35.4375 52.4178 35.4375 51.6772V51.0742ZM39.062 56L39.0747 55.0098H40.9917C41.6476 55.0098 42.1956 54.8722 42.6357 54.5972C43.0758 54.3179 43.4059 53.9285 43.626 53.4292C43.8503 52.9256 43.9624 52.3353 43.9624 51.6582V51.0869C43.9624 50.3802 43.8503 49.7793 43.626 49.2842C43.4059 48.7891 43.0822 48.4103 42.6548 48.1479C42.2274 47.8856 41.709 47.7544 41.0996 47.7544H39.0239V46.7578H41.0996C41.9121 46.7578 42.623 46.9355 43.2324 47.291C43.846 47.6423 44.3242 48.1437 44.667 48.7954C45.0098 49.4429 45.1812 50.2109 45.1812 51.0996V51.6582C45.1812 52.5511 45.0098 53.3213 44.667 53.9688C44.3242 54.6162 43.8397 55.1177 43.2134 55.4731C42.5871 55.8244 41.8465 56 40.9917 56H39.062ZM39.7222 56H38.4907V46.7578H39.7222V56ZM52.8936 56H48.0122V55.0098H52.8936V56ZM48.2534 56H47.022V46.7578H48.2534V56ZM52.2461 51.7217H48.0122V50.7314H52.2461V51.7217ZM52.8301 47.7544H48.0122V46.7578H52.8301V47.7544ZM54.1821 55.3843C54.1821 55.1854 54.2435 55.0182 54.3662 54.8828C54.4932 54.7432 54.6751 54.6733 54.9121 54.6733C55.1533 54.6733 55.3353 54.7432 55.458 54.8828C55.585 55.0182 55.6484 55.1854 55.6484 55.3843C55.6484 55.5789 55.585 55.7419 55.458 55.873C55.3353 56.0042 55.1533 56.0698 54.9121 56.0698C54.6751 56.0698 54.4932 56.0042 54.3662 55.873C54.2435 55.7419 54.1821 55.5789 54.1821 55.3843ZM54.1885 49.7729C54.1885 49.5741 54.2498 49.4069 54.3726 49.2715C54.4995 49.1318 54.6815 49.062 54.9185 49.062C55.1597 49.062 55.3416 49.1318 55.4644 49.2715C55.5913 49.4069 55.6548 49.5741 55.6548 49.7729C55.6548 49.9676 55.5913 50.1305 55.4644 50.2617C55.3416 50.3929 55.1597 50.4585 54.9185 50.4585C54.6815 50.4585 54.4995 50.3929 54.3726 50.2617C54.2498 50.1305 54.1885 49.9676 54.1885 49.7729ZM67.6011 53.0674C67.5376 53.6471 67.3704 54.1698 67.0996 54.6353C66.8288 55.0965 66.4458 55.4604 65.9507 55.7271C65.4556 55.9937 64.8356 56.127 64.0908 56.127C63.3672 56.127 62.7345 55.9513 62.1929 55.6001C61.6512 55.2446 61.2301 54.7453 60.9297 54.1021C60.6292 53.4588 60.479 52.7077 60.479 51.8486V50.9155C60.479 50.0522 60.6292 49.3011 60.9297 48.6621C61.2344 48.0189 61.666 47.5195 62.2246 47.1641C62.7832 46.8086 63.4434 46.6309 64.2051 46.6309C64.9033 46.6309 65.4937 46.762 65.9761 47.0244C66.4585 47.2826 66.833 47.6444 67.0996 48.1099C67.3704 48.5754 67.5376 49.1128 67.6011 49.7222H66.3696C66.2765 49.0747 66.0692 48.5648 65.7476 48.1924C65.4302 47.8158 64.916 47.6274 64.2051 47.6274C63.6592 47.6274 63.2021 47.765 62.834 48.04C62.4658 48.3109 62.1865 48.6917 61.9961 49.1826C61.8099 49.6735 61.7168 50.2469 61.7168 50.9028V51.8486C61.7168 52.4538 61.8014 53.006 61.9707 53.5054C62.14 54.0005 62.3981 54.3962 62.7451 54.6924C63.0964 54.9886 63.5449 55.1367 64.0908 55.1367C64.6113 55.1367 65.0239 55.0542 65.3286 54.8892C65.6375 54.7241 65.8703 54.4871 66.0269 54.1782C66.1877 53.8693 66.3019 53.499 66.3696 53.0674H67.6011ZM74.8755 56H70.2544V55.0098H74.8755V56ZM70.4956 56H69.2642V46.7578H70.4956V56ZM83.3813 56H82.1436L77.5034 48.8525V56H76.272V46.7578H77.5034L82.1626 53.9243V46.7578H83.3813V56ZM88.9736 56H87.7549V46.7578H88.9736V56ZM91.938 47.7544H84.7969V46.7578H91.938V47.7544ZM96.8701 56H95.6831V48.1606L93.3218 49.0303V47.9702L96.686 46.707H96.8701V56ZM100.856 51.3599L101.326 46.7578H106.068V47.8306H102.329L102.056 50.3633C102.221 50.266 102.433 50.175 102.691 50.0903C102.953 50.0057 103.254 49.9634 103.592 49.9634C104.159 49.9634 104.648 50.0903 105.059 50.3442C105.469 50.5981 105.784 50.9557 106.004 51.417C106.229 51.8783 106.341 52.4242 106.341 53.0547C106.341 53.6429 106.233 54.1698 106.017 54.6353C105.806 55.0965 105.484 55.4604 105.052 55.7271C104.621 55.9937 104.075 56.127 103.415 56.127C103.042 56.127 102.689 56.0762 102.354 55.9746C102.024 55.8688 101.728 55.7101 101.466 55.4985C101.208 55.2827 100.996 55.0161 100.831 54.6987C100.666 54.3771 100.564 54.0005 100.526 53.5688H101.65C101.722 54.0936 101.91 54.4935 102.215 54.7686C102.52 55.0394 102.919 55.1748 103.415 55.1748C103.783 55.1748 104.096 55.0902 104.354 54.9209C104.616 54.7474 104.815 54.5041 104.951 54.1909C105.086 53.8735 105.154 53.499 105.154 53.0674C105.154 52.6781 105.082 52.3289 104.938 52.02C104.798 51.7111 104.591 51.4657 104.316 51.2837C104.045 51.1017 103.711 51.0107 103.313 51.0107C102.919 51.0107 102.623 51.0636 102.424 51.1694C102.225 51.271 102.02 51.4149 101.809 51.6011L100.856 51.3599ZM113.457 53.499C113.457 54.0618 113.325 54.54 113.063 54.9336C112.805 55.3229 112.454 55.6191 112.009 55.8223C111.569 56.0254 111.072 56.127 110.518 56.127C109.963 56.127 109.464 56.0254 109.02 55.8223C108.575 55.6191 108.224 55.3229 107.966 54.9336C107.708 54.54 107.579 54.0618 107.579 53.499C107.579 53.0124 107.703 52.5786 107.953 52.1978C108.203 51.8169 108.548 51.5186 108.988 51.3027C109.428 51.0827 109.934 50.9727 110.505 50.9727C111.072 50.9727 111.578 51.0827 112.022 51.3027C112.466 51.5186 112.815 51.8169 113.069 52.1978C113.327 52.5786 113.457 53.0124 113.457 53.499ZM112.27 53.4736C112.27 53.1309 112.195 52.8283 112.047 52.5659C111.899 52.2993 111.692 52.092 111.425 51.9438C111.163 51.7957 110.856 51.7217 110.505 51.7217C110.149 51.7217 109.84 51.7957 109.578 51.9438C109.32 52.092 109.119 52.2993 108.975 52.5659C108.835 52.8283 108.766 53.1309 108.766 53.4736C108.766 53.8291 108.835 54.1338 108.975 54.3877C109.119 54.6416 109.322 54.8363 109.584 54.9717C109.847 55.1071 110.158 55.1748 110.518 55.1748C110.882 55.1748 111.193 55.1071 111.451 54.9717C111.713 54.8363 111.914 54.6416 112.054 54.3877C112.198 54.1338 112.27 53.8291 112.27 53.4736ZM113.241 49.1636C113.241 49.6121 113.122 50.0163 112.885 50.376C112.648 50.7357 112.325 51.0192 111.914 51.2266C111.504 51.4339 111.038 51.5376 110.518 51.5376C109.989 51.5376 109.517 51.4339 109.102 51.2266C108.692 51.0192 108.37 50.7357 108.137 50.376C107.904 50.0163 107.788 49.6121 107.788 49.1636C107.788 48.6261 107.904 48.1691 108.137 47.7925C108.374 47.4159 108.698 47.1281 109.108 46.9292C109.523 46.7303 109.993 46.6309 110.518 46.6309C111.042 46.6309 111.51 46.7303 111.92 46.9292C112.331 47.1281 112.653 47.4159 112.885 47.7925C113.122 48.1691 113.241 48.6261 113.241 49.1636ZM112.054 49.1826C112.054 48.8737 111.988 48.6007 111.857 48.3638C111.73 48.1226 111.55 47.9321 111.317 47.7925C111.089 47.6528 110.822 47.583 110.518 47.583C110.209 47.583 109.938 47.6486 109.705 47.7798C109.477 47.911 109.297 48.0972 109.166 48.3384C109.039 48.5754 108.975 48.8568 108.975 49.1826C108.975 49.5 109.039 49.7772 109.166 50.0142C109.297 50.2511 109.477 50.4352 109.705 50.5664C109.938 50.6976 110.209 50.7632 110.518 50.7632C110.826 50.7632 111.095 50.6976 111.324 50.5664C111.552 50.4352 111.73 50.2511 111.857 50.0142C111.988 49.7772 112.054 49.5 112.054 49.1826Z" fill="#966C00"/>
<rect x="20" y="71" width="115" height="28" rx="5" fill="#A07B0A"/>
<path d="M53.751 84.4873L53.7402 83.4775H55.4697C55.903 83.4775 56.2378 83.3826 56.4741 83.1929C56.7104 83.0031 56.8286 82.7345 56.8286 82.3872C56.8286 82.0041 56.7158 81.7266 56.4902 81.5547C56.2682 81.3828 55.9227 81.2969 55.4536 81.2969H54.1699V88H52.7842V80.1797H55.4536C56.3166 80.1797 56.9915 80.3516 57.4785 80.6953C57.9691 81.0355 58.2144 81.569 58.2144 82.2959C58.2144 82.6182 58.1356 82.9136 57.978 83.1821C57.8241 83.4507 57.5949 83.6691 57.2905 83.8374C56.9862 84.0057 56.6066 84.1042 56.1519 84.1328L55.7329 84.4873H53.751ZM53.3105 88L53.939 86.8882H55.6738C56.1178 86.8882 56.4526 86.779 56.6782 86.5605C56.9038 86.3421 57.0166 86.0592 57.0166 85.7119C57.0166 85.4577 56.9718 85.2393 56.8823 85.0566C56.7928 84.874 56.6549 84.7344 56.4688 84.6377C56.2826 84.5374 56.0373 84.4873 55.7329 84.4873H54.2075L54.2183 83.4775H56.1948L56.5063 83.8643C56.9396 83.8714 57.2941 83.9627 57.5698 84.1382C57.8491 84.3136 58.0568 84.541 58.1929 84.8203C58.3289 85.096 58.397 85.395 58.397 85.7173C58.397 86.4657 58.1553 87.0332 57.6719 87.4199C57.1921 87.8066 56.526 88 55.6738 88H53.3105ZM59.3745 85.0405C59.3745 84.4748 59.4819 83.9699 59.6968 83.5259C59.9116 83.0819 60.2196 82.731 60.6206 82.4731C61.0252 82.2118 61.5104 82.0811 62.0762 82.0811C62.6491 82.0811 63.1379 82.2118 63.5425 82.4731C63.9471 82.731 64.255 83.0819 64.4663 83.5259C64.6812 83.9699 64.7886 84.4748 64.7886 85.0405V85.1533C64.7886 85.7155 64.6812 86.2204 64.4663 86.668C64.255 87.112 63.9471 87.4629 63.5425 87.7207C63.1414 87.9785 62.6562 88.1074 62.0869 88.1074C61.5176 88.1074 61.0306 87.9785 60.626 87.7207C60.2214 87.4629 59.9116 87.112 59.6968 86.668C59.4819 86.2204 59.3745 85.7155 59.3745 85.1533V85.0405ZM60.7065 85.1533C60.7065 85.4971 60.7549 85.8122 60.8516 86.0986C60.9482 86.3815 61.0968 86.6089 61.2974 86.7808C61.5015 86.9526 61.7646 87.0386 62.0869 87.0386C62.4056 87.0386 62.6652 86.9526 62.8657 86.7808C63.0698 86.6089 63.2184 86.3815 63.3115 86.0986C63.4082 85.8122 63.4565 85.4971 63.4565 85.1533V85.0405C63.4565 84.7004 63.4082 84.387 63.3115 84.1006C63.2184 83.8141 63.0698 83.585 62.8657 83.4131C62.6616 83.2376 62.3984 83.1499 62.0762 83.1499C61.7575 83.1499 61.4961 83.2376 61.292 83.4131C61.0915 83.585 60.9429 83.8141 60.8462 84.1006C60.7531 84.387 60.7065 84.7004 60.7065 85.0405V85.1533ZM65.6265 85.0405C65.6265 84.4748 65.7339 83.9699 65.9487 83.5259C66.1636 83.0819 66.4715 82.731 66.8726 82.4731C67.2772 82.2118 67.7624 82.0811 68.3281 82.0811C68.901 82.0811 69.3898 82.2118 69.7944 82.4731C70.1991 82.731 70.507 83.0819 70.7183 83.5259C70.9331 83.9699 71.0405 84.4748 71.0405 85.0405V85.1533C71.0405 85.7155 70.9331 86.2204 70.7183 86.668C70.507 87.112 70.1991 87.4629 69.7944 87.7207C69.3934 87.9785 68.9082 88.1074 68.3389 88.1074C67.7695 88.1074 67.2826 87.9785 66.8779 87.7207C66.4733 87.4629 66.1636 87.112 65.9487 86.668C65.7339 86.2204 65.6265 85.7155 65.6265 85.1533V85.0405ZM66.9585 85.1533C66.9585 85.4971 67.0068 85.8122 67.1035 86.0986C67.2002 86.3815 67.3488 86.6089 67.5493 86.7808C67.7534 86.9526 68.0166 87.0386 68.3389 87.0386C68.6576 87.0386 68.9172 86.9526 69.1177 86.7808C69.3218 86.6089 69.4704 86.3815 69.5635 86.0986C69.6602 85.8122 69.7085 85.4971 69.7085 85.1533V85.0405C69.7085 84.7004 69.6602 84.387 69.5635 84.1006C69.4704 83.8141 69.3218 83.585 69.1177 83.4131C68.9136 83.2376 68.6504 83.1499 68.3281 83.1499C68.0094 83.1499 67.748 83.2376 67.5439 83.4131C67.3434 83.585 67.1948 83.8141 67.0981 84.1006C67.005 84.387 66.9585 84.7004 66.9585 85.0405V85.1533ZM73.4629 88H72.1255V79.75H73.4629V88ZM74.5532 85.0029L73.1514 86.4263L72.7969 85.3145L73.855 83.9985L75.4609 82.1885H77.0669L74.5532 85.0029ZM73.8926 85.2876L74.7358 84.3638L77.2871 88H75.7402L73.8926 85.2876ZM86.9712 88H85.5801L82.1318 82.4893V88H80.7461V80.1797H82.1318L85.5908 85.7012V80.1797H86.9712V88ZM88.1851 85.0405C88.1851 84.4748 88.2925 83.9699 88.5073 83.5259C88.7222 83.0819 89.0301 82.731 89.4312 82.4731C89.8358 82.2118 90.321 82.0811 90.8867 82.0811C91.4596 82.0811 91.9484 82.2118 92.353 82.4731C92.7576 82.731 93.0656 83.0819 93.2769 83.5259C93.4917 83.9699 93.5991 84.4748 93.5991 85.0405V85.1533C93.5991 85.7155 93.4917 86.2204 93.2769 86.668C93.0656 87.112 92.7576 87.4629 92.353 87.7207C91.952 87.9785 91.4668 88.1074 90.8975 88.1074C90.3281 88.1074 89.8411 87.9785 89.4365 87.7207C89.0319 87.4629 88.7222 87.112 88.5073 86.668C88.2925 86.2204 88.1851 85.7155 88.1851 85.1533V85.0405ZM89.5171 85.1533C89.5171 85.4971 89.5654 85.8122 89.6621 86.0986C89.7588 86.3815 89.9074 86.6089 90.1079 86.7808C90.312 86.9526 90.5752 87.0386 90.8975 87.0386C91.2161 87.0386 91.4757 86.9526 91.6763 86.7808C91.8804 86.6089 92.029 86.3815 92.1221 86.0986C92.2188 85.8122 92.2671 85.4971 92.2671 85.1533V85.0405C92.2671 84.7004 92.2188 84.387 92.1221 84.1006C92.029 83.8141 91.8804 83.585 91.6763 83.4131C91.4722 83.2376 91.209 83.1499 90.8867 83.1499C90.568 83.1499 90.3066 83.2376 90.1025 83.4131C89.902 83.585 89.7534 83.8141 89.6567 84.1006C89.5636 84.387 89.5171 84.7004 89.5171 85.0405V85.1533ZM97.5952 82.1885H98.4438L98.2183 83.6064L96.8701 88H96.1182L96.2578 86.6733L97.5952 82.1885ZM96.5479 86.6895L96.6177 88H95.7744L94.2061 82.1885H95.5059L96.5479 86.6895ZM100.678 82.1885H101.973L100.41 88H99.5664L99.6738 86.6357L100.678 82.1885ZM99.9102 86.625L100.066 88H99.3086L97.9443 83.6011L97.7241 82.1885H98.5889L99.9102 86.625Z" fill="white"/>
<path d="M267.229 101.863C282.819 101.863 295.457 100.733 295.457 99.3394C295.457 97.9455 282.819 96.8154 267.229 96.8154C251.638 96.8154 239 97.9455 239 99.3394C239 100.733 251.638 101.863 267.229 101.863Z" fill="#F0CCB4"/>
<path d="M288.943 101.863C303.334 101.863 315 100.733 315 99.3394C315 97.9455 303.334 96.8154 288.943 96.8154C274.552 96.8154 262.886 97.9455 262.886 99.3394C262.886 100.733 274.552 101.863 288.943 101.863Z" fill="#F0CCB4"/>
<path d="M286.514 105.279C296.401 104.881 304.391 104.009 304.359 103.331C304.328 102.654 296.287 102.428 286.4 102.826C276.513 103.224 268.523 104.096 268.555 104.773C268.586 105.451 276.627 105.677 286.514 105.279Z" fill="#F0CCB4"/>
<path d="M287.907 41.1559L279.605 41.0198C278.066 40.9946 276.796 42.1347 276.769 43.5663L276.369 64.6261C276.342 66.0577 277.568 67.2387 279.108 67.2639L287.409 67.4C288.949 67.4253 290.219 66.2852 290.246 64.8536L290.645 43.7938C290.672 42.3622 289.446 41.1812 287.907 41.1559Z" fill="#EDA900"/>
<path d="M286.512 41.1308L278.211 40.9947C276.671 40.9694 275.401 42.1095 275.374 43.5411L274.975 64.601C274.948 66.0326 276.174 67.2136 277.713 67.2388L286.015 67.3749C287.554 67.4001 288.824 66.26 288.851 64.8284L289.251 43.7686C289.278 42.337 288.052 41.156 286.512 41.1308Z" fill="#FFEC00"/>
<path d="M283.855 41.0895L275.553 40.9534C274.014 40.9282 272.744 42.0683 272.717 43.4999L272.317 64.5597C272.29 65.9913 273.516 67.1723 275.056 67.1975L283.357 67.3336C284.897 67.3589 286.167 66.2188 286.194 64.7872L286.593 43.7273C286.62 42.2957 285.394 41.1147 283.855 41.0895Z" fill="url(#paint0_linear_1_135)"/>
<g style="mix-blend-mode:multiply">
<path d="M275.048 44.1166C275.465 44.1166 275.803 43.8021 275.803 43.4142C275.803 43.0262 275.465 42.7117 275.048 42.7117C274.631 42.7117 274.292 43.0262 274.292 43.4142C274.292 43.8021 274.631 44.1166 275.048 44.1166Z" fill="#FFEC00"/>
<path d="M279.385 48.5085C279.973 48.5085 280.449 48.0655 280.449 47.5191C280.449 46.9727 279.973 46.5298 279.385 46.5298C278.798 46.5298 278.321 46.9727 278.321 47.5191C278.321 48.0655 278.798 48.5085 279.385 48.5085Z" fill="#FFEC00"/>
<path d="M283.598 43.8425C284.186 43.8425 284.662 43.3995 284.662 42.8531C284.662 42.3067 284.186 41.8638 283.598 41.8638C283.01 41.8638 282.534 42.3067 282.534 42.8531C282.534 43.3995 283.01 43.8425 283.598 43.8425Z" fill="#FFEC00"/>
<path d="M278.766 42.8817C279.033 42.8817 279.249 42.6804 279.249 42.432C279.249 42.1836 279.033 41.9822 278.766 41.9822C278.499 41.9822 278.283 42.1836 278.283 42.432C278.283 42.6804 278.499 42.8817 278.766 42.8817Z" fill="#FFEC00"/>
<path d="M284.006 47.3236C284.273 47.3236 284.49 47.1223 284.49 46.8739C284.49 46.6254 284.273 46.4241 284.006 46.4241C283.739 46.4241 283.523 46.6254 283.523 46.8739C283.523 47.1223 283.739 47.3236 284.006 47.3236Z" fill="#FFEC00"/>
<path d="M276.972 50.7094C277.238 50.7094 277.455 50.508 277.455 50.2596C277.455 50.0112 277.238 49.8098 276.972 49.8098C276.705 49.8098 276.488 50.0112 276.488 50.2596C276.488 50.508 276.705 50.7094 276.972 50.7094Z" fill="#FFEC00"/>
<path d="M284.002 54.2274C284.419 54.2274 284.757 53.9129 284.757 53.525C284.757 53.137 284.419 52.8225 284.002 52.8225C283.585 52.8225 283.246 53.137 283.246 53.525C283.246 53.9129 283.585 54.2274 284.002 54.2274Z" fill="#FFEC00"/>
<path d="M278.884 56.8454C279.44 56.8454 279.891 56.426 279.891 55.9088C279.891 55.3915 279.44 54.9722 278.884 54.9722C278.328 54.9722 277.877 55.3915 277.877 55.9088C277.877 56.426 278.328 56.8454 278.884 56.8454Z" fill="#FFEC00"/>
<path d="M274.719 53.3083C274.937 53.3083 275.114 53.1438 275.114 52.9409C275.114 52.738 274.937 52.5735 274.719 52.5735C274.501 52.5735 274.324 52.738 274.324 52.9409C274.324 53.1438 274.501 53.3083 274.719 53.3083Z" fill="#FFEC00"/>
<path d="M282.409 59.6282C282.627 59.6282 282.804 59.4637 282.804 59.2607C282.804 59.0578 282.627 58.8933 282.409 58.8933C282.191 58.8933 282.015 59.0578 282.015 59.2607C282.015 59.4637 282.191 59.6282 282.409 59.6282Z" fill="#FFEC00"/>
<path d="M275.529 61.4374C276.012 61.4374 276.404 61.0728 276.404 60.6231C276.404 60.1734 276.012 59.8088 275.529 59.8088C275.045 59.8088 274.653 60.1734 274.653 60.6231C274.653 61.0728 275.045 61.4374 275.529 61.4374Z" fill="#FFEC00"/>
<path d="M279.719 65.4085C280.006 65.4085 280.238 65.192 280.238 64.925C280.238 64.6579 280.006 64.4414 279.719 64.4414C279.432 64.4414 279.199 64.6579 279.199 64.925C279.199 65.192 279.432 65.4085 279.719 65.4085Z" fill="#FFEC00"/>
<path d="M284.335 64.0005C284.768 64.0005 285.118 63.6746 285.118 63.2727C285.118 62.8708 284.768 62.5449 284.335 62.5449C283.903 62.5449 283.553 62.8708 283.553 63.2727C283.553 63.6746 283.903 64.0005 284.335 64.0005Z" fill="#FFEC00"/>
<path d="M284.469 56.7927C284.799 56.7927 285.066 56.5443 285.066 56.2379C285.066 55.9315 284.799 55.6831 284.469 55.6831C284.14 55.6831 283.872 55.9315 283.872 56.2379C283.872 56.5443 284.14 56.7927 284.469 56.7927Z" fill="#FFEC00"/>
<path d="M281.711 50.5781C282.04 50.5781 282.307 50.3297 282.307 50.0233C282.307 49.7169 282.04 49.4685 281.711 49.4685C281.381 49.4685 281.114 49.7169 281.114 50.0233C281.114 50.3297 281.381 50.5781 281.711 50.5781Z" fill="#FFEC00"/>
<path d="M275.622 47.0214C275.951 47.0214 276.218 46.7731 276.218 46.4667C276.218 46.1603 275.951 45.9119 275.622 45.9119C275.292 45.9119 275.025 46.1603 275.025 46.4667C275.025 46.7731 275.292 47.0214 275.622 47.0214Z" fill="#FFEC00"/>
</g>
<path d="M276.956 11L308.543 16.5564L302.665 26.7325L278.433 22.4692L276.956 11Z" fill="#FFEC00"/>
<path d="M279.293 22.4671L278.322 16.7673L277.351 11.0696L278.109 16.7968L278.866 22.5219L279.293 22.4671Z" fill="#FFC600"/>
<path d="M280.021 22.5957L279.971 22.2371L279.186 16.9276L279.161 16.7546L278.347 11.2446L278.982 16.9423L279 17.1237L279.615 22.6379L280.021 22.5957Z" fill="#FFC600"/>
<path d="M280.751 22.7244L280.715 22.3826L280.053 17.0878L280.03 16.9149L279.34 11.4197L279.853 17.0878L279.869 17.2693L280.366 22.7539L280.751 22.7244Z" fill="#FFC600"/>
<path d="M281.482 22.8511L281.459 22.5305L280.917 17.2484L280.901 17.0754L280.336 11.595L280.726 17.2336L280.738 17.415L281.117 22.8701L281.482 22.8511Z" fill="#FFC600"/>
<path d="M282.21 22.9795L282.203 22.6779L281.784 17.4084L281.77 17.2354L281.332 11.7698L281.6 17.3789L281.607 17.5603L281.868 22.9859L282.21 22.9795Z" fill="#FFC600"/>
<path d="M282.941 23.1084L282.947 22.8236L282.648 17.5689L282.639 17.396L282.326 11.9451L282.471 17.5246L282.475 17.7039L282.616 23.1021L282.941 23.1084Z" fill="#FFC600"/>
<path d="M283.671 23.2368L283.691 22.971L283.514 17.729L283.508 17.556L283.322 12.1199L283.344 17.6699V17.8492L283.367 23.2178L283.671 23.2368Z" fill="#FFC600"/>
<path d="M284.402 23.3657L284.436 23.1189L284.379 17.8895V17.7165L284.318 12.2952L284.218 17.8157L284.213 17.995L284.118 23.3341L284.402 23.3657Z" fill="#FFC600"/>
<path d="M285.13 23.4943L285.179 23.2644L285.245 18.0498L285.248 17.8789L285.311 12.4702L285.089 17.9612L285.08 18.1384L284.866 23.45L285.13 23.4943Z" fill="#FFC600"/>
<path d="M285.86 23.6209L285.924 23.412L286.11 18.2101L286.116 18.0392L286.307 12.6453L285.962 18.1067L285.949 18.2839L285.617 23.566L285.86 23.6209Z" fill="#FFC600"/>
<path d="M286.591 23.7493L286.668 23.5573L286.976 18.3701L286.985 18.1992L287.303 12.8201L286.836 18.252L286.817 18.4292L286.368 23.6818L286.591 23.7493Z" fill="#FFC600"/>
<path d="M287.319 23.8784L287.412 23.7054L287.84 18.5309L287.856 18.36L288.296 12.9956L287.707 18.398L287.686 18.5731L287.119 23.7982L287.319 23.8784Z" fill="#FFC600"/>
<path d="M288.049 24.007L288.156 23.853L288.707 18.6912L288.725 18.5203L289.292 13.1707L288.58 18.5435L288.555 18.7186L287.868 23.9142L288.049 24.007Z" fill="#FFC600"/>
<path d="M288.78 24.1357L288.9 23.9986L289.571 18.8514L289.594 18.6806L290.286 13.3457L289.454 18.689L289.424 18.8641L288.619 24.0302L288.78 24.1357Z" fill="#FFC600"/>
<path d="M289.508 24.2643L289.644 24.1462L290.438 19.0117L290.463 18.8408L291.282 13.5208L290.325 18.8345L290.293 19.0075L289.37 24.1462L289.508 24.2643Z" fill="#FFC600"/>
<path d="M290.238 24.3929L290.388 24.2938L291.302 19.1699L291.334 19.0011L292.278 13.6958L291.198 18.98L291.162 19.153L290.118 24.2622L290.238 24.3929Z" fill="#FFC600"/>
<path d="M290.969 24.5197L291.13 24.4396L292.167 19.3304L292.203 19.1617L293.272 13.8711L292.071 19.1258L292.028 19.2988L290.869 24.3784L290.969 24.5197Z" fill="#FFC600"/>
<path d="M291.699 24.6481L291.874 24.5869L293.033 19.4905L293.072 19.3217L294.267 14.0459L292.942 19.2711L292.897 19.4419L291.62 24.4941L291.699 24.6481Z" fill="#FFC600"/>
<path d="M292.427 24.777L292.618 24.7327L293.897 19.651L293.943 19.4822L295.263 14.2212L293.816 19.4168L293.766 19.5877L292.368 24.6104L292.427 24.777Z" fill="#FFC600"/>
<path d="M293.158 24.9056L293.362 24.8802L294.764 19.8112L294.812 19.6424L296.257 14.394L294.689 19.5623L294.635 19.7331L293.119 24.7263L293.158 24.9056Z" fill="#FFC600"/>
<path d="M293.889 25.0344L294.106 25.0281L295.628 19.9717L295.681 19.8029L297.253 14.5693L295.56 19.708L295.504 19.8768L293.87 24.8425L293.889 25.0344Z" fill="#FFC600"/>
<path d="M294.617 25.1628L294.85 25.1734L296.495 20.1317L296.55 19.9651L298.249 14.7441L296.434 19.8533L296.373 20.022L294.621 24.9582L294.617 25.1628Z" fill="#FFC600"/>
<path d="M295.347 25.2917L295.594 25.3213L297.359 20.2923L297.421 20.1256L299.242 14.9194L297.307 19.999L297.241 20.1678L295.37 25.0744L295.347 25.2917Z" fill="#FFC600"/>
<path d="M296.078 25.4185L296.339 25.467L298.226 20.4528L298.29 20.2861L300.238 15.0947L298.178 20.1448L298.108 20.3115L296.121 25.1907L296.078 25.4185Z" fill="#FFC600"/>
<path d="M296.806 25.5469L297.082 25.6144L299.09 20.6128L299.158 20.4462L301.234 15.2695L299.052 20.2901L298.977 20.4567L296.871 25.3064L296.806 25.5469Z" fill="#FFC600"/>
<path d="M297.536 25.6755L297.827 25.762L299.957 20.7731L300.027 20.6065L302.228 15.4446L299.925 20.4356L299.846 20.6022L297.62 25.4224L297.536 25.6755Z" fill="#FFC600"/>
<path d="M298.267 25.8042L298.571 25.9075L300.821 20.9334L300.898 20.7667L303.223 15.6196L300.796 20.5811L300.714 20.7457L298.371 25.5384L298.267 25.8042Z" fill="#FFC600"/>
<path d="M298.997 25.9331L299.315 26.0554L301.688 21.0939L301.767 20.9273L304.219 15.7949L301.669 20.7269L301.583 20.8914L299.122 25.6546L298.997 25.9331Z" fill="#FFC600"/>
<path d="M299.725 26.0615L300.059 26.2028L302.552 21.254L302.636 21.0873L305.213 15.9697L302.543 20.8721L302.452 21.0367L299.873 25.7703L299.725 26.0615Z" fill="#FFC600"/>
<path d="M300.456 26.1901L300.803 26.3483L303.419 21.4142L303.505 21.2476L306.209 16.1448L303.414 21.0177L303.321 21.1801L300.622 25.8863L300.456 26.1901Z" fill="#FFC600"/>
<path d="M301.186 26.3169L301.547 26.4962L304.283 21.5748L304.376 21.4081L307.205 16.3201L304.287 21.1634L304.188 21.3259L301.372 26.0026L301.186 26.3169Z" fill="#FFC600"/>
<path d="M302.291 26.6417L305.245 21.5684L308.198 16.4951L305.056 21.4714L301.914 26.4455L302.291 26.6417Z" fill="#FFC600"/>
<path d="M288.247 29.4666L274.887 95.1514L277.432 95.5991L290.792 29.9143L288.247 29.4666Z" fill="#D3D3D3"/>
<path d="M288.709 29.5494L275.349 95.2341L275.987 95.3462L289.346 29.6615L288.709 29.5494Z" fill="#E6E6EE"/>
<path d="M290.497 24.3676L290.688 24.4014L303.237 26.61L303.165 26.9665C302.94 28.0656 301.917 28.8672 300.715 28.884L294.254 28.306C293.051 28.3229 292.028 29.1245 291.804 30.2235L291.647 30.9935L289.424 30.6033L289.234 30.5695L287.01 30.1792L287.167 29.4093C287.391 28.3103 286.752 27.2175 285.64 26.7914L279.399 25.1355C278.288 24.7115 277.648 23.6167 277.873 22.5176L277.945 22.1611L290.495 24.3698L290.497 24.3676Z" fill="#0075C5"/>
<g opacity="0.63">
<path d="M287.859 30.3272L288.124 29.0278C288.349 27.9287 287.709 26.836 286.598 26.4099L280.357 24.754C279.302 24.3511 278.676 23.3491 278.803 22.3091L279.617 22.4525C279.758 23.2394 280.321 23.9313 281.153 24.2477L287.394 25.9036C288.505 26.3276 289.145 27.4224 288.92 28.5215L288.53 30.4432L287.861 30.3251L287.859 30.3272Z" fill="url(#paint1_linear_1_135)"/>
</g>
<path d="M277.451 96.5498L279.569 86.1332L276.616 85.6143L274.497 96.0308C274.343 96.7903 274.878 97.5201 275.695 97.6636C276.511 97.807 277.296 97.3092 277.451 96.5498ZM276.736 96.4042C276.657 96.7945 276.253 97.0497 275.833 96.9759C275.413 96.9021 275.139 96.5266 275.218 96.1363C275.298 95.7461 275.702 95.4908 276.121 95.5647C276.541 95.6385 276.815 96.014 276.736 96.4042Z" fill="#EE0441"/>
<g style="mix-blend-mode:multiply">
<path d="M273.011 42.9114L272.658 64.6882C272.634 66.1628 273.717 67.3909 275.066 67.4149L281.343 67.5371V55.2232C281.343 54.9287 281.301 54.6429 281.225 54.3746C281.022 53.6591 280.569 53.0658 279.976 52.7146C279.607 52.4943 279.181 52.3699 278.73 52.3699H278.467V49.1437H276.833V45.311C276.833 45.311 276.795 43.8582 278.048 43.8996C279.066 43.9323 279.633 43.7753 279.627 43.2692C279.627 43.1536 279.593 43.0205 279.529 42.8634C279.357 42.4468 278.389 41.3583 277.411 40.3156L275.503 40.2785C274.154 40.2523 273.031 41.4368 273.009 42.9114H273.011Z" fill="#E5E2D1"/>
</g>
<path d="M266.246 41.4692C266.246 41.4692 265.357 45.5026 264.143 46.705C264.79 46.8104 265.275 46.7345 265.455 46.6142C265.634 46.494 267.816 44.1124 267.979 41.8954C267.51 41.5895 266.249 41.4692 266.249 41.4692H266.246Z" fill="#EE0441"/>
<path d="M266.246 41.4692C266.246 41.4692 266.24 41.503 266.226 41.5599C266.609 41.6274 267.065 41.7371 267.31 41.8954C267.149 44.1124 264.965 46.494 264.785 46.6142C264.706 46.667 264.563 46.7113 264.373 46.7345C264.903 46.7893 265.298 46.7197 265.455 46.6142C265.632 46.494 267.816 44.1124 267.979 41.8954C267.51 41.5895 266.249 41.4692 266.249 41.4692H266.246Z" fill="#C90052"/>
<path d="M263.368 38.6572H262.385V40.4123H263.368V38.6572Z" fill="#C90052"/>
<path d="M264.822 41.0474H263.56C263.338 41.0474 263.157 40.8786 263.157 40.6719V38.5202C263.157 38.3135 263.338 38.1447 263.56 38.1447H264.822V41.0474Z" fill="#EE0441"/>
<path d="M274.697 49.4832V44.8192C274.697 44.8192 274.653 43.4143 276.078 43.4543C277.503 43.4944 278.149 43.2539 277.761 42.4523C277.457 41.8258 274.964 39.6277 273.644 38.4696C273.152 38.0393 272.503 37.7988 271.827 37.7988H264.645V41.29C264.645 41.29 269.046 41.8511 269.046 44.5407C269.046 46.3063 269.046 49.4853 269.046 49.4853H274.697V49.4832Z" fill="#D3D3D3"/>
<path d="M273.122 49.4832V44.8192C273.122 44.8192 272.977 43.4543 276.078 43.4543C277.503 43.4543 278.149 43.2539 277.761 42.4523C277.457 41.8258 274.964 39.6277 273.644 38.4696C273.152 38.0393 272.503 37.7988 271.827 37.7988H264.645V41.29C264.645 41.29 269.046 41.8511 269.046 44.5407C269.046 46.3063 269.046 49.4853 269.046 49.4853H273.122V49.4832Z" fill="#E6E6EE"/>
<path d="M264.643 38.1423H270.774C271.444 38.1423 272.081 38.4081 272.526 38.8743L273.828 40.237C274.168 40.5935 274.191 41.1251 273.878 41.5048C273.553 41.8993 272.97 42.0111 272.503 41.7706L271.151 41.0703C270.777 40.8762 270.355 40.775 269.928 40.775H264.643V38.1423Z" fill="#F2F2F2"/>
<path d="M266.947 51.6472H276.552V48.5273H266.947V51.6472Z" fill="#EE0441"/>
<path d="M272.628 51.6472H276.554V48.5273H272.628V51.6472Z" fill="#C90052"/>
<path d="M263.179 53.3009L259.672 59.545C259.012 60.7199 258.667 62.0257 258.667 63.3505V80.2706C258.667 81.5784 259.806 82.6374 261.212 82.6374H277.271C278.678 82.6374 279.817 81.5784 279.817 80.2706V54.4063C279.817 52.8832 278.487 51.6471 276.849 51.6471H266.108C264.876 51.6471 263.746 52.2842 263.175 53.2988L263.179 53.3009Z" fill="#E6E6EE"/>
<path d="M264.014 80.2708V63.3507C264.014 62.0259 264.359 60.7202 265.019 59.5452L268.526 53.3011C269.096 52.2865 270.228 51.6494 271.459 51.6494H267.821C266.589 51.6494 265.459 52.2865 264.887 53.3011L261.38 59.5452C260.72 60.7202 260.375 62.0259 260.375 63.3507V80.2708C260.375 81.5786 261.514 82.6376 262.921 82.6376H266.559C265.153 82.6376 264.014 81.5786 264.014 80.2708Z" fill="#F2F2F2"/>
<path d="M276.852 51.6472H266.11C265.468 51.6472 264.853 51.8223 264.332 52.1324H273.959C275.597 52.1324 276.927 53.3685 276.927 54.8916V80.7559C276.927 82.0637 275.788 82.6396 274.381 82.6396H277.274C278.68 82.6396 279.819 81.5807 279.819 80.2728V54.4085C279.819 52.8855 278.49 51.6493 276.852 51.6493V51.6472Z" fill="#D3D3D3"/>
<path d="M276.899 67.1625C276.899 67.1625 283.968 59.4777 285.057 56.9675C286.146 54.4572 286.847 52.2907 288.834 49.5927C290.821 46.8947 293.346 43.2538 294.324 43.2242C295.301 43.1947 295.385 43.9267 294.986 44.6165C294.587 45.3042 292.146 49.0253 291.98 49.3417C291.815 49.6581 291.998 50.021 292.484 49.4303C292.969 48.8418 296.735 43.7495 297.393 43.0871C298.051 42.4247 299.09 43.0133 298.652 43.8275C298.214 44.6418 294.88 49.232 294.6 49.6412C294.321 50.0505 294.639 50.4914 295.034 49.9598C295.429 49.4282 299.274 44.4498 299.907 43.7706C300.539 43.0913 301.549 43.8444 301.202 44.5321C300.855 45.2198 296.801 50.4576 296.497 50.8521C296.195 51.2466 296.508 51.5419 296.885 51.1116C297.261 50.6812 300.58 46.3526 301.229 45.8505C301.878 45.3485 302.908 46.0256 302.241 47.0424C301.576 48.0591 297.085 53.9172 296.731 54.5373C296.377 55.1575 296.715 55.4191 297.785 54.3939C298.856 53.3687 299.696 52.238 300.317 52.508C300.939 52.778 301.204 54.0479 298.477 56.5498C295.751 59.0537 293.999 59.868 292.802 60.4713C291.604 61.0746 284.966 71.9046 284.966 71.9046C284.966 71.9046 280.742 71.1727 276.895 67.1625H276.899Z" fill="#0075C5"/>
<path opacity="0.63" d="M300.181 52.6726C300.181 52.6726 300.617 53.0122 300.451 53.7505C300.286 54.4889 299.054 55.8642 298.314 56.4443C297.575 57.0245 295.238 59.1128 293.721 59.8069C292.312 60.4502 291.956 60.735 291.13 61.9374C290.919 62.2454 284.42 72.2169 284.082 72.6388C284.145 72.2169 282.539 71.9384 282.693 71.5841C282.825 71.2845 288.845 61.0599 290.883 59.8322C291.547 59.4314 293.11 58.7057 294.222 58.1657C296.445 57.0856 298.543 55.4297 299.369 54.3644C300.195 53.2991 300.186 52.6726 300.186 52.6726H300.181Z" fill="url(#paint2_linear_1_135)"/>
<path opacity="0.39" d="M289.453 49.6877C289.453 49.6877 285.472 53.8877 287.003 56.3157C288.535 58.7437 290.495 59.1783 293.126 57.9548C298.548 52.2613 292.096 50.3332 289.453 49.6877Z" fill="url(#paint3_linear_1_135)"/>
<path opacity="0.49" d="M301.492 45.8887C301.492 45.8887 301.953 45.8128 302.155 46.2178C302.357 46.6228 302.13 47.0869 301.651 47.6396C301.172 48.1944 299.026 50.9177 298.963 51.0126C300.612 48.6416 301.617 47.5953 301.728 47.0173C301.839 46.4393 301.488 46.3148 301.309 46.2937C301.129 46.2726 301.182 45.8613 301.495 45.8887H301.492Z" fill="url(#paint4_linear_1_135)"/>
<path opacity="0.49" d="M300.365 43.6209C300.365 43.6209 300.826 43.5449 301.027 43.95C301.229 44.355 301.002 44.8191 300.524 45.3717C300.045 45.9244 297.899 48.6499 297.836 48.7448C299.485 46.3737 300.49 45.3274 300.601 44.7495C300.712 44.1715 300.36 44.047 300.181 44.0259C300.002 44.0048 300.054 43.5935 300.367 43.6209H300.365Z" fill="url(#paint5_linear_1_135)"/>
<path opacity="0.49" d="M297.788 42.9822C297.788 42.9822 298.248 42.9063 298.45 43.3113C298.652 43.7163 298.425 44.1804 297.947 44.7331C297.468 45.2858 295.322 48.0112 295.258 48.1061C296.908 45.7351 297.913 44.6888 298.024 44.1108C298.135 43.5328 297.783 43.4083 297.604 43.3872C297.425 43.3661 297.477 42.9548 297.79 42.9822H297.788Z" fill="url(#paint6_linear_1_135)"/>
<path opacity="0.49" d="M294.254 43.4226C294.254 43.4226 294.714 43.3467 294.916 43.7517C295.118 44.1567 294.902 44.5765 294.492 45.2178C294.081 45.8591 292.008 48.7659 291.944 48.8609C293.593 46.4898 294.376 45.1292 294.487 44.5512C294.598 43.9732 294.247 43.8488 294.068 43.8277C293.888 43.8066 293.941 43.3952 294.254 43.4226Z" fill="url(#paint7_linear_1_135)"/>
<path d="M283.564 99.406H264.817C260.854 99.406 257.642 96.4189 257.642 92.7337L256.426 62.7116H291.953L290.737 92.7337C290.737 96.4189 287.525 99.406 283.562 99.406H283.564Z" fill="#EE0441"/>
<path d="M287.879 62.7136L286.688 92.1429C286.688 95.8281 283.476 98.8152 279.512 98.8152H261.863C262.764 99.1949 263.764 99.4079 264.817 99.4079H283.564C287.527 99.4079 290.739 96.4209 290.739 92.7356L291.955 62.7136H287.881H287.879Z" fill="#C90052"/>
<path d="M256.428 62.7136L257.483 88.7762C262.832 94.8304 273.496 93.0584 273.496 93.0584C278.791 92.01 280.556 88.6728 280.556 84.9875L281.457 62.7136H256.428Z" fill="#FF3C41"/>
<path d="M292.808 61.583H255.75C255.39 61.583 255.099 61.854 255.099 62.1884V63.2368C255.099 63.5712 255.39 63.8422 255.75 63.8422H292.808C293.168 63.8422 293.46 63.5712 293.46 63.2368V62.1884C293.46 61.854 293.168 61.583 292.808 61.583Z" fill="#FF5F6B"/>
<path d="M291.59 66.1838H256.789C256.214 66.1838 255.747 66.6173 255.747 67.1521C255.747 67.6868 256.214 68.1203 256.789 68.1203H291.59C292.165 68.1203 292.631 67.6868 292.631 67.1521C292.631 66.6173 292.165 66.1838 291.59 66.1838Z" fill="#FF5F6B"/>
<g style="mix-blend-mode:multiply">
<path d="M275.767 62.7137H274.687C274.032 64.3591 269.198 76.4296 266.04 82.1673C264.497 84.9687 262.587 86.5761 260.668 86.6879C259.264 86.7702 258.2 86.0319 257.673 85.3147C257.499 85.0784 257.381 84.7852 257.31 84.4498L257.394 86.4981C258.281 87.2955 259.495 87.7279 260.736 87.6541C260.838 87.6477 260.945 87.6393 261.054 87.6245C262.666 87.4262 264.908 86.3525 266.97 82.6082C270.375 76.4232 275.69 62.9943 275.742 62.8593C275.76 62.8108 275.769 62.7623 275.772 62.7116L275.767 62.7137Z" fill="#C9B1B6"/>
</g>
<path d="M275.534 62.1781C275.28 62.0537 274.964 62.1444 274.83 62.3806C274.758 62.5072 267.621 75.1176 263.406 80.7837C261.48 83.372 259.361 84.7326 257.442 84.6082C256.04 84.5175 255.09 83.6568 254.668 82.8805C253.792 81.271 255.425 77.7735 256.923 75.2337L256.841 73.4195C255.396 75.626 252.361 80.7837 253.738 83.3172C254.441 84.6103 255.834 85.4773 257.372 85.5743C257.474 85.5806 257.581 85.5849 257.689 85.5849C259.318 85.5849 261.691 84.7959 264.264 81.3343C268.515 75.6197 275.681 62.9565 275.751 62.8299C275.885 62.5937 275.788 62.3005 275.534 62.176V62.1781Z" fill="#B5B5B5"/>
<g style="mix-blend-mode:multiply">
<path d="M261.103 75.3074L261.546 74.8824C261.846 74.5948 261.846 74.1276 261.546 73.84C261.246 73.5524 260.76 73.5524 260.46 73.84L260.018 74.265L259.742 74.0007L259.321 73.5947L257.916 74.9437L257.785 74.8169L257.535 74.5779L257.457 74.6519L258.106 93.041C258.106 95.517 259.371 97.678 261.25 98.8346C261.463 98.5576 261.59 98.2171 261.59 97.8492V82.5218C261.59 82.063 261.395 81.6464 261.081 81.3462C260.768 81.0459 260.335 80.8599 259.857 80.8599H259.537C259.422 80.8599 259.315 80.8324 259.224 80.7838C259.087 80.7119 258.98 80.5935 258.924 80.456C258.914 80.4328 258.906 80.4095 258.9 80.3841C258.874 80.2869 258.872 80.1833 258.9 80.0797C258.906 80.0543 258.916 80.0268 258.926 80.0014L259.44 78.7307L259.766 79.0436L260.972 77.8849L260.395 77.3309L261.8 75.9819L261.103 75.3116V75.3074Z" fill="#C9B1B6"/>
</g>
<path d="M245.771 78.9694L254.087 72.8794L257.288 75.9951L256.607 77.6257C256.405 78.1088 256.789 78.6277 257.345 78.6277H257.73C258.885 78.6277 259.822 79.4989 259.822 80.5727V98.4969C259.822 99.5706 258.885 100.442 257.73 100.442H246.955C245.8 100.442 244.863 99.5706 244.863 98.4969V80.5727C244.863 79.9061 245.224 79.3196 245.773 78.9694H245.771Z" fill="#0075C5"/>
<path d="M257.733 78.6256H257.347C256.791 78.6256 256.408 78.1067 256.61 77.6236L257.29 75.993L256.784 75.5015L254.734 77.6236C253.211 79.0686 254.479 79.1277 256.415 79.1277H256.8C257.955 79.1277 258.175 79.4968 258.175 80.5726V98.4969C258.175 99.5706 257.238 100.442 256.083 100.442H257.737C258.892 100.442 259.829 99.5706 259.829 98.4969V80.5726C259.829 79.4989 258.892 78.6277 257.737 78.6277L257.733 78.6256Z" fill="#005ABC"/>
<path opacity="0.63" d="M250.16 98.0579V80.4417C250.16 79.7878 250.521 79.2098 251.07 78.8659L257.349 74.3474L255.816 72.8813L247.499 78.868C246.95 79.2119 246.59 79.7899 246.59 80.4438V98.06C246.59 99.1169 247.526 99.9733 248.681 99.9733H252.252C251.097 99.9733 250.16 99.1169 250.16 98.06V98.0579Z" fill="url(#paint8_linear_1_135)"/>
<path d="M259.022 72.3406L257.709 71.1198L258.46 70.4214C258.823 70.0841 259.41 70.0841 259.773 70.4214C260.136 70.7586 260.136 71.3049 259.773 71.6421L259.022 72.3406Z" fill="#FFEC00"/>
<path d="M255.206 71.8811L258.203 74.6675L260.081 72.9208L257.085 70.1344L255.206 71.8811Z" fill="url(#paint9_linear_1_135)"/>
<path d="M255.715 72.357L257.056 73.604L258.934 71.8573L257.593 70.6103L255.715 72.357Z" fill="#FFEC00"/>
<path d="M253.47 72.6418L257.623 76.5037L259.08 75.1493L254.927 71.2874L253.47 72.6418Z" fill="#EF9300"/>
<path d="M253.771 72.9229L255.079 74.1392L256.536 72.7841L255.228 71.5678L253.771 72.9229Z" fill="url(#paint10_linear_1_135)"/>
<path d="M294.229 66.8503H297.504C297.953 66.8503 298.319 67.19 298.319 67.6076V70.9069H293.414V67.6076C293.414 67.19 293.779 66.8503 294.229 66.8503Z" fill="#FF3C41"/>
<path d="M295.848 66.8503H294.229C293.779 66.8503 293.414 67.19 293.414 67.6076V70.9069H295.034V67.6076C295.034 67.19 295.399 66.8503 295.848 66.8503Z" fill="#FF5F6B"/>
<path d="M289.987 75.4657V96.2334C289.987 97.9864 291.516 99.4082 293.401 99.4082H303.464C305.349 99.4082 306.878 97.9864 306.878 96.2334V85.1102C306.878 83.3973 306.878 81.5789 306.22 80.0242L304.217 75.4657C303.373 73.5882 300.379 72.2909 298.491 72.2909H293.401C291.516 72.2909 289.987 73.7127 289.987 75.4657ZM301.642 84.3233C301.642 83.3867 302.459 82.6294 303.464 82.6294C304.471 82.6294 305.286 83.3888 305.286 84.3233V92.4954C305.286 93.4321 304.469 94.1894 303.464 94.1894C302.457 94.1894 301.642 93.4299 301.642 92.4954V84.3233Z" fill="#EDA900"/>
<path d="M303.464 94.1871C301.944 94.1871 301.064 93.24 301.064 92.3034V84.1313C301.064 83.1946 301.88 82.4373 302.885 82.4373C303.303 82.4373 303.768 82.5555 304.169 82.758C303.951 82.6736 303.713 82.6272 303.464 82.6272C302.456 82.6272 301.642 83.3866 301.642 84.3211V92.4932C301.642 93.4298 302.459 94.1871 303.464 94.1871Z" fill="#EF9300"/>
<path d="M305.546 93.972L303.856 94.147C304.439 94.0268 304.918 93.6492 305.145 93.1493C305.616 93.645 306.22 93.9741 305.546 93.9741V93.972Z" fill="#EDA900"/>
<path d="M293.4 72.2906H298.491C299.614 72.2906 300.866 72.5227 302.014 73.4551C302.844 74.1322 304.101 75.3894 304.101 76.4147V78.4292C304.101 79.2646 303.373 79.9417 302.475 79.9417C301.216 79.9417 300.197 80.891 300.197 82.0596V99.4037H293.403C291.518 99.4037 289.989 97.9819 289.989 96.229V75.4612C289.989 73.7082 291.518 72.2864 293.403 72.2864L293.4 72.2906Z" fill="#FFC600"/>
<path opacity="0.63" d="M294.442 72.8814H297.994C299.117 72.8814 299.816 73.3434 300.374 74.1134C300.435 74.1978 300.49 74.2842 300.546 74.3728C300.381 74.3475 300.206 74.3349 300.02 74.3349H295.397C294.104 74.3349 293.054 75.3094 293.054 76.514V98.501C293.054 98.6655 293.074 98.8238 293.11 98.9778C291.885 98.4947 291.028 98.1403 291.028 96.8261V76.0583C291.028 74.3053 292.557 72.8835 294.442 72.8835V72.8814Z" fill="url(#paint11_linear_1_135)"/>
<path d="M298.922 70.4346H292.854V72.2951H298.922V70.4346Z" fill="#C90052"/>
<g style="mix-blend-mode:multiply">
<path d="M283.836 96.6491L268.635 61.5896H265.842L281.434 97.5519L283.836 96.6491Z" fill="#C9B1B6"/>
</g>
<path d="M248.135 21.3848L245.8 22.4272L284.064 96.5577L286.399 95.5153L248.135 21.3848Z" fill="#D3D3D3"/>
<path d="M247.715 21.5727L247.131 21.8337L285.394 95.9642L285.979 95.7031L247.715 21.5727Z" fill="#E6E6EE"/>
<path d="M245.183 21.674L250.124 31.2278L252.832 30.017L247.892 20.4632C247.531 19.7671 246.633 19.4738 245.886 19.8093C245.14 20.1447 244.822 20.98 245.183 21.674ZM245.85 21.3977C245.664 21.0412 245.827 20.6109 246.211 20.44C246.594 20.2691 247.057 20.4189 247.24 20.7754C247.424 21.1319 247.263 21.5622 246.88 21.7331C246.496 21.904 246.034 21.7542 245.85 21.3977Z" fill="#EE0441"/>
<path d="M290.272 97.6254L287.772 95.3451C287.414 95.0181 286.926 94.8451 286.425 94.8662L283.358 94.9949C282.884 95.0139 282.455 95.2649 282.23 95.6552L280.731 98.254L290.275 97.6254H290.272Z" fill="#0041A0"/>
<path d="M270.779 104.574L300.66 103.37L300.422 98.1971C300.404 97.8153 300.057 97.5178 299.646 97.5347L271.509 98.6696C270.956 98.6907 270.527 99.1253 270.552 99.64L270.779 104.576V104.574Z" fill="#5A595A"/>
<path d="M270.57 100.051L300.451 98.8466L300.406 97.8804C300.383 97.3784 299.925 96.9881 299.385 97.0092L271.464 98.1357C270.924 98.1568 270.504 98.5829 270.527 99.0849L270.572 100.051H270.57Z" fill="#005ABC"/>
<path d="M270.783 104.573L300.664 103.369L300.612 102.257L270.732 103.46L270.783 104.573Z" fill="#353535"/>
<g style="mix-blend-mode:multiply">
<path d="M279.213 66.1838C278.759 65.1354 278.519 63.1715 279.079 62.391C279.639 61.6105 280.436 61.583 280.436 61.583C280.436 61.583 279.349 60.5684 274.91 60.8321C271.659 61.024 270.454 62.2011 270.431 62.72C270.395 63.5343 270.323 64.2157 270.202 64.6713C269.51 67.2997 268.721 69.4387 268.639 72.7084C268.558 75.9781 268.322 80.3046 269.098 80.8594C269.873 81.4142 270.402 80.8658 270.509 80.0895C270.617 79.3132 270.969 74.9677 271.037 74.6217C271.103 74.2758 271.477 74.0796 271.502 74.8221C271.527 75.5646 271.389 81.7412 271.502 82.6377C271.618 83.5342 272.834 83.6186 272.99 82.72C273.147 81.8235 273.319 76.284 273.351 75.8009C273.383 75.3178 273.916 75.1322 273.902 75.7777C273.889 76.4232 273.884 82.5533 273.97 83.4478C274.057 84.3422 275.352 84.2789 275.502 83.5342C275.651 82.7875 275.649 76.3346 275.651 75.8494C275.654 75.3642 276.094 75.2946 276.13 75.8494C276.166 76.4042 276.141 81.718 276.352 82.4774C276.563 83.2368 277.825 83.2473 277.922 82.0597C278.02 80.8721 278.051 73.6788 278.154 72.9848C278.256 72.2907 278.693 72.2612 278.92 73.6746C279.147 75.0879 279.118 76.4612 279.791 76.5793C280.465 76.6974 281.479 75.8115 280.835 72.2992C280.193 68.7869 279.717 67.3546 279.211 66.1817L279.213 66.1838Z" fill="#C9B1B6"/>
</g>
<path d="M278.485 65.2494C278.317 64.8845 278.224 62.8678 278.766 62.1548C279.272 61.4882 280.434 61.5831 280.434 61.5831C280.434 61.5831 279.408 59.8154 274.962 59.8892C271.707 59.9441 270.443 61.0663 270.395 61.5831C270.318 62.3953 270.214 63.0724 270.071 63.5238C269.25 66.1206 268.356 68.2237 268.113 71.4871C267.87 74.7505 267.421 79.0601 268.168 79.6487C268.914 80.2372 269.47 79.7098 269.617 78.9399C269.762 78.1699 270.332 73.8434 270.413 73.4995C270.497 73.1557 270.881 72.9785 270.867 73.721C270.856 74.4636 270.411 80.6296 270.484 81.5282C270.556 82.429 271.766 82.564 271.965 81.6738C272.165 80.7836 272.612 75.2588 272.666 74.7779C272.721 74.2969 273.263 74.1345 273.22 74.7779C273.174 75.4234 272.868 81.5451 272.909 82.4437C272.952 83.3402 274.247 83.3339 274.433 82.5956C274.619 81.8573 274.935 75.4086 274.962 74.9256C274.989 74.4404 275.431 74.3897 275.441 74.9466C275.45 75.5036 275.162 80.8089 275.336 81.5788C275.511 82.3467 276.768 82.41 276.926 81.2287C277.085 80.0474 277.469 72.8625 277.607 72.1727C277.743 71.4829 278.181 71.4723 278.34 72.8941C278.496 74.3159 278.399 75.6871 279.066 75.8326C279.733 75.9803 280.787 75.1365 280.32 71.601C279.853 68.0655 279.023 66.4138 278.487 65.2515L278.485 65.2494Z" fill="#0075C5"/>
<path opacity="0.63" d="M279.066 75.6197C279.066 75.6197 279.633 75.6028 279.996 74.9299C280.356 74.2569 280.311 72.466 280.116 71.5842C279.923 70.7025 279.29 67.8884 278.564 66.4667C277.89 65.1482 277.68 64.5913 277.834 63.1717C277.847 63.0514 278.24 60.1446 280.071 61.1845C279.748 60.9061 279.184 60.5369 278.247 60.2627C277.782 60.1277 277.101 60.2817 276.677 61.0094C275.994 62.1697 276.278 63.8952 276.548 64.6356C276.802 65.3339 277.543 66.8042 278.054 67.8695C279.075 70 279.617 72.5082 279.556 73.8203C279.492 75.1324 279.066 75.6176 279.066 75.6176V75.6197Z" fill="url(#paint12_linear_1_135)"/>
<path opacity="0.49" d="M275.567 81.6946C275.567 81.6946 275.878 82.0195 276.307 81.8191C276.736 81.6187 276.867 81.1229 276.861 80.4121C276.854 79.7012 276.99 76.326 277.003 76.2163C276.715 79.0282 276.806 80.4268 276.507 80.9457C276.207 81.4647 275.849 81.3571 275.695 81.2706C275.54 81.1841 275.304 81.5364 275.57 81.6946H275.567Z" fill="url(#paint13_linear_1_135)"/>
<path opacity="0.49" d="M273.167 82.8235C273.167 82.8235 273.478 83.1484 273.907 82.948C274.336 82.7476 274.467 82.2519 274.461 81.541C274.454 80.8301 274.59 77.4549 274.603 77.3452C274.315 80.1571 274.406 81.5557 274.107 82.0747C273.807 82.5936 273.449 82.486 273.294 82.3995C273.14 82.313 272.904 82.6653 273.17 82.8235H273.167Z" fill="url(#paint14_linear_1_135)"/>
<path opacity="0.49" d="M270.722 81.8362C270.722 81.8362 271.033 82.1611 271.461 81.9607C271.89 81.7603 272.022 81.2646 272.015 80.5537C272.008 79.8428 272.144 76.4676 272.158 76.3579C271.87 79.1698 271.961 80.5684 271.661 81.0874C271.362 81.6063 271.003 81.4987 270.849 81.4122C270.695 81.3257 270.459 81.678 270.724 81.8362H270.722Z" fill="url(#paint15_linear_1_135)"/>
<path opacity="0.49" d="M268.245 79.4524C268.245 79.4524 268.556 79.7773 268.984 79.5769C269.413 79.3765 269.524 78.9229 269.631 78.1825C269.737 77.4421 270.051 73.9656 270.064 73.856C269.776 76.6679 269.481 78.1846 269.182 78.7035C268.882 79.2225 268.524 79.1149 268.37 79.0284C268.215 78.9419 267.979 79.2942 268.245 79.4524Z" fill="url(#paint16_linear_1_135)"/>
<rect width="12" height="3" rx="1.5" transform="matrix(1 0 0 -1 148 107)" fill="#464646"/>
<rect width="12" height="3" rx="1.5" transform="matrix(1 0 0 -1 162 107)" fill="#C4A899"/>
<rect width="12" height="3" rx="1.5" transform="matrix(1 0 0 -1 176 107)" fill="#C4A899"/>
</g>
<defs>
<linearGradient id="paint0_linear_1_135" x1="269.579" y1="63.0084" x2="287.945" y2="43.9411" gradientUnits="userSpaceOnUse">
<stop stop-color="#FFC300"/>
<stop offset="1" stop-color="#FFE331"/>
</linearGradient>
<linearGradient id="paint1_linear_1_135" x1="284.296" y1="23.2743" x2="283.2" y2="29.5071" gradientUnits="userSpaceOnUse">
<stop stop-color="white" stop-opacity="0.1"/>
<stop offset="0.13" stop-color="white" stop-opacity="0.12"/>
<stop offset="0.26" stop-color="white" stop-opacity="0.16"/>
<stop offset="0.4" stop-color="white" stop-opacity="0.24"/>
<stop offset="0.53" stop-color="white" stop-opacity="0.35"/>
<stop offset="0.66" stop-color="white" stop-opacity="0.5"/>
<stop offset="0.8" stop-color="white" stop-opacity="0.67"/>
<stop offset="0.93" stop-color="white" stop-opacity="0.88"/>
<stop offset="1" stop-color="white"/>
</linearGradient>
<linearGradient id="paint2_linear_1_135" x1="287.46" y1="58.8271" x2="293.158" y2="64.406" gradientUnits="userSpaceOnUse">
<stop stop-color="white" stop-opacity="0.1"/>
<stop offset="0.13" stop-color="white" stop-opacity="0.12"/>
<stop offset="0.26" stop-color="white" stop-opacity="0.16"/>
<stop offset="0.4" stop-color="white" stop-opacity="0.24"/>
<stop offset="0.53" stop-color="white" stop-opacity="0.35"/>
<stop offset="0.66" stop-color="white" stop-opacity="0.5"/>
<stop offset="0.8" stop-color="white" stop-opacity="0.67"/>
<stop offset="0.93" stop-color="white" stop-opacity="0.88"/>
<stop offset="1" stop-color="white"/>
</linearGradient>
<linearGradient id="paint3_linear_1_135" x1="284.812" y1="56.2437" x2="295.933" y2="51.4684" gradientUnits="userSpaceOnUse">
<stop stop-color="white"/>
<stop offset="0.12" stop-color="white" stop-opacity="0.78"/>
<stop offset="0.24" stop-color="white" stop-opacity="0.57"/>
<stop offset="0.37" stop-color="white" stop-opacity="0.4"/>
<stop offset="0.5" stop-color="white" stop-opacity="0.25"/>
<stop offset="0.62" stop-color="white" stop-opacity="0.14"/>
<stop offset="0.75" stop-color="white" stop-opacity="0.06"/>
<stop offset="0.88" stop-color="white" stop-opacity="0.02"/>
<stop offset="1" stop-color="white" stop-opacity="0"/>
</linearGradient>
<linearGradient id="paint4_linear_1_135" x1="298.497" y1="46.8388" x2="301.054" y2="49.3439" gradientUnits="userSpaceOnUse">
<stop stop-color="white" stop-opacity="0.1"/>
<stop offset="0.13" stop-color="white" stop-opacity="0.12"/>
<stop offset="0.26" stop-color="white" stop-opacity="0.16"/>
<stop offset="0.4" stop-color="white" stop-opacity="0.24"/>
<stop offset="0.53" stop-color="white" stop-opacity="0.35"/>
<stop offset="0.66" stop-color="white" stop-opacity="0.5"/>
<stop offset="0.8" stop-color="white" stop-opacity="0.67"/>
<stop offset="0.93" stop-color="white" stop-opacity="0.88"/>
<stop offset="1" stop-color="white"/>
</linearGradient>
<linearGradient id="paint5_linear_1_135" x1="297.369" y1="44.5692" x2="299.926" y2="47.0743" gradientUnits="userSpaceOnUse">
<stop stop-color="white" stop-opacity="0.1"/>
<stop offset="0.13" stop-color="white" stop-opacity="0.12"/>
<stop offset="0.26" stop-color="white" stop-opacity="0.16"/>
<stop offset="0.4" stop-color="white" stop-opacity="0.24"/>
<stop offset="0.53" stop-color="white" stop-opacity="0.35"/>
<stop offset="0.66" stop-color="white" stop-opacity="0.5"/>
<stop offset="0.8" stop-color="white" stop-opacity="0.67"/>
<stop offset="0.93" stop-color="white" stop-opacity="0.88"/>
<stop offset="1" stop-color="white"/>
</linearGradient>
<linearGradient id="paint6_linear_1_135" x1="294.791" y1="43.9317" x2="297.35" y2="46.4351" gradientUnits="userSpaceOnUse">
<stop stop-color="white" stop-opacity="0.1"/>
<stop offset="0.13" stop-color="white" stop-opacity="0.12"/>
<stop offset="0.26" stop-color="white" stop-opacity="0.16"/>
<stop offset="0.4" stop-color="white" stop-opacity="0.24"/>
<stop offset="0.53" stop-color="white" stop-opacity="0.35"/>
<stop offset="0.66" stop-color="white" stop-opacity="0.5"/>
<stop offset="0.8" stop-color="white" stop-opacity="0.67"/>
<stop offset="0.93" stop-color="white" stop-opacity="0.88"/>
<stop offset="1" stop-color="white"/>
</linearGradient>
<linearGradient id="paint7_linear_1_135" x1="291.012" y1="44.2261" x2="294.087" y2="47.2365" gradientUnits="userSpaceOnUse">
<stop stop-color="white" stop-opacity="0.1"/>
<stop offset="0.13" stop-color="white" stop-opacity="0.12"/>
<stop offset="0.26" stop-color="white" stop-opacity="0.16"/>
<stop offset="0.4" stop-color="white" stop-opacity="0.24"/>
<stop offset="0.53" stop-color="white" stop-opacity="0.35"/>
<stop offset="0.66" stop-color="white" stop-opacity="0.5"/>
<stop offset="0.8" stop-color="white" stop-opacity="0.67"/>
<stop offset="0.93" stop-color="white" stop-opacity="0.88"/>
<stop offset="1" stop-color="white"/>
</linearGradient>
<linearGradient id="paint8_linear_1_135" x1="244.634" y1="74.5014" x2="259.266" y2="102.067" gradientUnits="userSpaceOnUse">
<stop stop-color="white"/>
<stop offset="0.07" stop-color="white" stop-opacity="0.88"/>
<stop offset="0.2" stop-color="white" stop-opacity="0.67"/>
<stop offset="0.34" stop-color="white" stop-opacity="0.5"/>
<stop offset="0.47" stop-color="white" stop-opacity="0.35"/>
<stop offset="0.6" stop-color="white" stop-opacity="0.24"/>
<stop offset="0.74" stop-color="white" stop-opacity="0.16"/>
<stop offset="0.87" stop-color="white" stop-opacity="0.12"/>
<stop offset="1" stop-color="white" stop-opacity="0.1"/>
</linearGradient>
<linearGradient id="paint9_linear_1_135" x1="255.205" y1="72.4016" x2="260.078" y2="72.4016" gradientUnits="userSpaceOnUse">
<stop stop-color="#FFE331"/>
<stop offset="1" stop-color="#FFC300"/>
</linearGradient>
<linearGradient id="paint10_linear_1_135" x1="253.77" y1="72.8515" x2="256.534" y2="72.8515" gradientUnits="userSpaceOnUse">
<stop stop-color="#FFE331"/>
<stop offset="1" stop-color="#FFC300"/>
</linearGradient>
<linearGradient id="paint11_linear_1_135" x1="300.546" y1="85.9285" x2="291.03" y2="85.9285" gradientUnits="userSpaceOnUse">
<stop stop-color="white" stop-opacity="0.1"/>
<stop offset="0.13" stop-color="white" stop-opacity="0.12"/>
<stop offset="0.26" stop-color="white" stop-opacity="0.16"/>
<stop offset="0.4" stop-color="white" stop-opacity="0.24"/>
<stop offset="0.53" stop-color="white" stop-opacity="0.35"/>
<stop offset="0.66" stop-color="white" stop-opacity="0.5"/>
<stop offset="0.8" stop-color="white" stop-opacity="0.67"/>
<stop offset="0.93" stop-color="white" stop-opacity="0.88"/>
<stop offset="1" stop-color="white"/>
</linearGradient>
<linearGradient id="paint12_linear_1_135" x1="269.306" y1="66.3992" x2="284.82" y2="69.3492" gradientUnits="userSpaceOnUse">
<stop stop-color="white" stop-opacity="0.1"/>
<stop offset="0.13" stop-color="white" stop-opacity="0.12"/>
<stop offset="0.26" stop-color="white" stop-opacity="0.16"/>
<stop offset="0.4" stop-color="white" stop-opacity="0.24"/>
<stop offset="0.53" stop-color="white" stop-opacity="0.35"/>
<stop offset="0.66" stop-color="white" stop-opacity="0.5"/>
<stop offset="0.8" stop-color="white" stop-opacity="0.67"/>
<stop offset="0.93" stop-color="white" stop-opacity="0.88"/>
<stop offset="1" stop-color="white"/>
</linearGradient>
<linearGradient id="paint13_linear_1_135" x1="273.855" y1="79.2209" x2="277.548" y2="78.9445" gradientUnits="userSpaceOnUse">
<stop stop-color="white" stop-opacity="0.1"/>
<stop offset="0.13" stop-color="white" stop-opacity="0.12"/>
<stop offset="0.26" stop-color="white" stop-opacity="0.16"/>
<stop offset="0.4" stop-color="white" stop-opacity="0.24"/>
<stop offset="0.53" stop-color="white" stop-opacity="0.35"/>
<stop offset="0.66" stop-color="white" stop-opacity="0.5"/>
<stop offset="0.8" stop-color="white" stop-opacity="0.67"/>
<stop offset="0.93" stop-color="white" stop-opacity="0.88"/>
<stop offset="1" stop-color="white"/>
</linearGradient>
<linearGradient id="paint14_linear_1_135" x1="271.456" y1="80.3502" x2="275.149" y2="80.0738" gradientUnits="userSpaceOnUse">
<stop stop-color="white" stop-opacity="0.1"/>
<stop offset="0.13" stop-color="white" stop-opacity="0.12"/>
<stop offset="0.26" stop-color="white" stop-opacity="0.16"/>
<stop offset="0.4" stop-color="white" stop-opacity="0.24"/>
<stop offset="0.53" stop-color="white" stop-opacity="0.35"/>
<stop offset="0.66" stop-color="white" stop-opacity="0.5"/>
<stop offset="0.8" stop-color="white" stop-opacity="0.67"/>
<stop offset="0.93" stop-color="white" stop-opacity="0.88"/>
<stop offset="1" stop-color="white"/>
</linearGradient>
<linearGradient id="paint15_linear_1_135" x1="269.009" y1="79.3635" x2="272.702" y2="79.0896" gradientUnits="userSpaceOnUse">
<stop stop-color="white" stop-opacity="0.1"/>
<stop offset="0.13" stop-color="white" stop-opacity="0.12"/>
<stop offset="0.26" stop-color="white" stop-opacity="0.16"/>
<stop offset="0.4" stop-color="white" stop-opacity="0.24"/>
<stop offset="0.53" stop-color="white" stop-opacity="0.35"/>
<stop offset="0.66" stop-color="white" stop-opacity="0.5"/>
<stop offset="0.8" stop-color="white" stop-opacity="0.67"/>
<stop offset="0.93" stop-color="white" stop-opacity="0.88"/>
<stop offset="1" stop-color="white"/>
</linearGradient>
<linearGradient id="paint16_linear_1_135" x1="266.242" y1="76.9514" x2="270.681" y2="76.6207" gradientUnits="userSpaceOnUse">
<stop stop-color="white" stop-opacity="0.1"/>
<stop offset="0.13" stop-color="white" stop-opacity="0.12"/>
<stop offset="0.26" stop-color="white" stop-opacity="0.16"/>
<stop offset="0.4" stop-color="white" stop-opacity="0.24"/>
<stop offset="0.53" stop-color="white" stop-opacity="0.35"/>
<stop offset="0.66" stop-color="white" stop-opacity="0.5"/>
<stop offset="0.8" stop-color="white" stop-opacity="0.67"/>
<stop offset="0.93" stop-color="white" stop-opacity="0.88"/>
<stop offset="1" stop-color="white"/>
</linearGradient>
<clipPath id="clip0_1_135">
<rect width="335" height="117" rx="5" fill="white"/>
</clipPath>
</defs>
</svg>
