<svg width="60" height="60" viewBox="0 0 60 60" fill="none" xmlns="http://www.w3.org/2000/svg">
<circle cx="30" cy="30" r="30" fill="#2A2B2E"/>
<circle cx="35" cy="34" r="11" fill="#56575B"/>
<path d="M22.8546 39.9988C22.6272 39.9099 22.3828 39.8492 22.175 39.7259C21.5809 39.3745 21.2606 38.8343 21.2576 38.1438C21.2472 35.6364 21.2521 33.1284 21.2539 30.621C21.2539 30.2408 21.5283 29.9636 21.8846 29.9679C22.2385 29.9716 22.5013 30.2518 22.5013 30.6369C22.5026 33.0861 22.5019 35.5346 22.5019 37.9838C22.5019 38.516 22.7311 38.7454 23.2622 38.7454C24.1802 38.7454 25.0976 38.7454 26.0156 38.7454H26.2515V38.505C26.2515 36.3306 26.2515 34.1555 26.2515 31.9811C26.2515 30.7608 27.0387 29.9679 28.2501 29.9679C29.4284 29.9679 30.6062 29.9667 31.7845 29.9679C32.9458 29.9691 33.7495 30.7724 33.7501 31.9363C33.7513 34.1175 33.7501 36.2987 33.7501 38.4799V38.746H33.9414C34.8918 38.746 35.8422 38.7466 36.7925 38.746C37.2558 38.746 37.4997 38.4989 37.4997 38.0298C37.4997 34.5228 37.4997 31.0159 37.5021 27.5095C37.5021 27.3887 37.4716 27.3078 37.375 27.2275C35.0776 25.3118 32.7838 23.3924 30.4888 21.4743C30.135 21.1787 29.866 21.1794 29.5128 21.4743C26.7582 23.7775 24.0036 26.0808 21.2496 28.384C21.1946 28.43 21.1396 28.4759 21.084 28.5213C20.7589 28.7875 20.3873 28.7752 20.1483 28.4901C19.9099 28.2061 19.9625 27.8266 20.2803 27.5604C20.9147 27.0288 21.5503 26.499 22.1853 25.9679C24.3501 24.1583 26.5162 22.35 28.6804 20.5392C29.5366 19.8229 30.4638 19.8199 31.3145 20.5324C32.5834 21.5951 33.8546 22.6554 35.1246 23.7168C35.1741 23.7585 35.2255 23.7984 35.2958 23.8548C35.3025 23.7898 35.3117 23.742 35.3123 23.6948C35.3135 23.3814 35.308 23.0674 35.3147 22.7547C35.322 22.4009 35.5952 22.1329 35.9369 22.1323C36.2773 22.1323 36.5566 22.4009 36.5603 22.7535C36.567 23.4194 36.5658 24.086 36.5597 24.7519C36.5585 24.8758 36.5976 24.9537 36.6917 25.0315C37.6647 25.8385 38.6365 26.6474 39.6003 27.4648C39.7543 27.5954 39.8674 27.7744 40 27.9308V28.2442C39.89 28.4876 39.7305 28.6716 39.4487 28.7102C39.167 28.7482 38.9708 28.5698 38.7508 28.3852C38.7508 28.8334 38.7508 29.2314 38.7508 29.6294C38.7508 32.4422 38.752 35.2556 38.7502 38.0684C38.7495 38.9404 38.2398 39.6529 37.4428 39.9123C37.3457 39.9436 37.2473 39.9712 37.1495 40H22.8546V39.9988ZM27.5026 38.7307H32.5021V38.5424C32.5021 36.3416 32.5021 34.1414 32.5021 31.9406C32.5021 31.4647 32.2564 31.2207 31.779 31.2207C30.6013 31.2207 29.4229 31.2207 28.2452 31.2207C27.7367 31.2207 27.5032 31.4531 27.5032 31.9596C27.5032 34.1469 27.5032 36.3342 27.5032 38.5222V38.7307H27.5026Z" fill="white"/>
<path d="M30.001 34.9878C29.9986 35.3288 29.7162 35.609 29.3764 35.609C29.0299 35.609 28.7444 35.3159 28.7524 34.9676C28.7603 34.626 29.0445 34.3513 29.3862 34.3562C29.7254 34.3611 30.0035 34.6469 30.0004 34.9878H30.001Z" fill="white"/>
</svg>
