<svg width="60" height="60" viewBox="0 0 60 60" fill="none" xmlns="http://www.w3.org/2000/svg">
<circle cx="30" cy="30" r="30" fill="#2A2B2E"/>
<path d="M30.6351 20C31.0145 20.0508 31.3972 20.0856 31.7731 20.1558C34.9386 20.7522 37.2998 22.4466 38.841 25.2189C39.8224 26.9835 40.1479 28.8892 39.9402 30.8825C39.5145 34.9693 36.3538 38.4644 32.2744 39.3785C30.4826 39.7797 28.7084 39.7282 26.9629 39.1605C26.5972 39.0415 26.2703 39.1425 25.9325 39.1993C24.4049 39.4561 22.8801 39.7249 21.3532 39.9883C21.1359 40.0258 20.9418 39.9756 20.7981 39.8038C20.6422 39.6172 20.6469 39.4099 20.7403 39.1973C21.1938 38.1649 21.6447 37.1311 22.1037 36.1007C22.1589 35.9763 22.1507 35.8914 22.0669 35.7858C21.2612 34.7654 20.6878 33.6287 20.3452 32.3843C20.004 31.1392 19.9148 29.8741 20.0817 28.5923C20.3207 26.7595 21.0256 25.1179 22.2106 23.6863C23.794 21.7733 25.827 20.5884 28.3032 20.1551C28.6928 20.0869 29.0885 20.0508 29.4814 20C29.8662 20 30.251 20 30.6351 20ZM22.1309 38.7446C22.1902 38.7446 22.2297 38.7499 22.2671 38.7439C23.5066 38.5313 24.7475 38.3274 25.9836 38.0987C26.4617 38.0104 26.9057 38.0091 27.3825 38.1622C29.1484 38.7292 30.9327 38.7199 32.6973 38.1582C37.0614 36.7694 39.6181 32.4853 38.7429 28.0634C37.8208 23.4055 33.0944 20.2909 28.3366 21.235C25.4428 21.8094 23.3125 23.4195 22.0009 26.0099C20.935 28.1142 20.8186 30.3128 21.5473 32.5521C21.8905 33.6066 22.4326 34.5528 23.1552 35.4C23.3629 35.6433 23.395 35.8854 23.2594 36.1736C23.0592 36.5982 22.8787 37.0315 22.6908 37.4614C22.5055 37.8847 22.3223 38.308 22.1316 38.7446H22.1309Z" fill="#838383"/>
<path d="M29.9956 31.6099C28.8828 31.6099 27.77 31.6126 26.6571 31.6086C26.256 31.6072 26.0006 31.2977 26.0939 30.9419C26.1498 30.7286 26.3364 30.5701 26.5598 30.5488C26.6258 30.5427 26.6919 30.5441 26.7586 30.5441C28.9182 30.5441 31.0771 30.5441 33.2367 30.5441C33.6698 30.5441 33.9252 30.7366 33.932 31.0683C33.9395 31.406 33.6773 31.6099 33.2353 31.6106C32.1559 31.6106 31.0757 31.6106 29.9963 31.6106L29.9956 31.6099Z" fill="#838383"/>
<path d="M28.0887 28.9367C27.612 28.9367 27.136 28.9434 26.6592 28.9347C26.2472 28.9273 25.9932 28.607 26.0981 28.2459C26.1655 28.0126 26.3712 27.8615 26.6545 27.8601C27.6141 27.8561 28.5736 27.8548 29.5332 27.8608C29.8738 27.8628 30.1162 28.1035 30.1108 28.4051C30.1053 28.702 29.8724 28.928 29.5373 28.934C29.0545 28.9427 28.5709 28.936 28.0881 28.9367H28.0887Z" fill="#838383"/>
</svg>
