<svg width="58" height="59" viewBox="0 0 58 59" fill="none" xmlns="http://www.w3.org/2000/svg">
<rect width="58" height="59" fill="white"/>
<path d="M22.1898 38.8337V38.3034C22.1898 30.1618 22.1898 22.0182 22.1898 13.8766C22.1898 12.7893 22.9139 11.9979 23.8961 12C24.7843 12 25.5324 12.7194 25.5904 13.63C25.6004 13.7759 25.5944 13.9218 25.5944 14.0678C25.5944 22.1621 25.5944 30.2564 25.5944 38.3487V38.8091H27.8868C27.7108 37.0866 27.5367 35.3683 27.3627 33.652C26.7546 33.3868 26.7306 33.3498 26.7306 32.651C26.7306 32.0302 26.7266 31.4116 26.7306 30.7908C26.7346 30.2913 26.9346 30.0858 27.4247 30.0837C28.1208 30.0796 28.819 30.0837 29.5691 30.0837C29.5691 29.9275 29.5631 29.7878 29.5691 29.648C29.6151 28.5586 29.5431 27.4446 29.7351 26.3819C30.2832 23.3378 33.0497 21.2084 36.1403 21.3379C39.0928 21.4612 41.6432 23.8763 41.9933 26.8958C42.0493 27.3767 42.0573 27.8618 42.0873 28.3695C42.9455 28.6244 43.5296 29.1814 43.7196 30.1187C43.7476 30.2605 43.7596 30.4085 43.7596 30.5524C43.7616 31.9254 43.7596 33.2985 43.7596 34.6715C43.7596 35.2963 43.5116 35.7938 43.0355 36.1822C42.9455 36.2542 42.8575 36.3816 42.8454 36.4926C42.5794 38.992 42.3074 41.4894 42.0753 43.9929C42.0073 44.739 42.0613 45.4995 42.0573 46.2518C42.0553 46.8006 41.8633 47 41.3312 47C32.5436 47 23.7561 47 14.9685 47C14.3764 47 14.1584 46.7081 14.3004 46.1141C14.5424 45.1008 14.7605 44.0792 15.0406 43.0782C15.3046 42.1327 15.4126 41.1852 15.3826 40.2047C15.3526 39.2859 15.8107 38.8337 16.6968 38.8337C18.3891 38.8337 20.0794 38.8337 21.7717 38.8337C21.8998 38.8337 22.0258 38.8337 22.1898 38.8337ZM29.037 38.8337C29.7651 38.8337 30.4713 38.8317 31.1774 38.8337C31.9435 38.8379 32.4036 39.3147 32.4096 40.1102C32.4116 40.5233 32.3636 40.9426 32.4196 41.3475C32.5196 42.0711 32.6817 42.7843 32.8137 43.477H40.9831C41.2232 41.1317 41.4612 38.805 41.6972 36.5029C41.4172 36.3549 41.1671 36.2233 40.9151 36.0897C40.0309 36.6406 39.7029 36.6406 38.6267 36.0856C37.8726 36.657 37.1204 36.6303 36.3763 36.0712C35.7622 36.5378 35.1141 36.6632 34.442 36.2768C33.7778 35.8945 33.5158 35.2758 33.5398 34.507C33.5498 34.207 33.5398 33.9089 33.5398 33.6047H28.4949C28.675 35.3518 28.851 37.0743 29.031 38.8337H29.037ZM40.9511 28.3325C40.9211 27.8536 40.9191 27.4261 40.8651 27.0088C40.545 24.5896 38.6287 22.7314 36.2443 22.5136C33.9339 22.3019 31.7435 23.7797 30.9813 26.051C30.5413 27.3644 30.7713 28.7148 30.6993 30.0837H33.5578C34.0579 28.7559 34.662 28.3346 36.0342 28.3346C37.0504 28.3346 38.0686 28.3346 39.0848 28.3346H40.9511V28.3325ZM39.2228 32.4249C39.2228 32.542 39.2228 32.6243 39.2228 32.7065C39.2228 33.3868 39.2148 34.0672 39.2288 34.7475C39.2348 35.0949 39.4809 35.3292 39.7909 35.3292C40.099 35.3292 40.335 35.0949 40.357 34.7496C40.369 34.5564 40.361 34.3611 40.361 34.1658C40.361 33.5883 40.361 33.0107 40.361 32.4331H41.4972C41.4972 33.1648 41.4972 33.8781 41.4972 34.5913C41.4972 35.0538 41.7072 35.3251 42.0533 35.3272C42.3994 35.3292 42.6294 35.0476 42.6294 34.6016C42.6314 33.2779 42.6334 31.9521 42.6294 30.6284C42.6274 29.907 42.2293 29.5 41.5272 29.4979C39.6109 29.4938 37.6965 29.4938 35.7802 29.4979C35.0801 29.4979 34.686 29.909 34.684 30.6346C34.68 31.7281 34.684 32.8216 34.684 33.9151C34.684 34.1946 34.672 34.4742 34.692 34.7537C34.716 35.0908 34.9761 35.3354 35.2701 35.3272C35.5762 35.3189 35.7982 35.0785 35.8182 34.729C35.8262 34.5954 35.8202 34.4618 35.8202 34.3282C35.8202 33.6993 35.8202 33.0724 35.8202 32.4393H36.9564C36.9564 33.1546 36.9564 33.8452 36.9564 34.5379C36.9564 35.0579 37.1604 35.3354 37.5325 35.3292C37.9026 35.3231 38.0906 35.0497 38.0926 34.5214C38.0926 34.059 38.0926 33.5985 38.0926 33.1361C38.0926 32.8997 38.0926 32.6633 38.0926 32.4249H39.2288H39.2228ZM24.4622 38.8173V38.5213C24.4622 30.3222 24.4622 22.123 24.4622 13.9218C24.4622 13.8376 24.4702 13.7492 24.4522 13.667C24.3902 13.3545 24.2022 13.1654 23.8881 13.1695C23.574 13.1737 23.388 13.3648 23.334 13.6793C23.316 13.7862 23.326 13.8972 23.326 14.0061C23.326 22.1456 23.326 30.2831 23.326 38.4227V38.8152H24.4622V38.8173ZM16.5288 41.1399H31.2574V40.0177H16.5288V41.1399ZM40.8971 45.8243V44.6876H33.1457C33.2438 45.0843 33.3338 45.4543 33.4238 45.8243H40.8971ZM33.5298 31.2738H27.8968V32.3982H33.5298V31.2738ZM22.8379 45.8078H24.9523C24.8103 44.6424 24.6702 43.5016 24.5282 42.3506H23.26C23.118 43.5037 22.9799 44.6424 22.8359 45.8078H22.8379ZM21.6917 45.8181C21.8337 44.6424 21.9718 43.5037 22.1138 42.3465H20.9276C20.6475 43.4996 20.3695 44.6506 20.0874 45.8181H21.6917ZM26.8626 42.3588H25.6744C25.8184 43.5263 25.9565 44.665 26.0985 45.8161H27.7028C27.4187 44.6445 27.1387 43.4975 26.8626 42.3588ZM16.3868 42.3444C16.1067 43.4996 15.8267 44.6465 15.5426 45.8161H16.6428C16.9229 44.6568 17.2009 43.5099 17.483 42.3444H16.3868ZM18.6552 42.3444C18.3731 43.5099 18.0971 44.6547 17.815 45.8181H18.9112C19.1913 44.663 19.4693 43.514 19.7534 42.3444H18.6532H18.6552ZM28.0328 42.3444C28.3169 43.516 28.5969 44.663 28.875 45.8078H29.9752C29.6891 44.6321 29.4091 43.4852 29.131 42.3444H28.0348H28.0328ZM32.2456 45.8161C31.9615 44.6465 31.6835 43.4996 31.4034 42.3485H30.3032C30.5893 43.5222 30.8693 44.6712 31.1474 45.8161H32.2436H32.2456Z" fill="#A07B0A"/>
<path d="M43.1994 24.382C42.9754 24.1703 42.7493 24.0531 42.6793 23.8722C42.3092 22.9123 41.6771 22.2546 40.741 21.8661C40.5689 21.7942 40.3909 21.5105 40.3849 21.3194C40.3789 21.1467 40.5669 20.8733 40.733 20.8055C41.6671 20.4211 42.3032 19.7655 42.6793 18.8056C42.7453 18.635 43.0114 18.4418 43.1794 18.4479C43.3654 18.4541 43.6415 18.637 43.7115 18.8138C44.0876 19.7572 44.7097 20.4068 45.6298 20.7932C45.8059 20.8672 45.9999 21.1447 45.9999 21.3297C45.9999 21.5146 45.8099 21.7983 45.6358 21.8723C44.7157 22.2587 44.0836 22.898 43.7175 23.8496C43.6435 24.0408 43.4135 24.1682 43.1974 24.384L43.1994 24.382ZM43.2054 20.4438C42.9213 20.7336 42.5933 21.0666 42.3393 21.3276C42.6193 21.6236 42.9374 21.9566 43.1874 22.2197C43.4755 21.936 43.8055 21.6112 44.0736 21.3482C43.7855 21.0481 43.4674 20.7171 43.2054 20.4458V20.4438Z" fill="#A07B0A"/>
<path d="M21.1816 28.3305C20.9735 28.5566 20.8515 28.795 20.6675 28.8711C19.7313 29.2534 19.1012 29.9132 18.7251 30.871C18.6591 31.0395 18.3931 31.2204 18.2171 31.2204C18.043 31.2204 17.773 31.0437 17.707 30.8751C17.3289 29.9029 16.6848 29.241 15.7366 28.8526C15.5746 28.7868 15.4026 28.5072 15.4046 28.3264C15.4046 28.1475 15.5826 27.8742 15.7466 27.8063C16.6808 27.4199 17.3189 26.7704 17.697 25.8105C17.767 25.6337 18.043 25.4529 18.2291 25.4446C18.3971 25.4385 18.6631 25.6337 18.7291 25.8043C19.1032 26.7642 19.7413 27.4179 20.6775 27.8002C20.8535 27.8721 20.9715 28.1003 21.1816 28.3284V28.3305ZM18.201 29.2205C18.4971 28.9266 18.8232 28.6018 19.0832 28.3428C18.8012 28.0468 18.4831 27.7118 18.2171 27.4343C17.935 27.7221 17.6109 28.0489 17.3509 28.314C17.6249 28.6059 17.939 28.943 18.201 29.2205Z" fill="#A07B0A"/>
<path d="M14.8025 38.3815C14.5845 38.1657 14.3564 38.0383 14.2824 37.8471C13.9143 36.8975 13.2862 36.2542 12.3641 35.8698C12.19 35.7978 12 35.5142 12 35.3292C12 35.1442 12.1961 34.8647 12.3701 34.7927C13.2922 34.4084 13.9143 33.7589 14.2884 32.8133C14.3584 32.6366 14.6325 32.4536 14.8205 32.4454C14.9885 32.4393 15.2546 32.6325 15.3226 32.8031C15.6986 33.763 16.3348 34.4145 17.2689 34.803C17.435 34.8708 17.623 35.1463 17.617 35.3169C17.611 35.5101 17.433 35.7937 17.2609 35.8636C16.3268 36.2521 15.6926 36.9078 15.3226 37.8677C15.2526 38.0485 15.0265 38.1657 14.8025 38.3795V38.3815ZM14.8245 34.4536C14.5284 34.7352 14.1964 35.0538 13.9263 35.3128C14.2204 35.6231 14.5365 35.9561 14.8045 36.2398C15.0885 35.9479 15.4106 35.617 15.6667 35.3559C15.3966 35.0661 15.0805 34.729 14.8245 34.4536Z" fill="#A07B0A"/>
<path d="M38.6787 39.4339H39.7709V42.3054H38.6787V39.4339Z" fill="#A07B0A"/>
<path d="M39.771 38.2356H38.6768V37.1051H39.771V38.2356Z" fill="#A07B0A"/>
</svg>
