<svg width="187" height="434" viewBox="0 0 187 434" fill="none" xmlns="http://www.w3.org/2000/svg">
<path d="M53.4268 243.463C53.4268 190.901 62.7858 143.338 77.897 108.935C85.4529 91.7324 94.4371 77.8426 104.388 68.2603C114.337 58.6803 125.227 53.4268 136.617 53.4268C148.008 53.4268 158.898 58.6803 168.847 68.2603C178.798 77.8426 187.782 91.7324 195.338 108.935C210.449 143.338 219.808 190.901 219.808 243.463C219.808 296.026 210.449 343.589 195.338 377.992C187.782 395.194 178.798 409.084 168.847 418.667C158.898 428.246 148.008 433.5 136.617 433.5C125.227 433.5 114.337 428.246 104.388 418.667C94.4371 409.084 85.4529 395.194 77.897 377.992C62.7858 343.589 53.4268 296.026 53.4268 243.463Z" stroke="#FFBC11"/>
<path d="M40.1951 230.232C40.1951 177.669 49.5542 130.106 64.6653 95.7031C72.2212 78.5007 81.2054 64.6109 91.1564 55.0286C101.105 45.4486 111.995 40.1951 123.386 40.1951C134.776 40.1951 145.667 45.4486 155.615 55.0286C165.566 64.6109 174.55 78.5007 182.106 95.7031C197.217 130.106 206.576 177.669 206.576 230.232C206.576 282.794 197.217 330.357 182.106 364.76C174.55 381.963 165.566 395.853 155.615 405.435C145.667 415.015 134.776 420.268 123.386 420.268C111.995 420.268 101.105 415.015 91.1564 405.435C81.2054 395.853 72.2212 381.963 64.6653 364.76C49.5542 330.357 40.1951 282.794 40.1951 230.232Z" stroke="#FFBC11"/>
<path d="M26.9634 217C26.9634 164.437 36.3225 116.875 51.4336 82.4714C58.9895 65.269 67.9737 51.3792 77.9247 41.7969C87.8732 32.2169 98.7635 26.9634 110.154 26.9634C121.545 26.9634 132.435 32.2169 142.383 41.7969C152.334 51.3792 161.318 65.269 168.874 82.4714C183.986 116.875 193.345 164.437 193.345 217C193.345 269.563 183.986 317.125 168.874 351.529C161.318 368.731 152.334 382.621 142.383 392.203C132.435 401.783 121.545 407.037 110.154 407.037C98.7635 407.037 87.8732 401.783 77.9247 392.203C67.9737 382.621 58.9895 368.731 51.4336 351.529C36.3225 317.125 26.9634 269.563 26.9634 217Z" stroke="#FFBC11"/>
<path d="M13.7317 203.768C13.7317 151.206 23.0907 103.643 38.2019 69.2397C45.7578 52.0373 54.742 38.1475 64.693 28.5652C74.6414 18.9852 85.5318 13.7317 96.9223 13.7317C108.313 13.7317 119.203 18.9852 129.152 28.5652C139.103 38.1475 148.087 52.0373 155.643 69.2397C170.754 103.643 180.113 151.206 180.113 203.768C180.113 256.331 170.754 303.894 155.643 338.297C148.087 355.499 139.103 369.389 129.152 378.971C119.203 388.551 108.313 393.805 96.9223 393.805C85.5318 393.805 74.6414 388.551 64.693 378.971C54.742 369.389 45.7578 355.499 38.2019 338.297C23.0907 303.894 13.7317 256.331 13.7317 203.768Z" stroke="#FFBC11"/>
<path d="M0.5 190.537C0.5 137.974 9.85902 90.4112 24.9702 56.008C32.5261 38.8056 41.5103 24.9158 51.4612 15.3335C61.4097 5.75351 72.3 0.5 83.6906 0.5C95.0811 0.5 105.971 5.75351 115.92 15.3335C125.871 24.9158 134.855 38.8056 142.411 56.008C157.522 90.4112 166.881 137.974 166.881 190.537C166.881 243.099 157.522 290.662 142.411 325.065C134.855 342.268 125.871 356.157 115.92 365.74C105.971 375.32 95.0811 380.573 83.6906 380.573C72.3 380.573 61.4097 375.32 51.4612 365.74C41.5103 356.157 32.5261 342.268 24.9702 325.065C9.85902 290.662 0.5 243.099 0.5 190.537Z" stroke="#FFBC11"/>
</svg>
