<svg width="325" height="153" viewBox="0 0 325 153" fill="none" xmlns="http://www.w3.org/2000/svg">
<path d="M274.305 57.7303C270.046 56.2558 267.136 53.6976 263.854 49.9507L265.242 46.9934C268.687 51.5553 269.816 54.0239 274.121 53.6672L274.304 57.7303H274.305Z" fill="#FFB900"/>
<path d="M323.197 123.25C320.029 119.13 318.615 114.899 317.44 109.343L320.14 107.551C321.07 113.956 320.901 116.943 325 119.424L323.197 123.248V123.25Z" fill="#007BFF"/>
<path d="M217.084 68.8576C212.6 69.9718 208.872 69.3327 204.299 67.8278L204.291 64.3532C209.36 66.4989 211.438 68.0849 215.18 65.2882L217.084 68.8593V68.8576Z" fill="#14CCA1"/>
<path d="M101.808 54.7239C99.6875 57.7387 97.3068 59.3501 94.1027 60.9141L92.7263 58.9358C96.4665 57.4732 98.279 57.2771 99.3104 53.6959L101.806 54.7239H101.808Z" fill="#FF5C33"/>
<path d="M28.0532 142.445C23.0162 142.698 19.2456 141.305 14.8123 138.86L15.7253 135.303C20.5138 138.502 22.2891 140.536 26.988 138.414L28.0532 142.445Z" fill="#007BFF"/>
<path d="M37.238 56.1053C33.3948 53.312 31.3827 49.888 29.4585 45.1824L32.0742 42.7324C33.8479 48.2851 34.0407 51.0564 38.6583 52.0743L37.238 56.1036V56.1053Z" fill="#14CCA1"/>
<path d="M60.2316 86.9208C55.8776 89.961 51.7689 90.8453 46.5087 91.175L45.4215 87.5363C51.402 87.6716 54.0718 88.4663 57.1272 83.972L60.2316 86.9208Z" fill="#007BFF"/>
<path d="M122.586 3.08409C118.219 5.65247 114.22 6.16987 109.146 6.06165L108.319 2.47708C114.056 3.09085 116.575 4.07154 119.781 0L122.586 3.08409Z" fill="#FFB900"/>
<path d="M184.481 11.9408C180.841 10.1451 178.487 7.54631 175.907 3.85182L177.39 1.39673C180.044 5.82841 180.831 8.14317 184.667 8.32578L184.479 11.9391L184.481 11.9408Z" fill="#14CCA1"/>
<path d="M241.148 26.147C245.131 23.8001 247.341 20.738 249.546 16.4703L247.11 13.9966C245.001 19.0675 244.634 21.646 239.996 22.2784L241.148 26.1453V26.147Z" fill="#FF5C33"/>
<g opacity="0.84">
<path d="M110 152.202C105.984 149.81 103.487 146.628 100.813 142.177L102.675 139.525C105.382 144.824 106.113 147.534 110.468 148.107L109.998 152.204L110 152.202Z" fill="#FF5C33"/>
</g>
<path d="M242.834 116.21C241.236 121.187 238.767 124.486 235.218 128.143L232.689 126.285C236.972 122.488 239.239 121.309 239.215 116.152L242.832 116.21H242.834Z" fill="#FF5C33"/>
<path d="M77.9126 35.5075C78.8465 35.5075 79.6035 34.7505 79.6035 33.8166C79.6035 32.8828 78.8465 32.1258 77.9126 32.1258C76.9788 32.1258 76.2218 32.8828 76.2218 33.8166C76.2218 34.7505 76.9788 35.5075 77.9126 35.5075Z" fill="#FF5C33"/>
<path d="M212.277 35.5075C213.211 35.5075 213.968 34.7505 213.968 33.8166C213.968 32.8828 213.211 32.1258 212.277 32.1258C211.343 32.1258 210.586 32.8828 210.586 33.8166C210.586 34.7505 211.343 35.5075 212.277 35.5075Z" fill="#FFB900"/>
<path d="M256.465 87.0223C257.399 87.0223 258.156 86.2653 258.156 85.3315C258.156 84.3976 257.399 83.6406 256.465 83.6406C255.531 83.6406 254.774 84.3976 254.774 85.3315C254.774 86.2653 255.531 87.0223 256.465 87.0223Z" fill="#FF5C33"/>
<path d="M80.618 104.156C81.5518 104.156 82.3088 103.399 82.3088 102.465C82.3088 101.531 81.5518 100.774 80.618 100.774C79.6841 100.774 78.9271 101.531 78.9271 102.465C78.9271 103.399 79.6841 104.156 80.618 104.156Z" fill="#14CCA1"/>
<path d="M3.53058 84.2603L0.149414 87.6415L3.53057 91.0227L6.91174 87.6415L3.53058 84.2603Z" fill="#FFB900"/>
<path d="M297.187 78.7227L293.806 82.1038L297.187 85.485L300.568 82.1038L297.187 78.7227Z" fill="#14CCA1"/>
</svg>
