<svg width="60" height="60" viewBox="0 0 60 60" fill="none" xmlns="http://www.w3.org/2000/svg">
<rect width="60" height="60" fill="#1E1E1E"/>
<g id="Home">
<g clip-path="url(#clip0_0_1)">
<rect x="-20" y="-20" width="375" height="812" rx="15" fill="#EEF2F5"/>
<circle id="Ellipse 48" cx="35" cy="126" r="187" fill="#FFBC11"/>
<g id="Group 235">
<circle id="Ellipse 49" cx="30" cy="30" r="30" fill="#F9D884"/>
<path id="Vector" d="M20 30C20 29.2636 20.597 28.6667 21.3333 28.6667H33.6667C34.403 28.6667 35 29.2636 35 30C35 30.7364 34.403 31.3333 33.6667 31.3333H21.3333C20.597 31.3333 20 30.7364 20 30ZM20 23.3333C20 22.597 20.597 22 21.3333 22H38.6667C39.403 22 40 22.597 40 23.3333C40 24.0697 39.403 24.6667 38.6667 24.6667H21.3333C20.597 24.6667 20 24.0697 20 23.3333ZM20 36.6667C20 37.403 20.597 38 21.3333 38H27.7104C28.4468 38 29.0437 37.403 29.0437 36.6667C29.0437 35.9303 28.4468 35.3333 27.7104 35.3333H21.3333C20.597 35.3333 20 35.9303 20 36.6667Z" fill="#464646"/>
</g>
</g>
</g>
<defs>
<clipPath id="clip0_0_1">
<rect x="-20" y="-20" width="375" height="812" rx="15" fill="white"/>
</clipPath>
</defs>
</svg>
