<svg width="106" height="102" viewBox="0 0 106 102" fill="none" xmlns="http://www.w3.org/2000/svg">
<g id="Group 258">
<g id="Ellipse 51" filter="url(#filter0_d_1_419)">
<circle cx="53" cy="49" r="33" fill="#545454"/>
</g>
<path id="+" d="M61 48.7358C61 49.4569 60.4154 50.0415 59.6943 50.0415H46.3057C45.5846 50.0415 45 49.4569 45 48.7358C45 48.0148 45.5846 47.4302 46.3057 47.4302H59.6943C60.4154 47.4302 61 48.0148 61 48.7358ZM54.507 55.501C54.507 56.3289 53.8359 57 53.008 57C52.1801 57 51.509 56.3289 51.509 55.501V42.499C51.509 41.6711 52.1801 41 53.008 41C53.8359 41 54.507 41.6711 54.507 42.499V55.501Z" fill="white"/>
</g>
<defs>
<filter id="filter0_d_1_419" x="0" y="0" width="106" height="106" filterUnits="userSpaceOnUse" color-interpolation-filters="sRGB">
<feFlood flood-opacity="0" result="BackgroundImageFix"/>
<feColorMatrix in="SourceAlpha" type="matrix" values="0 0 0 0 0 0 0 0 0 0 0 0 0 0 0 0 0 0 127 0" result="hardAlpha"/>
<feOffset dy="4"/>
<feGaussianBlur stdDeviation="10"/>
<feComposite in2="hardAlpha" operator="out"/>
<feColorMatrix type="matrix" values="0 0 0 0 0 0 0 0 0 0 0 0 0 0 0 0 0 0 0.25 0"/>
<feBlend mode="normal" in2="BackgroundImageFix" result="effect1_dropShadow_1_419"/>
<feBlend mode="normal" in="SourceGraphic" in2="effect1_dropShadow_1_419" result="shape"/>
</filter>
</defs>
</svg>
