<svg width="58" height="59" viewBox="0 0 58 59" fill="none" xmlns="http://www.w3.org/2000/svg">
<g id="Group 243">
<rect id="Rectangle 189" width="58" height="59" fill="white"/>
<g id="Group">
<path id="Vector" d="M32.1184 12C32.5015 12.1354 32.7569 12.4158 32.9846 12.7534C34.5059 15.0079 36.0384 17.2547 37.5635 19.5072C37.6782 19.6751 37.7948 19.7476 38.0058 19.7819C38.2742 19.8277 38.5777 19.9402 38.7665 20.1309C39.9733 21.3364 41.1578 22.5685 42.3405 23.8006C42.8291 24.3099 42.818 24.9851 42.3182 25.5077C41.5576 26.3049 40.795 27.0984 40.014 27.8747C39.8048 28.0807 39.7993 28.2485 39.9122 28.4965C40.2398 29.2155 40.7654 29.7419 41.4095 30.1425C41.9388 30.4724 42.4978 30.7509 43.0308 31.0733C43.649 31.449 44.2783 31.8114 44.8576 32.2443C46.1661 33.2228 46.3826 35.1053 45.3406 36.3813C44.9797 36.8238 44.5762 37.2415 44.145 37.6135C42.9012 38.6854 41.0763 38.468 40.1343 37.108C39.6235 36.3699 39.2181 35.5536 38.7647 34.7754C38.4408 34.2203 38.1372 33.6481 37.7837 33.1141C37.4561 32.6182 36.999 32.2558 36.4623 32.0021C36.2439 31.8991 36.0939 31.9068 35.9144 32.0994C35.3888 32.6697 34.8465 33.2228 34.2968 33.7702C34.1302 33.9361 34.0728 34.1078 34.0747 34.3405C34.0803 37.4647 34.0617 40.5889 34.0914 43.7131C34.0988 44.5142 33.773 45.0291 33.1382 45.4068C32.3127 45.897 31.4077 46.1507 30.486 46.3433C27.8837 46.8907 25.2463 47.0337 22.5978 46.9937C20.4397 46.9613 18.2872 46.8106 16.1717 46.3395C15.4407 46.1754 14.7281 45.9218 14.0211 45.6662C13.7139 45.5556 13.4307 45.3572 13.1642 45.1569C12.757 44.8518 12.5608 44.4379 12.5627 43.8962C12.5719 39.187 12.5663 34.4778 12.5719 29.7686C12.5719 29.5283 12.5256 29.3471 12.3517 29.1659C12.1962 29.0038 12.1148 28.7635 12 28.5594C12 27.6248 12 26.6883 12 25.7537C12.2221 25.1949 12.6367 24.8115 13.1605 24.6017C13.8878 24.3099 14.63 24.0352 15.387 23.8445C17.025 23.4344 18.7018 23.2933 20.3786 23.1674C20.4897 23.1598 20.6267 23.1273 20.7007 23.0529C21.2522 22.4941 21.789 21.9181 22.3368 21.3535C22.8476 20.8271 23.2918 20.7623 23.9193 21.1151C24.3431 21.3535 24.7632 21.5958 25.1926 21.8418C25.2 21.7941 25.213 21.7674 25.2056 21.7522C24.9927 21.3535 24.778 20.9549 24.5652 20.5563C24.1784 19.8353 24.2395 19.3928 24.8021 18.8111C26.7732 16.7798 28.7425 14.7446 30.7192 12.7191C30.9801 12.452 31.2929 12.2384 31.5816 12C31.7593 12 31.9352 12 32.1128 12L32.1184 12ZM13.7231 30.0376C13.7157 30.1539 13.7046 30.2417 13.7046 30.3313C13.7046 34.8364 13.7046 39.3415 13.699 43.8447C13.699 44.1117 13.7897 44.291 14.0118 44.3883C14.4264 44.5733 14.8373 44.7774 15.2685 44.9071C17.0509 45.443 18.885 45.6528 20.7322 45.7558C23.8563 45.9313 26.9713 45.8703 30.0492 45.2351C30.8968 45.0597 31.7168 44.7259 32.5404 44.4417C32.8421 44.3387 32.9531 44.1003 32.9513 43.7493C32.9364 40.9208 32.9438 38.0922 32.942 35.2656C32.942 35.1435 32.9309 35.0233 32.9253 34.8688C32.3756 34.947 32.0351 34.638 31.7001 34.2852C30.6988 33.2362 29.6864 32.1986 28.6703 31.1667C28.5741 31.0694 28.4093 30.9893 28.2798 30.9951C26.4567 31.0694 24.6355 31.2163 22.8125 31.2335C20.1751 31.2564 17.5525 31.0389 14.978 30.4057C14.5634 30.3046 14.1562 30.1654 13.725 30.0376H13.7231ZM31.9166 13.2226C30.8598 14.306 29.8141 15.3779 28.7573 16.4612C28.8128 16.5318 28.8795 16.6214 28.9498 16.7073C30.0751 18.0996 31.2022 19.492 32.3257 20.8862C32.594 21.22 32.5848 21.5652 32.3201 21.7922C32.0518 22.0211 31.7316 21.9639 31.4558 21.6301C31.0338 21.117 30.6192 20.5982 30.2009 20.0813C29.444 19.1448 28.687 18.2103 27.9096 17.249C27.1434 18.0424 26.3994 18.8206 25.6442 19.5854C25.4888 19.7418 25.4795 19.8544 25.585 20.047C26.094 20.9663 26.5863 21.8971 27.086 22.8241C27.3636 23.339 27.3821 23.587 27.1434 23.814C26.801 24.1401 26.4919 23.9227 26.1791 23.7434C25.2074 23.1846 24.2321 22.6276 23.2844 22.084C22.7292 22.6524 22.1962 23.1979 21.652 23.7548C23.9896 25.4409 26.3346 27.1327 28.6314 28.7902C31.3595 25.9788 34.0617 23.1922 36.7825 20.3884C35.1741 18.0214 33.5454 15.622 31.9148 13.2207L31.9166 13.2226ZM29.2626 29.9651C30.4267 31.1648 31.6187 32.3931 32.7773 33.5852C35.646 30.6308 38.574 27.6134 41.4632 24.6379C40.3027 23.4401 39.1163 22.2156 37.9485 21.0102C35.0556 23.9933 32.1424 26.9973 29.2626 29.9651ZM37.0823 30.9989C38.1595 31.5463 38.848 32.4942 39.4162 33.5566C39.6198 33.9342 39.7937 34.3291 40.0066 34.7029C40.3305 35.2713 40.647 35.8473 41.0153 36.3852C41.6112 37.253 42.7106 37.3731 43.4805 36.6732C43.8192 36.3642 44.1431 36.0342 44.4411 35.6833C45.1037 34.8993 44.989 33.7645 44.1654 33.1637C43.6268 32.7708 43.0475 32.4351 42.4756 32.0918C42.085 31.8572 41.6742 31.6588 41.2781 31.4318C40.2916 30.8615 39.4291 30.1539 38.9201 29.0973C38.302 29.7381 37.7042 30.3561 37.0823 31.0008V30.9989ZM27.98 29.8697C27.9874 29.8354 27.9948 29.7992 28.0022 29.7648C27.6524 29.5112 27.3118 29.2384 26.9454 29.0095C26.7788 28.9046 26.5622 28.8245 26.3716 28.8341C23.4177 28.9847 20.4712 28.9542 17.5358 28.5575C16.1754 28.3744 14.8299 28.1207 13.5454 27.6076C13.4177 27.5561 13.29 27.5085 13.1512 27.4551C13.1308 28.4717 12.9384 28.4354 13.9452 28.8207C14.8484 29.1659 15.8034 29.4024 16.7566 29.576C19.444 30.0643 22.1628 30.1387 24.8854 30.0566C25.9181 30.0242 26.9509 29.9346 27.9818 29.8697H27.98ZM21.8686 25.4352C21.8778 25.4123 21.8889 25.3894 21.8982 25.3646C21.7038 25.2216 21.5058 25.0804 21.3133 24.9336C21.1282 24.7905 20.9561 24.6284 20.7655 24.4968C20.6581 24.4224 20.5193 24.3423 20.4009 24.3518C19.3774 24.4434 18.3539 24.5273 17.3359 24.6646C16.131 24.8268 14.9372 25.0556 13.8082 25.5477C13.5713 25.6507 13.3548 25.809 13.1197 25.9464C13.4547 26.3488 13.9082 26.5853 14.1803 26.5014C16.1181 25.8968 18.1114 25.666 20.1195 25.5344C20.7025 25.4962 21.2856 25.4676 21.8686 25.4352ZM25.0797 27.6515C24.6115 27.3139 24.1432 26.9744 23.6713 26.6444C23.6046 26.5987 23.5047 26.5891 23.4214 26.5872C21.0875 26.5681 18.7684 26.7455 16.466 27.169C19.307 27.7106 22.1758 27.8194 25.0816 27.6515H25.0797Z" fill="#A07B0A"/>
<path id="Vector_2" d="M23.3363 43.5109C21.082 43.5052 19.5144 41.1516 20.3306 38.9238C20.9395 37.2644 21.6169 35.6318 22.2665 33.9877C22.4572 33.5051 22.8181 33.2381 23.3141 33.2343C23.812 33.2285 24.1821 33.486 24.3728 33.9686C25.0298 35.6222 25.7128 37.2644 26.3217 38.9372C27.0361 40.8998 25.9034 43.0112 23.96 43.4385C23.7564 43.4823 23.5436 43.488 23.3363 43.5109ZM23.3215 34.392C23.0846 34.9947 22.8791 35.5211 22.6719 36.0476C22.2462 37.1347 21.7983 38.2124 21.3985 39.3091C21.0802 40.1826 21.243 41.0047 21.8593 41.6894C22.422 42.315 23.1438 42.4714 23.9286 42.2387C25.0761 41.8973 25.6905 40.5317 25.25 39.3053C25.0057 38.6225 24.7189 37.9549 24.4523 37.2816C24.084 36.3432 23.7176 35.4048 23.3196 34.392H23.3215Z" fill="#A07B0A"/>
<path id="Vector_3" d="M14.8393 39.0955C14.8393 37.9339 14.8393 36.7704 14.8393 35.6089C14.8393 35.4944 14.8337 35.38 14.8504 35.2675C14.8892 34.968 15.0614 34.7945 15.3519 34.7697C15.6407 34.7449 15.848 34.8803 15.9294 35.1702C15.9646 35.298 15.9701 35.4391 15.9701 35.5746C15.972 37.9454 15.972 40.3143 15.9701 42.6851C15.9701 42.8205 15.9646 42.9616 15.9294 43.0894C15.8461 43.3793 15.6407 43.5148 15.3519 43.49C15.0614 43.4652 14.8892 43.2897 14.8504 42.9921C14.8356 42.8796 14.8411 42.7652 14.8393 42.6507C14.8393 41.4663 14.8393 40.2799 14.8393 39.0955Z" fill="#A07B0A"/>
<path id="Vector_4" d="M14.8448 32.6964C14.8392 32.1051 15.0169 31.8381 15.4074 31.8438C15.7924 31.8476 15.9738 32.1261 15.9719 32.7097C15.9719 32.8452 15.9738 32.9844 15.9479 33.116C15.8849 33.4288 15.6443 33.61 15.3464 33.5738C15.0428 33.5375 14.8726 33.3525 14.8466 33.0378C14.8374 32.9253 14.8466 32.8108 14.8466 32.6983L14.8448 32.6964Z" fill="#A07B0A"/>
<path id="Vector_5" d="M38.6074 23.3581C38.4852 23.5698 38.426 23.7377 38.3168 23.8521C36.8843 25.3398 35.4443 26.8218 34.0044 28.3019C33.7268 28.5861 33.3844 28.5975 33.153 28.3515C32.9143 28.0997 32.9309 27.7659 33.2123 27.4741C34.6411 25.9978 36.0718 24.5235 37.5024 23.0491C37.6968 22.8488 37.9318 22.7153 38.1835 22.8755C38.352 22.9824 38.4612 23.1845 38.6092 23.3581H38.6074Z" fill="#A07B0A"/>
<path id="Vector_6" d="M30.9821 30.0891C31.0117 29.6504 31.5836 29.0153 31.8927 29.0381C32.0759 29.0515 32.3202 29.1564 32.4091 29.3033C32.4979 29.4501 32.496 29.7419 32.4091 29.8945C32.2739 30.131 32.0593 30.3504 31.8297 30.4858C31.6817 30.5735 31.4133 30.5564 31.2523 30.4744C31.1061 30.3981 31.0339 30.1711 30.9802 30.0872L30.9821 30.0891Z" fill="#A07B0A"/>
</g>
</g>
</svg>
