<svg width="58" height="59" viewBox="0 0 58 59" fill="none" xmlns="http://www.w3.org/2000/svg">
<g id="Group 250">
<g id="Group 248">
<rect id="Rectangle 191" width="58" height="59" fill="white"/>
<g id="Group">
<path id="Vector" d="M39.3995 37.9964H37.3493C37.1375 38.3197 37.0108 38.6899 36.7555 38.8613C36.485 39.0424 36.0954 39.0463 35.755 39.1048C35.5886 39.134 35.4127 39.1106 35.2425 39.1106C34.433 39.1106 34.0869 38.8243 33.9016 37.9944H24.1899C23.9686 38.3256 23.8192 38.6626 23.5734 38.8905C23.1989 39.2372 21.6216 39.2372 21.2452 38.8924C21.005 38.6723 20.8556 38.347 20.6154 37.9983H19.6811V40.106C19.9951 40.3223 20.3544 40.4547 20.519 40.7158C20.6949 40.9943 20.6986 41.3956 20.7573 41.7463C20.7856 41.9177 20.7629 42.0988 20.7629 42.2742C20.7629 43.1079 20.4868 43.4644 19.6717 43.6572V46.9922H14.1908V43.6689C13.3265 43.4391 13.0825 43.1099 13.0825 42.2118C13.0825 41.9878 13.0825 41.7638 13.0825 41.5417C13.0825 40.7625 13.3889 40.3846 14.1794 40.2171C14.1794 40.1002 14.1794 39.9755 14.1794 39.8509C14.1794 38.6976 14.1757 37.5444 14.1794 36.3912C14.187 34.0556 15.8532 32.3413 18.1227 32.3316C18.9908 32.3277 19.857 32.3316 20.7194 32.3316C20.9634 31.4297 21.2603 31.2018 22.1644 31.2018C22.3365 31.2018 22.5067 31.2018 22.6788 31.2018C23.5507 31.2018 23.8665 31.4511 24.0878 32.3199H26.7734V30.07C26.0906 30.1148 25.4419 30.0427 24.9767 29.4466C24.7157 29.1135 24.589 28.7317 24.606 28.3012C24.6438 27.2805 25.2944 26.7818 26.781 26.659C26.8396 25.9208 27.1138 25.2877 27.7228 24.8416C28.1483 24.5299 28.623 24.3916 29.1431 24.4247C30.2552 24.4948 31.0495 25.3519 31.2046 26.6805C31.3786 26.6805 31.5583 26.6766 31.738 26.6805C32.6552 26.7 33.3758 27.4382 33.3815 28.3635C33.3871 29.3025 32.6628 30.0505 31.7266 30.07C31.5583 30.0739 31.39 30.07 31.2046 30.07V32.3043H33.8959C34.1342 31.4277 34.4311 31.1998 35.3333 31.1998C35.5054 31.1998 35.6756 31.1998 35.8477 31.1998C36.7195 31.1998 37.0354 31.4492 37.2567 32.318H39.3938V31.2329C38.5597 31.0031 38.3196 30.6797 38.3196 29.7856C38.3196 29.6083 38.3196 29.433 38.3196 29.2557C38.3196 28.3226 38.5427 28.0148 39.4165 27.7675V22.1826H38.3479C38.1418 23.026 37.8127 23.291 36.9749 23.291C36.7574 23.291 36.5399 23.291 36.3243 23.291C35.5375 23.291 35.1706 22.9851 35.0098 22.1806H31.772C31.5394 23.0592 31.2349 23.291 30.3309 23.291C30.1701 23.291 30.0112 23.291 29.8505 23.291C28.9465 23.291 28.642 23.0572 28.4055 22.1611C27.5677 22.1611 26.7223 22.1514 25.8788 22.1728C25.7767 22.1748 25.6386 22.3209 25.5857 22.4358C24.8821 23.9396 23.8211 25.0812 22.3875 25.8565C18.0263 28.2213 12.604 25.2643 12.048 20.2209C11.5449 15.6451 15.0627 11.7355 19.5261 12.014C22.2911 12.1874 24.3034 13.6484 25.5554 16.1983C25.6689 16.4282 25.7805 16.5236 26.0377 16.5178C26.8244 16.4983 27.6131 16.51 28.3072 16.51C28.5266 16.1691 28.6533 15.799 28.9067 15.6276C29.1772 15.4464 29.5668 15.4425 29.9072 15.3841C30.0736 15.3548 30.2495 15.3782 30.4197 15.3782C31.2311 15.3782 31.5791 15.6646 31.7607 16.4944H34.9002C35.1044 16.1749 35.2406 15.8399 35.477 15.6178C35.859 15.2555 37.4439 15.2399 37.8354 15.5944C38.0775 15.8126 38.2269 16.1399 38.4803 16.51C39.2482 16.51 40.1598 16.5003 41.0714 16.5119C42.8794 16.5334 44.3735 17.7567 44.7896 19.5683C44.8709 19.919 44.8955 20.2891 44.8974 20.6514C44.9068 22.8994 44.9012 25.1474 44.9031 27.3954V27.7733C45.7541 27.9954 46 28.3285 46 29.2284C46 29.4408 46 29.6531 46 29.8635C46 30.6739 45.705 31.0498 44.922 31.2193V40.2034C45.7749 40.4469 46 40.7567 46 41.6878C46 41.8534 46 42.017 46 42.1826C46 43.1157 45.773 43.4293 44.9031 43.6728V47H39.4278V43.6962C39.2066 43.6046 38.9947 43.5501 38.817 43.4371C38.5068 43.2404 38.3347 42.9365 38.3233 42.5566C38.312 42.1456 38.3082 41.7326 38.3233 41.3216C38.346 40.7353 38.7111 40.3729 39.4014 40.2229V38.0003L39.3995 37.9964ZM19.1308 13.1185C15.7984 13.1127 13.0863 15.9003 13.0825 19.3268C13.0806 22.7416 15.7757 25.5351 19.0854 25.5487C22.4178 25.5604 25.1412 22.7786 25.1507 19.356C25.1601 15.9237 22.4556 13.1244 19.1308 13.1185ZM43.7853 27.7908C43.7929 27.7227 43.8023 27.6778 43.8023 27.633C43.8023 25.2214 43.8156 22.8098 43.7967 20.3982C43.7853 18.8885 42.59 17.673 41.1262 17.6418C40.3962 17.6262 39.6642 17.6379 38.9342 17.6379C38.7337 17.6379 38.5333 17.6379 38.3347 17.6379V21.0274C38.6562 21.0274 38.9607 21.0274 39.2671 21.0274C40.0822 21.0293 40.5115 21.4696 40.5134 22.3131C40.5134 24.0078 40.5134 25.7006 40.5134 27.3954C40.5134 27.522 40.5134 27.6486 40.5134 27.7908H43.7872H43.7853ZM24.0537 36.8237H33.8997V33.477H24.067C24.0613 33.5511 24.0556 33.6075 24.0556 33.6621C24.0556 34.7082 24.0556 35.7542 24.0556 36.8217L24.0537 36.8237ZM20.7554 33.4731C19.7227 33.4731 18.7166 33.4108 17.7199 33.4887C16.396 33.592 15.3369 34.7335 15.2934 36.0718C15.248 37.4334 15.2839 38.7989 15.2877 40.1645C15.2877 40.182 15.3123 40.2015 15.318 40.2112H18.5521C18.5596 40.1606 18.5653 40.1372 18.5653 40.1138C18.5653 39.4437 18.5653 38.7736 18.5672 38.1035C18.571 37.3126 19.0135 36.8548 19.7738 36.851C20.0991 36.851 20.4244 36.851 20.7535 36.851V33.4751L20.7554 33.4731ZM43.7778 40.2229V31.2271H40.5286V40.2229H43.7778ZM34.9985 21.0138V17.6554H31.755V21.0138H34.9985ZM26.0566 21.0021H28.4263V17.6593H26.0528C26.3138 18.7872 26.3062 19.8937 26.0566 21.0021ZM37.234 36.8237H39.3862V33.477H37.234V36.8237ZM15.282 45.8663H18.5426V43.6572H15.282V45.8663ZM43.7796 45.8702V43.6533H40.5267V45.8702H43.7796ZM28.9559 28.9363C29.8354 28.9363 30.7148 28.9363 31.5961 28.9363C32.0273 28.9363 32.2789 28.7239 32.2789 28.3713C32.2789 28.0187 32.0273 27.8084 31.5961 27.8064C29.8599 27.8064 28.1219 27.8064 26.3857 27.8064C25.9526 27.8064 25.7029 28.0187 25.7029 28.3713C25.7029 28.7239 25.9545 28.9343 26.3857 28.9363C27.2424 28.9382 28.0992 28.9363 28.9559 28.9363ZM29.563 16.5217V22.128H30.6183V16.5236H29.563V16.5217ZM36.1446 16.5217V22.128H37.2018V16.5236H36.1446V16.5217ZM22.9379 37.9594V32.3472H21.8826V37.9594H22.9379ZM35.042 32.3413V37.9535H36.0973V32.3413H35.042ZM44.8841 28.9596H39.4297V30.0466H44.8841V28.9596ZM14.1984 41.382V42.4729H19.6376V41.382H14.1984ZM39.4278 42.4709H44.8709V41.3839H39.4278V42.4709ZM30.0718 30.0895H27.9195V32.3063H30.0718V30.0895ZM30.0718 26.6551C30.0339 25.9792 29.546 25.5117 28.9294 25.5448C28.3507 25.576 27.91 26.061 27.9252 26.6551H30.0718Z" fill="#A07B0A"/>
<path id="Vector_2" d="M15.7568 20.8599C15.8438 20.5268 15.9025 20.182 16.0235 19.8605C16.589 18.3489 17.1715 16.8431 17.7502 15.3353C18.0245 14.6204 18.4897 14.2503 19.1138 14.2484C19.7398 14.2484 20.2108 14.6165 20.4831 15.3276C21.0448 16.7905 21.616 18.2495 22.1626 19.7203C22.8756 21.643 21.9224 23.6883 20.0595 24.2747C17.9148 24.9487 15.8344 23.2793 15.7587 20.8599H15.7568ZM16.8821 20.9222C16.9313 22.4981 18.2174 23.5754 19.6472 23.2169C20.9446 22.8936 21.6425 21.4735 21.1413 20.1333C20.5928 18.6645 20.0273 17.2035 19.4543 15.7464C19.3994 15.6081 19.216 15.4074 19.1309 15.425C18.9928 15.4542 18.8339 15.6198 18.7753 15.7659C18.189 17.2561 17.6178 18.7521 17.0505 20.2501C16.9691 20.4644 16.937 20.6962 16.8821 20.9202V20.9222Z" fill="#A07B0A"/>
<path id="Vector_3" d="M41.6235 21.041H42.6826V22.1378H41.6235V21.041Z" fill="#A07B0A"/>
<path id="Vector_4" d="M41.6331 23.3026H42.6865V24.3896H41.6331V23.3026Z" fill="#A07B0A"/>
<path id="Vector_5" d="M41.6274 25.5643H42.6809V26.6552H41.6274V25.5643Z" fill="#A07B0A"/>
<path id="Vector_6" d="M25.1658 35.6997V34.6127H26.2268V35.6997H25.1658Z" fill="#A07B0A"/>
<path id="Vector_7" d="M27.3579 35.69V34.6108H28.4246V35.69H27.3579Z" fill="#A07B0A"/>
<path id="Vector_8" d="M30.6127 35.7036H29.5574V34.6166H30.6127V35.7036Z" fill="#A07B0A"/>
<path id="Vector_9" d="M41.6331 33.4731H42.6846V34.5718H41.6331V33.4731Z" fill="#A07B0A"/>
<path id="Vector_10" d="M42.6883 35.7387V36.8217H41.6311V35.7387H42.6883Z" fill="#A07B0A"/>
<path id="Vector_11" d="M42.6883 39.095H41.6311V38.0002H42.6883V39.095Z" fill="#A07B0A"/>
</g>
</g>
</g>
</svg>
