<svg width="58" height="59" viewBox="0 0 58 59" fill="none" xmlns="http://www.w3.org/2000/svg">
<g id="Group 249">
<g id="Group 247">
<rect id="Rectangle 190" width="58" height="59" fill="white"/>
<g id="Group">
<path id="Vector" d="M21.5883 41.235C20.8911 41.9585 20.2096 42.6658 19.5261 43.3711C19.1078 43.8015 18.8466 43.7995 18.4223 43.363C17.4541 42.3667 16.4839 41.3704 15.5176 40.3721C15.109 39.9498 15.1071 39.679 15.5117 39.2627C16.1971 38.5594 16.8845 37.8602 17.5916 37.1388C17.4639 36.9165 17.3461 36.7124 17.2302 36.5083C16.5565 35.314 16.0655 34.0449 15.769 32.699C15.7179 32.4706 15.6295 32.412 15.4154 32.4161C14.5179 32.4262 13.6203 32.4221 12.7247 32.4201C12.1944 32.4201 12.002 32.2201 12 31.6704C12 30.2235 12 28.7786 12 27.3316C12 26.784 12.1925 26.588 12.7267 26.5859C13.7067 26.5839 14.6848 26.5859 15.6963 26.5859C16.0616 24.9086 16.6763 23.3425 17.6053 21.8693C16.912 21.162 16.2246 20.4648 15.5392 19.7636C15.1012 19.3149 15.1051 19.0603 15.547 18.6036C16.5153 17.6053 17.4816 16.609 18.4518 15.6128C18.8426 15.2106 19.1176 15.2086 19.5045 15.6067C20.1959 16.3201 20.8852 17.0375 21.5373 17.7144C22.4054 17.284 23.2165 16.8394 24.061 16.4757C24.6561 16.219 25.2905 16.0573 25.9151 15.8815C26.1174 15.825 26.1743 15.7421 26.1724 15.536C26.1625 14.6003 26.1665 13.6647 26.1684 12.729C26.1684 12.2056 26.3668 12.0035 26.8774 12.0015C28.2935 11.9995 29.7096 11.9995 31.1276 12.0015C31.6343 12.0015 31.8327 12.2076 31.8346 12.731C31.8366 13.6667 31.8287 14.6023 31.8444 15.538C31.8444 15.6471 31.9387 15.8189 32.0271 15.8492C32.7715 16.1139 33.5433 16.3059 34.272 16.6111C35.0006 16.9162 35.6861 17.3264 36.454 17.7225C36.833 17.3264 37.2534 16.8899 37.6737 16.4534C37.9565 16.1604 38.2393 15.8674 38.526 15.5784C38.8854 15.2167 39.1663 15.2167 39.5277 15.5865C40.5234 16.607 41.5153 17.6296 42.5071 18.6541C42.8822 19.0421 42.8842 19.3291 42.511 19.711C41.8197 20.4244 41.1225 21.1317 40.4095 21.8612C40.5588 22.1259 40.7002 22.3725 40.8377 22.621C41.474 23.7669 41.9375 24.9834 42.2223 26.2687C42.2793 26.5294 42.3775 26.592 42.621 26.588C43.5068 26.5738 44.3906 26.5799 45.2764 26.5819C45.8067 26.5819 45.9991 26.782 45.9991 27.3316C45.9991 28.7786 46.0011 30.2235 45.9991 31.6704C45.9991 32.216 45.8047 32.4141 45.2705 32.4141C44.2904 32.4161 43.3123 32.4141 42.3009 32.4141C41.9375 34.0934 41.3169 35.6575 40.3683 37.1691C40.4743 37.2479 40.5942 37.3126 40.6845 37.4055C42.1143 38.8727 43.5461 40.3378 44.9661 41.813C45.7949 42.6739 46.0698 43.7065 45.6888 44.8564C45.3137 45.9901 44.5065 46.6529 43.3516 46.8126C42.4109 46.9419 41.6135 46.6044 40.9477 45.9194C39.5296 44.4583 38.1097 42.9992 36.6916 41.5361C36.6013 41.4412 36.5286 41.328 36.4874 41.2734C35.5839 41.72 34.761 42.1646 33.9067 42.5344C33.3234 42.787 32.7008 42.9467 32.088 43.1185C31.8857 43.1751 31.8268 43.2559 31.8287 43.462C31.8386 44.3977 31.8346 45.3333 31.8327 46.269C31.8327 46.7924 31.6323 46.9965 31.1237 46.9985C29.7076 47.0005 28.2915 47.0005 26.8755 46.9985C26.3668 46.9985 26.1704 46.7924 26.1684 46.271C26.1665 45.3353 26.1743 44.3997 26.1586 43.464C26.1586 43.3549 26.0585 43.173 25.9779 43.1528C24.4244 42.779 22.9789 42.1464 21.5903 41.235H21.5883ZM41.3994 19.2301C40.5725 18.3793 39.7909 17.573 38.9778 16.7384C38.3277 17.4154 37.6638 18.1065 36.998 18.7936C36.6308 19.1735 36.4304 19.1977 36.0062 18.8987C34.5626 17.8862 32.9816 17.2234 31.267 16.8899C30.8565 16.8091 30.7014 16.6191 30.6994 16.1927C30.6955 15.3056 30.6994 14.4184 30.6994 13.5313C30.6994 13.4161 30.6994 13.3009 30.6994 13.1918H27.337C27.3213 13.2322 27.3056 13.2544 27.3056 13.2767C27.3036 14.1881 27.3017 15.0995 27.2997 16.0109C27.2997 16.6757 27.1995 16.8131 26.5612 16.9384C24.9174 17.2638 23.4129 17.9266 22.0224 18.8805C21.551 19.2038 21.3723 19.1856 20.9756 18.7734C20.3196 18.0923 19.6675 17.4073 19.0292 16.7424C18.2083 17.5891 17.4207 18.4035 16.6076 19.2462C17.2518 19.903 17.9137 20.576 18.5736 21.2529C18.9683 21.6571 18.986 21.845 18.6718 22.33C17.7487 23.7487 17.1143 25.2906 16.7902 26.9659C16.6528 27.6752 16.5487 27.754 15.8456 27.754C14.9519 27.754 14.0583 27.754 13.1588 27.754V31.2541C14.1251 31.2541 15.0678 31.2541 16.0086 31.2541C16.5015 31.2541 16.6606 31.3834 16.7569 31.8826C17.0907 33.6326 17.729 35.2493 18.7071 36.7225C18.9899 37.1509 18.9624 37.3631 18.5932 37.743C17.9274 38.4281 17.2577 39.1111 16.6292 39.7538C17.4482 40.5944 18.2358 41.4068 19.0489 42.2434C19.697 41.5705 20.3687 40.8693 21.0443 40.1741C21.3546 39.8548 21.5805 39.8184 21.9222 40.0589C23.4051 41.0976 25.0234 41.7908 26.7891 42.1242C27.1406 42.1909 27.3056 42.4273 27.3036 42.7992C27.2997 43.6257 27.3036 44.4522 27.3036 45.2767C27.3036 45.4546 27.3036 45.6324 27.3036 45.8062H30.7034C30.7034 44.8079 30.7034 43.8359 30.7034 42.8659C30.7034 42.3809 30.8428 42.2091 31.2945 42.1121C31.5243 42.0636 31.758 42.0191 31.9859 41.9605C33.2487 41.6331 34.4428 41.134 35.5289 40.4267C34.9771 39.8588 34.435 39.3031 33.889 38.7393C28.9122 41.4937 23.246 39.5133 20.5474 35.411C17.843 31.2965 18.2809 25.8221 21.6414 22.1987C24.9488 18.6339 30.2968 17.9448 34.3937 20.576C36.4167 21.8754 37.8445 23.6941 38.6223 26.014C39.6102 28.9584 39.3431 31.8179 37.9781 34.5036C38.5457 35.0897 39.0819 35.6454 39.622 36.2031C39.6553 36.1486 39.7084 36.0698 39.7575 35.9869C40.492 34.6976 40.985 33.3154 41.258 31.8482C41.3405 31.4016 41.5172 31.2541 41.9611 31.2521C42.7055 31.248 43.4479 31.2521 44.1922 31.2521C44.4122 31.2521 44.6322 31.2521 44.8443 31.2521V27.752C43.8839 27.752 42.9529 27.752 42.02 27.752C41.5035 27.752 41.3483 27.6247 41.2501 27.1073C40.9202 25.3835 40.2897 23.7871 39.3352 22.328C39.0112 21.8309 39.0308 21.6571 39.4531 21.2246C40.1051 20.5557 40.7591 19.8909 41.4053 19.2301H41.3994ZM33.0189 37.8441C32.0133 36.7872 31.0353 35.7363 30.0277 34.7158C29.6762 34.3601 29.1989 34.2975 28.704 34.3298C28.2601 34.3581 27.8064 34.3702 27.3645 34.3197C23.6388 33.8852 21.3586 29.7607 22.8807 26.2283C23.1458 25.6139 23.5366 25.5311 23.9962 26.0019C24.8741 26.9012 25.7481 27.8065 26.628 28.7058C26.7085 28.7887 26.8087 28.9039 26.903 28.9079C27.4058 28.9281 27.9086 28.918 28.4329 28.918C28.4329 28.437 28.4526 28.0005 28.4231 27.5661C28.4113 27.3943 28.3367 27.1882 28.2208 27.0669C27.3488 26.1454 26.4552 25.2421 25.5733 24.3266C25.1511 23.8881 25.2316 23.4718 25.7835 23.2192C26.8028 22.7544 27.8614 22.6271 28.9652 22.7868C31.8444 23.2051 34.0481 26.1151 33.7044 29.0857C33.6238 29.7789 33.8085 30.3447 34.2916 30.8338C35.1518 31.7007 35.9964 32.5838 36.8488 33.4588C36.9195 33.5316 37.002 33.5963 37.0825 33.669C38.9404 30.0214 38.1745 25.0077 34.5469 22.1179C30.9312 19.2361 25.8247 19.5655 22.59 22.8777C19.3788 26.1656 19.0233 31.4178 21.7573 35.126C24.5442 38.907 29.4405 39.7618 33.017 37.842L33.0189 37.8441ZM23.7134 27.368C23.6761 27.4751 23.6506 27.5297 23.6368 27.5883C22.9848 30.565 25.4437 33.4851 28.3976 33.1901C29.5387 33.0769 30.4304 33.4326 31.2277 34.2591C34.6785 37.836 38.1489 41.3927 41.6115 44.9574C41.7195 45.0686 41.8256 45.1858 41.9454 45.2828C42.3539 45.6203 42.8194 45.7597 43.3359 45.6526C43.9919 45.5152 44.4397 45.109 44.642 44.4563C44.8482 43.7833 44.6832 43.1791 44.204 42.682C43.0236 41.4573 41.8354 40.2408 40.6511 39.0222C38.257 36.5568 35.8628 34.0914 33.4648 31.6279C32.7695 30.9126 32.4592 30.0618 32.5692 29.0514C32.8166 26.7799 31.4006 24.6338 29.2618 24.0478C28.4997 23.8376 27.7338 23.8113 26.9305 24.0478C27.0346 24.163 27.1092 24.2519 27.1917 24.3367C27.883 25.0501 28.5704 25.7675 29.2716 26.4748C29.4798 26.685 29.578 26.9133 29.5721 27.2164C29.5583 27.9197 29.5701 28.625 29.5662 29.3302C29.5662 29.8961 29.3757 30.086 28.8159 30.0881C28.156 30.0881 27.4941 30.0739 26.8342 30.0941C26.5004 30.1042 26.2529 29.9931 26.0211 29.7486C25.2728 28.9584 24.5088 28.1844 23.7134 27.368Z" fill="#A07B0A"/>
<path id="Vector_2" d="M34.1796 34.2106C34.38 34.3359 34.5508 34.4005 34.6687 34.5198C36.8998 36.8053 39.125 39.097 41.3483 41.3906C41.637 41.6897 41.6468 42.0474 41.3974 42.2899C41.1558 42.5243 40.8298 42.5041 40.549 42.2151C38.3218 39.9255 36.0965 37.6339 33.8693 35.3443C33.6651 35.1341 33.5649 34.8795 33.7083 34.6249C33.8006 34.4591 34.0048 34.3581 34.1796 34.2106Z" fill="#A07B0A"/>
<path id="Vector_3" d="M33.1917 33.2689C33.1053 33.3901 33.0228 33.6185 32.8716 33.6872C32.7066 33.7619 32.4434 33.7559 32.2863 33.667C32.0683 33.5417 31.8915 33.3214 31.7344 33.1132C31.5616 32.8849 31.591 32.6282 31.7776 32.414C31.9642 32.2018 32.2136 32.123 32.4474 32.2887C32.7636 32.5131 33.0798 32.7616 33.1917 33.2709V33.2689Z" fill="#A07B0A"/>
<path id="Vector_4" d="M43.5815 43.943C43.5717 44.3613 43.12 44.6644 42.7782 44.4401C42.5288 44.2764 42.297 44.042 42.1321 43.7874C41.9062 43.4398 42.189 42.9669 42.5956 42.9447C42.955 42.9245 43.5894 43.5671 43.5815 43.943Z" fill="#A07B0A"/>
</g>
</g>
</g>
</svg>
