<svg width="60" height="60" viewBox="0 0 60 60" fill="none" xmlns="http://www.w3.org/2000/svg">
<circle cx="30" cy="30" r="30" fill="#2A2B2E"/>
<path d="M28.9845 20C29.3309 20.0505 29.6797 20.0903 30.0236 20.1539C31.2439 20.3806 32.3596 20.8559 33.3625 21.5898C34.9908 22.7808 36.1109 24.3351 36.6092 26.2943C37.2627 28.864 36.816 31.2455 35.2711 33.4109C35.1621 33.5641 35.0456 33.7124 34.926 33.8725C34.9771 33.9267 35.0232 33.979 35.0724 34.0282C36.6048 35.5613 38.1379 37.0944 39.6709 38.6275C40.0634 39.0199 40.1076 39.4491 39.7886 39.7762C39.4653 40.1082 39.0243 40.069 38.6263 39.6709C37.0976 38.1428 35.5695 36.6147 34.0421 35.0854C33.9916 35.0349 33.9499 34.9757 33.8951 34.9103C33.7356 35.0293 33.5961 35.1333 33.4566 35.2374C30.6253 37.3616 26.6641 37.4657 23.7476 35.4598C21.7118 34.0594 20.4815 32.1282 20.0891 29.6782C20.0523 29.4483 20.0293 29.2159 20 28.9848C20 28.6204 20 28.2553 20 27.8909C20.0118 27.8411 20.0262 27.7919 20.0343 27.7414C20.1096 27.2873 20.1532 26.825 20.2641 26.3796C20.7101 24.5862 21.6732 23.1079 23.0879 21.9299C24.2023 21.0023 25.4799 20.4018 26.9127 20.1464C27.2372 20.0885 27.5649 20.048 27.8907 20C28.2551 20 28.6201 20 28.9845 20ZM21.482 28.459C21.5031 32.312 24.5941 35.4242 28.4594 35.4137C32.372 35.4031 35.4188 32.2584 35.4157 28.4385C35.4119 24.5812 32.2655 21.467 28.4395 21.4814C24.5935 21.4957 21.4701 24.6279 21.4826 28.459H21.482Z" fill="#838383" stroke="#2A2B2E" stroke-width="0.3"/>
<path d="M23.0069 28.2192C23.0119 26.7995 23.484 25.5766 24.472 24.5631C24.7592 24.2684 25.1952 24.2597 25.4918 24.5288C25.7957 24.8042 25.8331 25.2471 25.5472 25.5592C25.1005 26.0476 24.7305 26.5833 24.6084 27.2393C24.5268 27.676 24.5212 28.1276 24.5025 28.5736C24.4807 29.1044 23.9699 29.4564 23.4859 29.2514C23.2349 29.1449 23.0798 28.9518 23.0436 28.677C23.0237 28.5226 23.0181 28.3662 23.0063 28.2192H23.0069Z" fill="#838383" stroke="#2A2B2E" stroke-width="0.3"/>
</svg>
