<svg width="60" height="60" viewBox="0 0 60 60" fill="none" xmlns="http://www.w3.org/2000/svg">
<circle cx="30" cy="30" r="30" fill="#2A2B2E"/>
<path d="M28.3094 20.0018C28.1231 20.0773 27.9262 20.135 27.7531 20.2313C27.3942 20.4316 27.1768 20.7408 27.0827 21.1261C26.97 21.588 26.8603 22.0512 26.7563 22.5149C26.7301 22.6315 26.6765 22.698 26.5607 22.7581C26.0891 23.0036 25.6237 23.2599 25.1664 23.5292C25.0431 23.6017 24.949 23.6208 24.8132 23.5768C24.3553 23.4305 23.8937 23.292 23.4308 23.16C22.7044 22.9531 22.0204 23.207 21.6398 23.8271C21.1644 24.6012 20.6941 25.3782 20.2275 26.1571C19.8381 26.8081 19.9546 27.5061 20.5309 28.0186C20.8853 28.3337 21.2473 28.6405 21.5955 28.9616C21.6566 29.0174 21.6933 29.1245 21.6946 29.2083C21.7027 29.7345 21.7027 30.2612 21.6933 30.7874C21.6921 30.8718 21.6572 30.9788 21.5968 31.0353C21.2485 31.3564 20.886 31.6632 20.5327 31.9789C19.9478 32.5015 19.8387 33.1929 20.2374 33.8564C20.6984 34.6234 21.1619 35.3892 21.6285 36.1532C22.0223 36.7976 22.6988 37.0521 23.447 36.8363C23.9161 36.7007 24.3834 36.5592 24.8487 36.413C24.9646 36.3767 25.0437 36.3993 25.1465 36.4588C25.6175 36.7316 26.099 36.9867 26.5706 37.2578C26.646 37.3012 26.7245 37.3856 26.7451 37.4641C26.8666 37.9308 26.9675 38.4023 27.0827 38.8702C27.2484 39.5432 27.8365 39.9933 28.5592 39.9969C29.5211 40.001 30.4823 40.001 31.4442 39.9969C32.1413 39.9939 32.7244 39.5682 32.9001 38.9225C33.0315 38.4386 33.1318 37.9463 33.2596 37.4612C33.2801 37.3833 33.3586 37.3006 33.434 37.2572C33.9056 36.9855 34.3871 36.7299 34.8569 36.4552C34.9609 36.3945 35.0431 36.3755 35.1553 36.4106C35.6013 36.5503 36.0493 36.6871 36.4972 36.8208C37.2977 37.0604 37.9736 36.8089 38.3954 36.1151C38.8427 35.3785 39.29 34.6412 39.7354 33.9028C40.1752 33.1733 40.0587 32.489 39.4034 31.9206C39.0651 31.6275 38.7262 31.335 38.3973 31.0324C38.3393 30.9794 38.3026 30.879 38.3019 30.7999C38.2938 30.2672 38.2932 29.7345 38.3026 29.2018C38.3038 29.1179 38.3474 29.0127 38.4103 28.955C38.7542 28.6393 39.1112 28.3361 39.4619 28.0269C40.0469 27.5109 40.164 26.8105 39.7684 26.15C39.3049 25.3765 38.8377 24.6053 38.3674 23.836C37.9817 23.2046 37.2996 22.9495 36.562 23.1612C36.086 23.2979 35.6157 23.4513 35.1385 23.5833C35.0581 23.6053 34.9428 23.5803 34.8662 23.5387C34.3859 23.2813 33.9156 23.0078 33.434 22.7515C33.3281 22.6957 33.272 22.641 33.2471 22.5256C33.1524 22.0934 33.0372 21.6647 32.9425 21.2325C32.8029 20.5975 32.4185 20.1908 31.7544 20.0321C31.7364 20.0279 31.722 20.0113 31.7058 20H28.3094V20.0018ZM22.9231 35.6787C22.8677 35.621 22.7829 35.5598 22.7337 35.4783C22.2858 34.7494 21.8478 34.014 21.3968 33.2869C21.2859 33.1073 21.3065 32.9872 21.4691 32.8493C21.9282 32.4604 22.3755 32.0591 22.8272 31.6626C23.0172 31.4955 23.0888 31.2934 23.0502 31.0466C22.9449 30.3665 22.9393 29.6833 23.0446 29.0038C23.0901 28.7089 23.0053 28.4853 22.7779 28.2903C22.3369 27.9116 21.907 27.521 21.4641 27.1446C21.3083 27.0126 21.2865 26.8955 21.3931 26.7231C21.8466 25.9894 22.2933 25.2522 22.7343 24.5114C22.8297 24.3515 22.9374 24.3134 23.1193 24.3705C23.695 24.5512 24.2775 24.7124 24.8512 24.8967C25.1478 24.9918 25.3938 24.9413 25.6306 24.7569C26.1732 24.3348 26.77 23.9977 27.426 23.7635C27.7163 23.66 27.877 23.4733 27.9406 23.1862C28.0664 22.6202 28.2109 22.0583 28.3362 21.4923C28.376 21.3104 28.4707 21.2474 28.6601 21.2485C29.5535 21.2545 30.4468 21.2557 31.3402 21.2479C31.5457 21.2462 31.6292 21.3276 31.6697 21.5107C31.7949 22.0767 31.9401 22.6386 32.0666 23.204C32.1276 23.4775 32.2809 23.6558 32.5556 23.7539C33.2253 23.993 33.8333 24.336 34.3865 24.7671C34.6195 24.9484 34.8612 24.9888 35.1478 24.8973C35.7222 24.7141 36.3041 24.5518 36.8797 24.3711C37.0585 24.3146 37.1706 24.3443 37.2672 24.5066C37.7082 25.2474 38.1549 25.9847 38.6072 26.7189C38.7125 26.889 38.6969 27.0091 38.5405 27.1423C38.0982 27.5192 37.6709 27.9134 37.2273 28.2885C36.9881 28.4907 36.9108 28.7243 36.9582 29.0204C37.0616 29.6744 37.061 30.3308 36.9576 30.9848C36.9121 31.2731 36.9843 31.5038 37.2167 31.7018C37.6646 32.0829 38.0976 32.4801 38.5449 32.8618C38.6932 32.9884 38.7144 33.1055 38.6141 33.269C38.1593 34.0092 37.7095 34.7524 37.2634 35.498C37.1725 35.6496 37.066 35.6852 36.8921 35.6306C36.3103 35.4486 35.7216 35.2839 35.1403 35.0996C34.8519 35.0087 34.6114 35.058 34.3797 35.2382C33.8265 35.6686 33.2178 36.0105 32.5475 36.2489C32.2815 36.3434 32.1295 36.5206 32.0697 36.7857C31.9407 37.3577 31.7968 37.9261 31.6685 38.498C31.6292 38.674 31.5445 38.7507 31.3495 38.7489C30.4493 38.743 29.5491 38.7436 28.6489 38.7489C28.4682 38.7501 28.3767 38.6883 28.338 38.5147C28.2109 37.9427 28.067 37.3738 27.9375 36.8024C27.8745 36.5241 27.7163 36.3398 27.4341 36.2388C26.7719 36.0015 26.1682 35.6633 25.6212 35.2352C25.3913 35.055 25.1484 35.0057 24.8599 35.0978C24.2986 35.2774 23.7317 35.4415 23.1667 35.6115C23.1019 35.6311 23.0359 35.6466 22.9225 35.6769L22.9231 35.6787Z" fill="#838383"/>
<path d="M29.8693 25.8349C27.3973 25.9163 25.4966 27.9217 25.6411 30.291C25.7732 32.4557 27.839 34.2631 30.1303 34.165C32.6048 34.0592 34.4719 32.1275 34.361 29.7874C34.2551 27.5495 32.1918 25.7338 29.8693 25.8343V25.8349ZM26.9488 29.9967C26.9507 28.3849 28.3256 27.0745 30.0089 27.081C31.6834 27.087 33.0533 28.3967 33.0558 29.9943C33.0583 31.6019 31.6828 32.9194 30.002 32.9194C28.3162 32.9194 26.9475 31.6091 26.9494 29.9973L26.9488 29.9967Z" fill="#838383"/>
</svg>
