<svg width="58" height="59" viewBox="0 0 58 59" fill="none" xmlns="http://www.w3.org/2000/svg">
<g id="Group 242">
<rect id="Rectangle 188" width="58" height="59" fill="white"/>
<g id="Group">
<path id="Vector" d="M46 31.0031C45.9158 31.5272 45.8484 32.057 45.7437 32.5773C44.7109 37.712 40.6284 41.602 35.5898 42.2166C34.761 42.3168 33.9134 42.2763 33.0752 42.2744C32.8432 42.2744 32.7347 42.3091 32.6542 42.5596C31.7786 45.3302 29.2827 47.1066 26.4463 46.9949C23.4396 46.8793 20.8445 44.3803 20.5639 41.3034C20.3393 38.8333 21.2206 36.8546 23.1421 35.3633C23.1926 35.3228 23.2431 35.2804 23.2955 35.2381C23.1009 34.7178 22.9119 34.2111 22.7099 33.6736C20.2364 34.529 17.8621 34.3171 15.6375 32.8682C14.0771 31.8509 13.0125 30.4116 12.4175 28.6159C11.2351 25.0438 12.6327 21.0902 15.7423 19.0845C18.9043 17.0441 23.4658 17.4872 26.1824 20.9669C26.4912 20.7164 26.7924 20.4524 27.1123 20.2135C34.2558 14.8862 44.26 19.0459 45.8148 27.9878C45.8821 28.377 45.9383 28.7681 45.9981 29.1593V31.0051L46 31.0031ZM32.9835 41.0741C36.8059 41.629 41.8333 39.6021 43.998 34.4462C46.0206 29.6313 44.4471 24.0477 40.2299 20.9919C36.1623 18.044 30.4427 18.4641 26.8148 21.9476C22.8988 25.7085 22.6612 31.1765 24.3376 34.6446C28.5998 32.8335 33.2529 36.2515 32.9835 41.0721V41.0741ZM25.2975 21.7299C25.3218 21.7684 25.2975 21.7183 25.2619 21.6778C23.5387 19.5623 21.3366 18.6567 18.706 19.1558C14.9883 19.8609 12.6739 23.3502 13.2632 27.2075C13.905 31.4135 18.2831 34.0724 22.1729 32.6235C22.3899 32.5426 22.4517 32.4482 22.4105 32.2035C21.9521 29.5119 22.3039 26.932 23.55 24.5197C24.0439 23.5622 24.6913 22.6874 25.2975 21.7318V21.7299ZM26.7437 45.835C29.554 45.835 31.8534 43.4632 31.8459 40.5712C31.8385 37.6888 29.5521 35.344 26.7475 35.3421C23.9466 35.3402 21.6565 37.685 21.6472 40.5693C21.6359 43.4632 23.9316 45.8369 26.7437 45.8369V45.835Z" fill="#A07B0A"/>
<path id="Vector_2" d="M40.4227 12C40.7464 12.1445 40.883 12.3853 40.9129 12.763C40.984 13.6454 41.6033 14.2504 42.4677 14.3448C42.7296 14.3737 42.9747 14.4161 43.1038 14.6935C43.2573 15.0249 43.0832 15.4103 42.7296 15.497C42.5481 15.5413 42.3554 15.5374 42.1739 15.5837C41.4592 15.7648 40.9709 16.3852 40.8979 17.1886C40.8586 17.6183 40.6622 17.8534 40.3366 17.8572C39.9999 17.8611 39.7903 17.6106 39.7585 17.1674C39.6968 16.2966 39.0775 15.6376 38.2392 15.5432C38.1289 15.5317 38.0166 15.524 37.9118 15.4931C37.6461 15.4141 37.5039 15.2176 37.5058 14.9382C37.5077 14.6589 37.6518 14.4643 37.9193 14.3911C38.0353 14.3583 38.1588 14.3544 38.2804 14.339C39.0662 14.2408 39.7061 13.5857 39.7473 12.7784C39.766 12.4046 39.9082 12.1599 40.2206 12.0019H40.419L40.4227 12ZM40.3198 15.47C40.4957 15.2754 40.6659 15.0885 40.7894 14.9537C40.6528 14.7841 40.4901 14.5818 40.3853 14.4546C40.1795 14.6261 39.9868 14.786 39.794 14.9479C39.9811 15.1348 40.1533 15.3082 40.3179 15.4719L40.3198 15.47Z" fill="#A07B0A"/>
<path id="Vector_3" d="M19.3797 40.5944C19.3759 40.9046 19.172 41.1223 18.8352 41.1743C17.6864 41.3477 17.2617 41.787 17.1177 42.9585C17.0784 43.2802 16.8333 43.5134 16.5414 43.5037C16.2383 43.4941 16.0194 43.2533 15.9894 42.8949C15.9165 42.0259 15.4618 41.4306 14.7078 41.2321C14.5712 41.1955 14.4234 41.1955 14.2831 41.1763C13.9332 41.1262 13.7218 40.8911 13.733 40.5694C13.7443 40.2572 13.9445 40.0588 14.2925 40.0145C15.3701 39.8815 15.8697 39.3594 15.9932 38.24C16.0306 37.9009 16.2476 37.687 16.5545 37.6851C16.8744 37.6851 17.0989 37.9028 17.1195 38.2669C17.1607 38.974 17.46 39.5154 18.085 39.8179C18.3282 39.9355 18.6126 39.9644 18.882 40.0164C19.1907 40.0761 19.3834 40.29 19.3816 40.5944H19.3797ZM16.0456 40.5828C16.2177 40.7678 16.3936 40.9547 16.5414 41.1146C16.7042 40.9335 16.88 40.7389 17.0278 40.5771C16.8913 40.421 16.721 40.2283 16.5545 40.0376C16.3842 40.2206 16.2102 40.4056 16.0456 40.5828Z" fill="#A07B0A"/>
<path id="Vector_4" d="M26.7436 18.4313C25.4919 18.4313 24.4872 17.3986 24.4872 16.1116C24.4872 14.811 25.5031 13.7706 26.7661 13.7764C28.0103 13.7841 29.0112 14.8284 29.0075 16.1174C29.0038 17.4044 27.999 18.4313 26.7455 18.4313H26.7436ZM27.8755 16.1193C27.8812 15.4719 27.3779 14.944 26.7511 14.9421C26.1393 14.9401 25.6304 15.4488 25.6173 16.0769C25.6042 16.7281 26.0981 17.258 26.7249 17.2676C27.3592 17.2772 27.8699 16.7667 27.8755 16.1193Z" fill="#A07B0A"/>
<path id="Vector_5" d="M45.42 42.3304C45.4237 43.2976 44.6884 44.0663 43.751 44.076C42.8024 44.0856 42.0316 43.3072 42.0297 42.34C42.0279 41.3786 42.8118 40.5771 43.7417 40.5848C44.6716 40.5925 45.4181 41.3689 45.4218 42.3304H45.42ZM44.2861 42.3246C44.2824 42.0028 44.0186 41.7408 43.7118 41.7524C43.4199 41.7639 43.1692 42.0279 43.1654 42.3284C43.1598 42.6464 43.418 42.9084 43.7323 42.9084C44.0541 42.9084 44.2918 42.6579 44.288 42.3246H44.2861Z" fill="#A07B0A"/>
<path id="Vector_6" d="M32.426 14.9558H33.5149V16.0752H32.426V14.9558Z" fill="#A07B0A"/>
<path id="Vector_7" d="M19.9427 35.9431V37.0645H18.8463V35.9431H19.9427Z" fill="#A07B0A"/>
<path id="Vector_8" d="M14.2604 45.2282H13.1547C13.1547 44.8948 13.1472 44.5711 13.1622 44.2475C13.164 44.1897 13.2613 44.0933 13.3174 44.0895C13.6224 44.0741 13.9293 44.0818 14.2604 44.0818V45.2262V45.2282Z" fill="#A07B0A"/>
<path id="Vector_9" d="M39.2028 45.2245H38.0989V44.0801C38.4095 44.0801 38.7145 44.0704 39.0194 44.0878C39.083 44.0916 39.1916 44.1957 39.1953 44.2573C39.214 44.5714 39.2028 44.8854 39.2028 45.2226V45.2245Z" fill="#A07B0A"/>
<path id="Vector_10" d="M43.695 29.4328C43.3508 29.4829 43.0046 29.5349 42.6192 29.5908C42.5462 29.2055 42.4864 28.8413 42.4096 28.481C41.9344 26.2537 40.9671 24.329 39.1392 22.9533C37.8762 22.0034 36.4524 21.4928 34.8957 21.3637C34.8321 21.358 34.7685 21.3483 34.6862 21.3368V20.1865C36.6807 20.3252 38.4619 20.99 40.041 22.2288C42.0878 23.8338 43.4088 26.5061 43.695 29.4348V29.4328Z" fill="#A07B0A"/>
<path id="Vector_11" d="M35.2362 25.4486C35.2269 25.7723 34.993 25.9861 34.6113 26.017C33.8049 26.0805 33.1987 26.593 33.021 27.3714C32.9892 27.514 32.9929 27.6643 32.9705 27.8107C32.92 28.144 32.6842 28.3521 32.383 28.3406C32.0892 28.329 31.889 28.1248 31.8497 27.7972C31.7094 26.6451 31.2248 26.1441 30.1228 26.015C29.7935 25.9765 29.5877 25.753 29.5858 25.4351C29.5858 25.1172 29.7917 24.8937 30.1209 24.8532C31.2099 24.7241 31.7337 24.1943 31.8479 23.1057C31.8872 22.7358 32.0967 22.52 32.4148 22.5257C32.7254 22.5296 32.9574 22.755 32.9742 23.123C32.9985 23.6548 33.1651 24.1326 33.5898 24.4236C33.8966 24.6336 34.2802 24.753 34.6469 24.8417C34.9986 24.9264 35.2475 25.1268 35.2381 25.4505L35.2362 25.4486ZM32.411 24.8975C32.2408 25.0729 32.0556 25.2617 31.8965 25.4255C32.0686 25.6066 32.2427 25.7935 32.3998 25.9592C32.5757 25.7857 32.7628 25.6027 32.9293 25.437C32.7572 25.2559 32.5794 25.0709 32.4129 24.8956L32.411 24.8975Z" fill="#A07B0A"/>
<path id="Vector_12" d="M42.0224 30.6816C42.0224 30.9937 41.8166 31.2153 41.4835 31.2635C40.3422 31.4311 39.8969 31.8916 39.7603 33.0437C39.7229 33.3674 39.4797 33.6006 39.1878 33.5929C38.8847 33.5852 38.6621 33.3443 38.6321 32.9859C38.5536 32.0958 38.0914 31.5004 37.3224 31.3097C37.1952 31.2789 37.0605 31.2808 36.9295 31.2635C36.5853 31.2172 36.3645 30.9764 36.3739 30.6585C36.3832 30.3463 36.589 30.1421 36.9333 30.1017C38.0054 29.9745 38.5049 29.4543 38.634 28.331C38.6733 27.99 38.8885 27.7761 39.1934 27.7742C39.5152 27.7723 39.7285 27.988 39.7622 28.3541C39.8595 29.41 40.4152 29.9841 41.4555 30.1017C41.8222 30.144 42.0243 30.3502 42.0224 30.6816ZM38.6714 30.6643C38.8567 30.8531 39.0344 31.0361 39.2159 31.2211C39.3693 31.0515 39.5471 30.8569 39.6612 30.7317C39.5078 30.539 39.345 30.3329 39.2159 30.1691C39.0269 30.3406 38.8379 30.512 38.6714 30.6643Z" fill="#A07B0A"/>
<path id="Vector_13" d="M35.7807 36.533V37.6756C35.4571 37.6756 35.1427 37.6833 34.8284 37.6679C34.7723 37.6659 34.7199 37.5657 34.6694 37.506C34.6582 37.4925 34.6675 37.4617 34.6656 37.4386C34.6039 36.4694 34.6563 36.4251 35.7789 36.5311L35.7807 36.533Z" fill="#A07B0A"/>
<path id="Vector_14" d="M14.2943 27.2343C14.227 26.3981 14.3037 25.6082 14.4627 24.8278C14.8463 22.9416 15.7556 21.4561 17.5274 20.6469C18.2851 20.3001 19.0784 20.1344 19.9335 20.2018V21.3251C19.6453 21.3463 19.3479 21.3443 19.0597 21.3944C17.2112 21.7162 15.9969 22.9512 15.6021 24.955C15.4655 25.6525 15.4281 26.3711 15.3402 27.1283C15.039 27.1592 14.6928 27.1939 14.2924 27.2343H14.2943Z" fill="#A07B0A"/>
<path id="Vector_15" d="M18.8463 27.196H19.9352V28.3155H18.8463V27.196Z" fill="#A07B0A"/>
</g>
</g>
</svg>
